600-italic.ufo
<glyph name="exclam" format="2">
  <advance width="320"/>
  <unicode hex="0021"/>
  <outline>
    <contour>
      <point x="173" y="700" type="line"/>
      <point x="333" y="700" type="line"/>
      <point x="223.5" y="222" type="line"/>
      <point x="120" y="222" type="line"/>
    </contour>
    <contour>
      <point x="61" y="56" type="curve" smooth="yes"/>
      <point x="61" y="100"/>
      <point x="96" y="132"/>
      <point x="144" y="132" type="curve" smooth="yes"/>
      <point x="192" y="132"/>
      <point x="226" y="100"/>
      <point x="226" y="56" type="curve" smooth="yes"/>
      <point x="226" y="12"/>
      <point x="192" y="-22"/>
      <point x="144" y="-22" type="curve" smooth="yes"/>
      <point x="96" y="-22"/>
      <point x="61" y="12"/>
    </contour>
  </outline>
</glyph>
<glyph name="quotedbl" format="2">
  <advance width="487"/>
  <unicode hex="0022"/>
  <outline>
    <contour>
      <point x="198" y="700" type="line"/>
      <point x="340" y="699.5" type="line"/>
      <point x="192" y="387" type="line"/>
      <point x="105.5" y="387" type="line"/>
    </contour>
    <contour>
      <point x="394" y="700" type="line"/>
      <point x="536" y="699.5" type="line"/>
      <point x="388" y="387" type="line"/>
      <point x="301.5" y="387" type="line"/>
    </contour>
  </outline>
</glyph>
<glyph name="numbersign" format="2">
  <advance width="628"/>
  <unicode hex="0023"/>
  <outline>
    <contour>
      <point x="117.5" y="421" type="line"/>
      <point x="134.5" y="524" type="line"/>
      <point x="659" y="524" type="line"/>
      <point x="641.5" y="420" type="line"/>
      <point x="499" y="420" type="line"/>
      <point x="475" y="424" type="line"/>
      <point x="280.5" y="424" type="line"/>
      <point x="258" y="420" type="line"/>
    </contour>
    <contour>
      <point x="36.5" y="180" type="line"/>
      <point x="54.5" y="284" type="line"/>
      <point x="185.5" y="284" type="line"/>
      <point x="211" y="280" type="line"/>
      <point x="425" y="280" type="line"/>
      <point x="452" y="284" type="line"/>
      <point x="579" y="284" type="line"/>
      <point x="562" y="180" type="line"/>
    </contour>
    <contour>
      <point x="543.5" y="699.5" type="line"/>
      <point x="660" y="699.5" type="line"/>
      <point x="374.5" y="0" type="line"/>
      <point x="259.5" y="0" type="line"/>
      <point x="351" y="225" type="line"/>
      <point x="365.5" y="248.5" type="line"/>
      <point x="451" y="458" type="line"/>
      <point x="457" y="484" type="line"/>
    </contour>
    <contour>
      <point x="319" y="700" type="line"/>
      <point x="435.5" y="699.5" type="line"/>
      <point x="347.5" y="486" type="line"/>
      <point x="333" y="459" type="line"/>
      <point x="247" y="249.5" type="line"/>
      <point x="242.5" y="226" type="line"/>
      <point x="150" y="0" type="line"/>
      <point x="35.5" y="0" type="line"/>
    </contour>
  </outline>
</glyph>
<glyph name="dollar" format="2">
  <advance width="590"/>
  <unicode hex="0024"/>
  <outline>
    <contour>
      <point x="361.5" y="818" type="line"/>
      <point x="469" y="818" type="line"/>
      <point x="438" y="646" type="line"/>
      <point x="339" y="646" type="line"/>
    </contour>
    <contour>
      <point x="249" y="57.5" type="line"/>
      <point x="347.5" y="57.5" type="line"/>
      <point x="325" y="-112" type="line"/>
      <point x="217.5" y="-112" type="line"/>
    </contour>
    <contour>
      <point x="495" y="496.5" type="line"/>
      <point x="473.5" y="549.5"/>
      <point x="444" y="596.5"/>
      <point x="385" y="597.5" type="curve" smooth="yes"/>
      <point x="331" y="598.5"/>
      <point x="293" y="569"/>
      <point x="285" y="525" type="curve" smooth="yes"/>
      <point x="273" y="459"/>
      <point x="353.5" y="435"/>
      <point x="419" y="408" type="curve" smooth="yes"/>
      <point x="506.5" y="372"/>
      <point x="576" y="303"/>
      <point x="563" y="193.5" type="curve" smooth="yes"/>
      <point x="545.5" y="65.5"/>
      <point x="432" y="-11"/>
      <point x="290" y="-10" type="curve" smooth="yes"/>
      <point x="171" y="-9"/>
      <point x="83" y="70.5"/>
      <point x="47.5" y="173" type="curve"/>
      <point x="158.5" y="244" type="line"/>
      <point x="189.5" y="168"/>
      <point x="226.5" y="109"/>
      <point x="305" y="109" type="curve" smooth="yes"/>
      <point x="363.5" y="109"/>
      <point x="405.5" y="140"/>
      <point x="414" y="191" type="curve" smooth="yes"/>
      <point x="425" y="257"/>
      <point x="355" y="285.5"/>
      <point x="290" y="313" type="curve" smooth="yes"/>
      <point x="212" y="347"/>
      <point x="125.5" y="411"/>
      <point x="139.5" y="527" type="curve" smooth="yes"/>
      <point x="155.5" y="633"/>
      <point x="267.5" y="710"/>
      <point x="391.5" y="710" type="curve" smooth="yes"/>
      <point x="508.5" y="710"/>
      <point x="576" y="644"/>
      <point x="610" y="561" type="curve"/>
    </contour>
  </outline>
</glyph>
<glyph name="percent" format="2">
  <advance width="842"/>
  <unicode hex="0025"/>
  <outline>
    <contour>
      <point x="89" y="539.5" type="curve" smooth="yes"/>
      <point x="103" y="635"/>
      <point x="189" y="716"/>
      <point x="291" y="716" type="curve" smooth="yes"/>
      <point x="392" y="716"/>
      <point x="454" y="631.5"/>
      <point x="441" y="538.5" type="curve" smooth="yes"/>
      <point x="427" y="443"/>
      <point x="341" y="362"/>
      <point x="239" y="362" type="curve" smooth="yes"/>
      <point x="138" y="362"/>
      <point x="76" y="446.5"/>
    </contour>
    <contour>
      <point x="195" y="538.5" type="curve" smooth="yes"/>
      <point x="190" y="503.5"/>
      <point x="209.5" y="465.5"/>
      <point x="252" y="464.5" type="curve" smooth="yes"/>
      <point x="293" y="463.5"/>
      <point x="327.5" y="502"/>
      <point x="333.5" y="539.5" type="curve" smooth="yes"/>
      <point x="338.5" y="574.5"/>
      <point x="321" y="612.5"/>
      <point x="278.5" y="613.5" type="curve" smooth="yes"/>
      <point x="237.5" y="614.5"/>
      <point x="201" y="576"/>
    </contour>
    <contour>
      <point x="468.5" y="161.5" type="curve" smooth="yes"/>
      <point x="482.5" y="257"/>
      <point x="567.5" y="338"/>
      <point x="669.5" y="338" type="curve" smooth="yes"/>
      <point x="770.5" y="338"/>
      <point x="832" y="253.5"/>
      <point x="819" y="160.5" type="curve" smooth="yes"/>
      <point x="805" y="65"/>
      <point x="719.5" y="-16"/>
      <point x="617.5" y="-16" type="curve" smooth="yes"/>
      <point x="516.5" y="-16"/>
      <point x="455.5" y="68.5"/>
    </contour>
    <contour>
      <point x="575" y="160.5" type="curve" smooth="yes"/>
      <point x="570" y="125.5"/>
      <point x="589" y="88"/>
      <point x="629.5" y="87" type="curve" smooth="yes"/>
      <point x="670.5" y="86"/>
      <point x="706" y="121.5"/>
      <point x="713" y="161.5" type="curve" smooth="yes"/>
      <point x="718" y="196.5"/>
      <point x="699" y="235"/>
      <point x="658.5" y="236" type="curve" smooth="yes"/>
      <point x="617.5" y="237"/>
      <point x="582" y="200.5"/>
    </contour>
    <contour>
      <point x="695" y="699.5" type="line"/>
      <point x="830" y="699.5" type="line"/>
      <point x="213" y="0" type="line"/>
      <point x="80" y="0" type="line"/>
    </contour>
  </outline>
</glyph>
<glyph name="ampersand" format="2">
  <advance width="706"/>
  <unicode hex="0026"/>
  <outline>
    <contour>
      <point x="258.5" y="376" type="line" smooth="yes"/>
      <point x="222" y="426.5"/>
      <point x="177.5" y="479.5"/>
      <point x="186" y="548" type="curve" smooth="yes"/>
      <point x="199" y="643"/>
      <point x="294" y="714.5"/>
      <point x="406" y="714.5" type="curve" smooth="yes"/>
      <point x="513.5" y="714.5"/>
      <point x="583" y="638.5"/>
      <point x="571" y="549.5" type="curve" smooth="yes"/>
      <point x="558" y="459.5"/>
      <point x="477" y="407.5"/>
      <point x="383" y="352" type="curve" smooth="yes"/>
      <point x="310.5" y="310.5"/>
      <point x="199.5" y="284"/>
      <point x="185.5" y="196.5" type="curve" smooth="yes"/>
      <point x="176.5" y="140.5"/>
      <point x="217.5" y="102"/>
      <point x="280.5" y="100" type="curve" smooth="yes"/>
      <point x="411.5" y="95"/>
      <point x="531" y="224"/>
      <point x="619" y="333" type="curve"/>
      <point x="700" y="265.5" type="line"/>
      <point x="592.5" y="136.5"/>
      <point x="445.5" y="-14"/>
      <point x="255" y="-12" type="curve" smooth="yes"/>
      <point x="135" y="-11"/>
      <point x="33" y="65.5"/>
      <point x="49" y="186" type="curve" smooth="yes"/>
      <point x="67.5" y="332"/>
      <point x="223.5" y="376"/>
      <point x="315.5" y="419" type="curve" smooth="yes"/>
      <point x="379" y="450"/>
      <point x="442.5" y="489"/>
      <point x="450.5" y="540" type="curve" smooth="yes"/>
      <point x="455" y="575"/>
      <point x="434.5" y="607.5"/>
      <point x="392" y="608.5" type="curve" smooth="yes"/>
      <point x="348.5" y="609.5"/>
      <point x="316" y="578"/>
      <point x="310" y="540" type="curve" smooth="yes"/>
      <point x="302" y="495"/>
      <point x="339.5" y="454"/>
      <point x="375.5" y="408" type="curve" smooth="yes"/>
      <point x="672" y="0" type="line"/>
      <point x="530" y="0" type="line"/>
    </contour>
  </outline>
</glyph>
<glyph name="parenleft" format="2">
  <advance width="321"/>
  <unicode hex="0028"/>
  <outline>
    <contour>
      <point x="288" y="779" type="curve"/>
      <point x="407" y="779" type="line"/>
      <point x="319.5" y="628.5"/>
      <point x="256.5" y="463"/>
      <point x="228.5" y="290" type="curve" smooth="yes"/>
      <point x="203.5" y="126"/>
      <point x="210.5" y="-42.5"/>
      <point x="257" y="-200.5" type="curve"/>
      <point x="142" y="-200.5" type="line"/>
      <point x="87" y="-43.5"/>
      <point x="75" y="125"/>
      <point x="99" y="290" type="curve" smooth="yes"/>
      <point x="126" y="464"/>
      <point x="190" y="632"/>
    </contour>
  </outline>
</glyph>
<glyph name="parenright" format="2">
  <advance width="321"/>
  <unicode hex="0029"/>
  <outline>
    <contour>
      <point x="89" y="-199" type="curve"/>
      <point x="-29.5" y="-199" type="line"/>
      <point x="58" y="-48.5"/>
      <point x="120.5" y="117"/>
      <point x="148.5" y="290" type="curve" smooth="yes"/>
      <point x="173.5" y="454"/>
      <point x="166.5" y="622.5"/>
      <point x="120" y="780.5" type="curve"/>
      <point x="235" y="780.5" type="line"/>
      <point x="290" y="623.5"/>
      <point x="302.5" y="455"/>
      <point x="278.5" y="290" type="curve" smooth="yes"/>
      <point x="251.5" y="116"/>
      <point x="187" y="-52"/>
    </contour>
  </outline>
</glyph>
<glyph name="asterisk" format="2">
  <advance width="574"/>
  <unicode hex="002A"/>
  <outline>
    <contour>
      <point x="550" y="602" type="line"/>
      <point x="567" y="489" type="line"/>
      <point x="346.5" y="444" type="line"/>
      <point x="335.5" y="509" type="line"/>
    </contour>
    <contour>
      <point x="492" y="329" type="line"/>
      <point x="386.5" y="260" type="line"/>
      <point x="312" y="459" type="line"/>
      <point x="368" y="496" type="line"/>
    </contour>
    <contour>
      <point x="227" y="262" type="line"/>
      <point x="141.5" y="334" type="line"/>
      <point x="316" y="495.5" type="line"/>
      <point x="365" y="454.5" type="line"/>
    </contour>
    <contour>
      <point x="120" y="491" type="line"/>
      <point x="172" y="601" type="line"/>
      <point x="358.5" y="506.5" type="line"/>
      <point x="328.5" y="445" type="line"/>
    </contour>
    <contour>
      <point x="321" y="700" type="line"/>
      <point x="439" y="699.5" type="line"/>
      <point x="375" y="477" type="line"/>
      <point x="309" y="477" type="line"/>
    </contour>
  </outline>
</glyph>
<glyph name="plus" format="2">
  <advance width="636"/>
  <unicode hex="002B"/>
  <outline>
    <contour>
      <point x="69.5" y="202" type="line"/>
      <point x="91.5" y="328" type="line"/>
      <point x="605" y="328" type="line"/>
      <point x="583" y="202" type="line"/>
    </contour>
    <contour>
      <point x="314.5" y="528" type="line"/>
      <point x="449" y="528" type="line"/>
      <point x="358" y="2" type="line"/>
      <point x="225.5" y="2" type="line"/>
    </contour>
  </outline>
</glyph>
<glyph name="comma" format="2">
  <advance width="308"/>
  <unicode hex="002C"/>
  <outline>
    <contour>
      <point x="114" y="109" type="line"/>
      <point x="240" y="76" type="line"/>
      <point x="80" y="-171" type="line"/>
      <point x="-16" y="-147.5" type="line"/>
    </contour>
  </outline>
</glyph>
<glyph name="hyphen" format="2">
  <advance width="211"/>
  <unicode hex="002D"/>
  <outline>
    <contour>
      <point x="7.5" y="180" type="line"/>
      <point x="27.5" y="294" type="line"/>
      <point x="233" y="294" type="line"/>
      <point x="213" y="180" type="line"/>
    </contour>
  </outline>
</glyph>
<glyph name="period" format="2">
  <advance width="305"/>
  <unicode hex="002E"/>
  <outline>
    <contour>
      <point x="56.5" y="60" type="curve" smooth="yes"/>
      <point x="56.5" y="104"/>
      <point x="90.5" y="140.5"/>
      <point x="138.5" y="140.5" type="curve" smooth="yes"/>
      <point x="186.5" y="140.5"/>
      <point x="220.5" y="104"/>
      <point x="220.5" y="60" type="curve" smooth="yes"/>
      <point x="220.5" y="16"/>
      <point x="186.5" y="-21.5"/>
      <point x="138.5" y="-21.5" type="curve" smooth="yes"/>
      <point x="90.5" y="-21.5"/>
      <point x="56.5" y="16"/>
    </contour>
  </outline>
</glyph>
<glyph name="zero" format="2">
  <advance width="623"/>
  <unicode hex="0030"/>
  <outline>
    <contour>
      <point x="208" y="350" type="curve" smooth="yes"/>
      <point x="197" y="247"/>
      <point x="201.5" y="116.5"/>
      <point x="301" y="114.5" type="curve" smooth="yes"/>
      <point x="401" y="112.5"/>
      <point x="466" y="234"/>
      <point x="482" y="350" type="curve" smooth="yes"/>
      <point x="493" y="453"/>
      <point x="488.5" y="583.5"/>
      <point x="389" y="585.5" type="curve" smooth="yes"/>
      <point x="289" y="587.5"/>
      <point x="224" y="466"/>
    </contour>
    <contour>
      <point x="70" y="350" type="curve" smooth="yes"/>
      <point x="97" y="543.5"/>
      <point x="221.5" y="712"/>
      <point x="402.5" y="712" type="curve" smooth="yes"/>
      <point x="587.5" y="712"/>
      <point x="642.5" y="532"/>
      <point x="620" y="350" type="curve" smooth="yes"/>
      <point x="593" y="156"/>
      <point x="471.5" y="-12.5"/>
      <point x="288" y="-12" type="curve" smooth="yes"/>
      <point x="106" y="-11.5"/>
      <point x="47.5" y="169"/>
    </contour>
  </outline>
</glyph>
<glyph name="one" format="2">
  <advance width="476"/>
  <unicode hex="0031"/>
  <outline>
    <contour>
      <point x="128" y="516" type="line"/>
      <point x="152" y="647" type="line"/>
      <point x="464.5" y="713" type="line"/>
      <point x="341.5" y="0" type="line"/>
      <point x="203.5" y="0" type="line"/>
      <point x="299.5" y="559" type="line"/>
    </contour>
  </outline>
</glyph>
<glyph name="two" format="2">
  <advance width="610"/>
  <unicode hex="0032"/>
  <outline>
    <contour>
      <point x="0" y="0" type="line"/>
      <point x="358.5" y="332" type="line" smooth="yes"/>
      <point x="410" y="381"/>
      <point x="459" y="427"/>
      <point x="468" y="488" type="curve" smooth="yes"/>
      <point x="475" y="538"/>
      <point x="444.5" y="585.5"/>
      <point x="382.5" y="586.5" type="curve" smooth="yes"/>
      <point x="306.5" y="588.5"/>
      <point x="260" y="520.5"/>
      <point x="246" y="447" type="curve"/>
      <point x="106" y="447" type="line"/>
      <point x="130.5" y="591.5"/>
      <point x="233" y="713.5"/>
      <point x="398" y="713" type="curve" smooth="yes"/>
      <point x="542" y="713"/>
      <point x="631.5" y="607.5"/>
      <point x="614.5" y="496.5" type="curve" smooth="yes"/>
      <point x="603.5" y="419.5"/>
      <point x="552.5" y="354.5"/>
      <point x="491" y="303" type="curve" smooth="yes"/>
      <point x="290" y="133" type="line"/>
      <point x="571.5" y="132" type="line"/>
      <point x="551" y="0" type="line"/>
    </contour>
  </outline>
</glyph>
<glyph name="three" format="2">
  <advance width="580"/>
  <unicode hex="0033"/>
  <outline>
    <contour>
      <point x="296" y="341.5" type="curve"/>
      <point x="305" y="410" type="line"/>
      <point x="376" y="415"/>
      <point x="442" y="450.5"/>
      <point x="451" y="512" type="curve" smooth="yes"/>
      <point x="457" y="556.5"/>
      <point x="434" y="593"/>
      <point x="382.5" y="594" type="curve" smooth="yes"/>
      <point x="325.5" y="595"/>
      <point x="285" y="552"/>
      <point x="271.5" y="504" type="curve"/>
      <point x="139.5" y="505" type="line"/>
      <point x="161.5" y="623"/>
      <point x="258.5" y="712"/>
      <point x="393" y="712" type="curve" smooth="yes"/>
      <point x="520" y="712"/>
      <point x="608" y="630"/>
      <point x="592" y="520" type="curve" smooth="yes"/>
      <point x="573" y="394.5"/>
      <point x="435.5" y="344.5"/>
    </contour>
    <contour>
      <point x="282.5" y="-14" type="curve" smooth="yes"/>
      <point x="135.5" y="-14"/>
      <point x="54" y="87"/>
      <point x="64" y="211" type="curve"/>
      <point x="202.5" y="210.5" type="line"/>
      <point x="199.5" y="148.5"/>
      <point x="233.5" y="106.5"/>
      <point x="298" y="105.5" type="curve" smooth="yes"/>
      <point x="360" y="104.5"/>
      <point x="413.5" y="143.5"/>
      <point x="422.5" y="204.5" type="curve" smooth="yes"/>
      <point x="435.5" y="277.5"/>
      <point x="371" y="308.5"/>
      <point x="291" y="312" type="curve"/>
      <point x="302" y="388" type="line"/>
      <point x="446" y="385"/>
      <point x="581" y="333"/>
      <point x="561" y="188.5" type="curve" smooth="yes"/>
      <point x="543.5" y="64"/>
      <point x="424.5" y="-14"/>
    </contour>
  </outline>
</glyph>
<glyph name="four" format="2">
  <advance width="643"/>
  <unicode hex="0034"/>
  <outline>
    <contour>
      <point x="8.5" y="130" type="line"/>
      <point x="493" y="699" type="line"/>
      <point x="593.5" y="700" type="line"/>
      <point x="473.5" y="0" type="line"/>
      <point x="327" y="0" type="line"/>
      <point x="357" y="176" type="line"/>
      <point x="372" y="186.5" type="line"/>
      <point x="419.5" y="465" type="line"/>
      <point x="225" y="237" type="line"/>
      <point x="460.5" y="237" type="line"/>
      <point x="480" y="252" type="line"/>
      <point x="624" y="252" type="line"/>
      <point x="602.5" y="129" type="line"/>
    </contour>
  </outline>
</glyph>
<glyph name="five" format="2">
  <advance width="601"/>
  <unicode hex="0035"/>
  <outline>
    <contour>
      <point x="582" y="225.5" type="curve" smooth="yes"/>
      <point x="562" y="74"/>
      <point x="425.5" y="-12"/>
      <point x="286" y="-12" type="curve" smooth="yes"/>
      <point x="172.5" y="-12"/>
      <point x="93" y="35"/>
      <point x="34.5" y="97" type="curve"/>
      <point x="115" y="207" type="line"/>
      <point x="155" y="157"/>
      <point x="210.5" y="120.5"/>
      <point x="272.5" y="120" type="curve" smooth="yes"/>
      <point x="354" y="120"/>
      <point x="420.5" y="164"/>
      <point x="431.5" y="238.5" type="curve" smooth="yes"/>
      <point x="442" y="309.5"/>
      <point x="385.5" y="353"/>
      <point x="315.5" y="354.5" type="curve" smooth="yes"/>
      <point x="251.5" y="356.5"/>
      <point x="187" y="339"/>
      <point x="119.5" y="307" type="curve"/>
      <point x="271" y="700" type="line"/>
      <point x="645.5" y="700" type="line"/>
      <point x="625.5" y="574" type="line"/>
      <point x="359" y="575" type="line"/>
      <point x="292" y="432" type="line"/>
      <point x="328" y="448"/>
      <point x="367" y="456.5"/>
      <point x="407.5" y="456.5" type="curve" smooth="yes"/>
      <point x="527.5" y="455.5"/>
      <point x="597" y="350.5"/>
    </contour>
  </outline>
</glyph>
<glyph name="six" format="2">
  <advance width="621"/>
  <unicode hex="0036"/>
  <outline>
    <contour>
      <point x="205.5" y="240.5" type="curve" smooth="yes"/>
      <point x="195" y="171.5"/>
      <point x="234.5" y="111"/>
      <point x="307.5" y="110" type="curve" smooth="yes"/>
      <point x="381.5" y="109"/>
      <point x="446" y="168.5"/>
      <point x="457" y="241" type="curve" smooth="yes"/>
      <point x="467.5" y="310"/>
      <point x="428" y="372.5"/>
      <point x="355" y="373.5" type="curve" smooth="yes"/>
      <point x="281" y="374.5"/>
      <point x="216.5" y="313.5"/>
    </contour>
    <contour>
      <point x="410" y="697.5" type="line"/>
      <point x="593" y="697.5" type="line"/>
      <point x="334" y="435" type="line"/>
      <point x="304.5" y="426.5" type="line"/>
      <point x="338.5" y="455"/>
      <point x="373" y="467.5"/>
      <point x="418" y="467.5" type="curve" smooth="yes"/>
      <point x="533" y="466.5"/>
      <point x="609.5" y="362"/>
      <point x="595.5" y="241" type="curve" smooth="yes"/>
      <point x="576" y="87"/>
      <point x="446" y="-14"/>
      <point x="296" y="-14" type="curve" smooth="yes"/>
      <point x="148.5" y="-14"/>
      <point x="48" y="90.5"/>
      <point x="67.5" y="241" type="curve" smooth="yes"/>
      <point x="77" y="311"/>
      <point x="116" y="371"/>
      <point x="161" y="421" type="curve" smooth="yes"/>
    </contour>
  </outline>
</glyph>
<glyph name="seven" format="2">
  <advance width="561"/>
  <unicode hex="0037"/>
  <outline>
    <contour>
      <point x="97" y="566" type="line"/>
      <point x="119" y="700" type="line"/>
      <point x="653" y="699.5" type="line"/>
      <point x="217.5" y="0" type="line"/>
      <point x="62" y="0" type="line"/>
      <point x="421.5" y="565.5" type="line"/>
    </contour>
  </outline>
</glyph>
<glyph name="eight" format="2">
  <advance width="584"/>
  <unicode hex="0038"/>
  <outline>
    <contour>
      <point x="138" y="531.5" type="curve" smooth="yes"/>
      <point x="155" y="642.5"/>
      <point x="265" y="714"/>
      <point x="383" y="714" type="curve" smooth="yes"/>
      <point x="497" y="714"/>
      <point x="590" y="641"/>
      <point x="574" y="530.5" type="curve" smooth="yes"/>
      <point x="557.5" y="413.5"/>
      <point x="442.5" y="346.5"/>
      <point x="329" y="346.5" type="curve" smooth="yes"/>
      <point x="218.5" y="346.5"/>
      <point x="121.5" y="415.5"/>
    </contour>
    <contour>
      <point x="269" y="516.5" type="curve" smooth="yes"/>
      <point x="262" y="471"/>
      <point x="288" y="429"/>
      <point x="335.5" y="428" type="curve" smooth="yes"/>
      <point x="386.5" y="427"/>
      <point x="431" y="469.5"/>
      <point x="439" y="517.5" type="curve" smooth="yes"/>
      <point x="446" y="563"/>
      <point x="422" y="605"/>
      <point x="372" y="606" type="curve" smooth="yes"/>
      <point x="319" y="607"/>
      <point x="277" y="564.5"/>
    </contour>
    <contour>
      <point x="55.5" y="190.5" type="curve" smooth="yes"/>
      <point x="74" y="323.5"/>
      <point x="208" y="394"/>
      <point x="328.5" y="394" type="curve" smooth="yes"/>
      <point x="444" y="394"/>
      <point x="558.5" y="321.5"/>
      <point x="540" y="189.5" type="curve" smooth="yes"/>
      <point x="521.5" y="67.5"/>
      <point x="396.5" y="-14"/>
      <point x="267.5" y="-14" type="curve" smooth="yes"/>
      <point x="143.5" y="-14"/>
      <point x="37.5" y="69.5"/>
    </contour>
    <contour>
      <point x="198.5" y="210.5" type="curve" smooth="yes"/>
      <point x="189.5" y="152.5"/>
      <point x="223.5" y="105.5"/>
      <point x="280" y="104.5" type="curve" smooth="yes"/>
      <point x="340" y="103.5"/>
      <point x="395" y="150.5"/>
      <point x="405" y="211.5" type="curve" smooth="yes"/>
      <point x="413" y="263.5"/>
      <point x="378.5" y="314"/>
      <point x="323" y="315" type="curve" smooth="yes"/>
      <point x="264" y="316"/>
      <point x="208.5" y="265.5"/>
    </contour>
  </outline>
</glyph>
<glyph name="nine" format="2">
  <advance width="621"/>
  <unicode hex="0039"/>
  <outline>
    <contour>
      <point x="490" y="459.5" type="curve" smooth="yes"/>
      <point x="500.5" y="528.5"/>
      <point x="461.5" y="589"/>
      <point x="388.5" y="590" type="curve" smooth="yes"/>
      <point x="314.5" y="591"/>
      <point x="250.5" y="531.5"/>
      <point x="239.5" y="459" type="curve" smooth="yes"/>
      <point x="229" y="390"/>
      <point x="268.5" y="327.5"/>
      <point x="341.5" y="326.5" type="curve" smooth="yes"/>
      <point x="415.5" y="325.5"/>
      <point x="479" y="386.5"/>
    </contour>
    <contour>
      <point x="287" y="2.5" type="line"/>
      <point x="103" y="2.5" type="line"/>
      <point x="362.5" y="265" type="line"/>
      <point x="392" y="273.5" type="line"/>
      <point x="358" y="245"/>
      <point x="323" y="232.5"/>
      <point x="278" y="232.5" type="curve" smooth="yes"/>
      <point x="163" y="233.5"/>
      <point x="87" y="338"/>
      <point x="101" y="459" type="curve" smooth="yes"/>
      <point x="120.5" y="613"/>
      <point x="250.5" y="714"/>
      <point x="400.5" y="714" type="curve" smooth="yes"/>
      <point x="548" y="714"/>
      <point x="648.5" y="609.5"/>
      <point x="629" y="459" type="curve" smooth="yes"/>
      <point x="619.5" y="389"/>
      <point x="579.5" y="329"/>
      <point x="534.5" y="279" type="curve" smooth="yes"/>
    </contour>
  </outline>
</glyph>
<glyph name="colon" format="2">
  <advance width="305"/>
  <unicode hex="003A"/>
  <outline>
    <contour>
      <point x="54" y="60" type="curve" smooth="yes"/>
      <point x="54" y="104"/>
      <point x="88" y="140.5"/>
      <point x="136" y="140.5" type="curve" smooth="yes"/>
      <point x="184" y="140.5"/>
      <point x="218" y="104"/>
      <point x="218" y="60" type="curve" smooth="yes"/>
      <point x="218" y="16"/>
      <point x="184" y="-21.5"/>
      <point x="136" y="-21.5" type="curve" smooth="yes"/>
      <point x="88" y="-21.5"/>
      <point x="54" y="16"/>
    </contour>
    <contour>
      <point x="118" y="435" type="curve" smooth="yes"/>
      <point x="118" y="479"/>
      <point x="152" y="516"/>
      <point x="200" y="516" type="curve" smooth="yes"/>
      <point x="248" y="516"/>
      <point x="282" y="479"/>
      <point x="282" y="435" type="curve" smooth="yes"/>
      <point x="282" y="391"/>
      <point x="248" y="354"/>
      <point x="200" y="354" type="curve" smooth="yes"/>
      <point x="152" y="354"/>
      <point x="118" y="391"/>
    </contour>
  </outline>
</glyph>
<glyph name="semicolon" format="2">
  <advance width="362"/>
  <unicode hex="003B"/>
  <outline>
    <contour>
      <point x="161.5" y="430.5" type="curve" smooth="yes"/>
      <point x="161.5" y="474.5"/>
      <point x="195.5" y="511.5"/>
      <point x="243.5" y="511.5" type="curve" smooth="yes"/>
      <point x="291.5" y="511.5"/>
      <point x="326" y="474.5"/>
      <point x="326" y="430.5" type="curve" smooth="yes"/>
      <point x="326" y="386.5"/>
      <point x="291.5" y="350"/>
      <point x="243.5" y="350" type="curve" smooth="yes"/>
      <point x="195.5" y="350"/>
      <point x="161.5" y="386.5"/>
    </contour>
    <contour>
      <point x="129" y="109" type="line"/>
      <point x="254.5" y="76" type="line"/>
      <point x="94.5" y="-171" type="line"/>
      <point x="0" y="-147.5" type="line"/>
    </contour>
  </outline>
</glyph>
<glyph name="less" format="2">
  <advance width="621"/>
  <unicode hex="003C"/>
  <outline>
    <contour>
      <point x="266.5" y="262" type="line"/>
      <point x="554.5" y="128" type="line"/>
      <point x="533" y="5" type="line"/>
      <point x="72.5" y="221" type="line"/>
      <point x="87.5" y="305" type="line"/>
      <point x="622.5" y="522" type="line"/>
      <point x="598.5" y="388.5" type="line"/>
    </contour>
  </outline>
</glyph>
<glyph name="equal" format="2">
  <advance width="603"/>
  <unicode hex="003D"/>
  <outline>
    <contour>
      <point x="46" y="101" type="line"/>
      <point x="65.5" y="215" type="line"/>
      <point x="559" y="215" type="line"/>
      <point x="539" y="101" type="line"/>
    </contour>
    <contour>
      <point x="78" y="290" type="line"/>
      <point x="98" y="404" type="line"/>
      <point x="591" y="404" type="line"/>
      <point x="572" y="290" type="line"/>
    </contour>
  </outline>
</glyph>
<glyph name="greater" format="2">
  <advance width="621"/>
  <unicode hex="003E"/>
  <outline>
    <contour>
      <point x="390" y="262" type="line"/>
      <point x="102" y="396" type="line"/>
      <point x="123.5" y="519" type="line"/>
      <point x="583.5" y="302" type="line"/>
      <point x="569.5" y="219" type="line"/>
      <point x="34" y="2" type="line"/>
      <point x="57.5" y="135" type="line"/>
    </contour>
  </outline>
</glyph>
<glyph name="question" format="2">
  <advance width="587"/>
  <unicode hex="003F"/>
  <outline>
    <contour>
      <point x="464.5" y="500" type="curve" smooth="yes"/>
      <point x="474.5" y="562"/>
      <point x="435.5" y="602.5"/>
      <point x="367" y="603.5" type="curve" smooth="yes"/>
      <point x="302" y="604.5"/>
      <point x="244.5" y="567"/>
      <point x="203" y="519" type="curve"/>
      <point x="122.5" y="592" type="line"/>
      <point x="193.5" y="664.5"/>
      <point x="275.5" y="717"/>
      <point x="388" y="716" type="curve" smooth="yes"/>
      <point x="513" y="715"/>
      <point x="611.5" y="625.5"/>
      <point x="593" y="499.5" type="curve" smooth="yes"/>
      <point x="574" y="379.5"/>
      <point x="464.5" y="306"/>
      <point x="352.5" y="286" type="curve"/>
      <point x="329.5" y="192" type="line"/>
      <point x="226" y="192" type="line"/>
      <point x="235.5" y="369" type="line"/>
      <point x="264" y="369" type="line"/>
      <point x="365" y="371"/>
      <point x="449.5" y="428.5"/>
    </contour>
    <contour>
      <point x="171" y="54" type="curve" smooth="yes"/>
      <point x="171" y="94.5"/>
      <point x="206.5" y="127.5"/>
      <point x="252.5" y="127.5" type="curve" smooth="yes"/>
      <point x="298.5" y="127.5"/>
      <point x="333.5" y="94"/>
      <point x="333.5" y="54" type="curve" smooth="yes"/>
      <point x="333.5" y="13"/>
      <point x="298.5" y="-21"/>
      <point x="252.5" y="-21" type="curve" smooth="yes"/>
      <point x="206.5" y="-21"/>
      <point x="171" y="13"/>
    </contour>
  </outline>
</glyph>
<glyph name="at" format="2">
  <advance width="747"/>
  <unicode hex="0040"/>
  <outline>
    <contour>
      <point x="319.5" y="320" type="curve" smooth="yes"/>
      <point x="314.5" y="283"/>
      <point x="323" y="249"/>
      <point x="358.5" y="246" type="curve" smooth="yes"/>
      <point x="405" y="241"/>
      <point x="459" y="304"/>
      <point x="466" y="366" type="curve" smooth="yes"/>
      <point x="470.5" y="404.5"/>
      <point x="459.5" y="437.5"/>
      <point x="424.5" y="440" type="curve" smooth="yes"/>
      <point x="375.5" y="444"/>
      <point x="326.5" y="375"/>
    </contour>
    <contour>
      <point x="214" y="314.5" type="curve" smooth="yes"/>
      <point x="227.5" y="430.5"/>
      <point x="318" y="532"/>
      <point x="413" y="530" type="curve" smooth="yes"/>
      <point x="493" y="528"/>
      <point x="519.5" y="443"/>
      <point x="510.5" y="369.5" type="curve" smooth="yes"/>
      <point x="497" y="253.5"/>
      <point x="418.5" y="156"/>
      <point x="321" y="156.5" type="curve" smooth="yes"/>
      <point x="237.5" y="157"/>
      <point x="204" y="230"/>
    </contour>
    <contour>
      <point x="49.5" y="320" type="curve" smooth="yes"/>
      <point x="82.5" y="535.5"/>
      <point x="266" y="719"/>
      <point x="493.5" y="718" type="curve" smooth="yes"/>
      <point x="693.5" y="717"/>
      <point x="791" y="552"/>
      <point x="765" y="390" type="curve" smooth="yes"/>
      <point x="748" y="248"/>
      <point x="651" y="142.5"/>
      <point x="543" y="146" type="curve" smooth="yes"/>
      <point x="473.5" y="148"/>
      <point x="447.5" y="204.5"/>
      <point x="457.5" y="266.5" type="curve"/>
      <point x="450.5" y="288" type="line"/>
      <point x="515.5" y="520" type="line"/>
      <point x="617.5" y="520" type="line"/>
      <point x="550" y="302" type="line" smooth="yes"/>
      <point x="547.5" y="294"/>
      <point x="544.5" y="285"/>
      <point x="543.5" y="276" type="curve" smooth="yes"/>
      <point x="541.5" y="257"/>
      <point x="542" y="237"/>
      <point x="563" y="234" type="curve" smooth="yes"/>
      <point x="604" y="224"/>
      <point x="660.5" y="310"/>
      <point x="667.5" y="390" type="curve" smooth="yes"/>
      <point x="688" y="510.5"/>
      <point x="634" y="628"/>
      <point x="487" y="629" type="curve" smooth="yes"/>
      <point x="308" y="630"/>
      <point x="175" y="487.5"/>
      <point x="147" y="320" type="curve" smooth="yes"/>
      <point x="124.5" y="180.5"/>
      <point x="188" y="71"/>
      <point x="343" y="69" type="curve" smooth="yes"/>
      <point x="412.5" y="68"/>
      <point x="476" y="84.5"/>
      <point x="537.5" y="114" type="curve"/>
      <point x="562" y="33" type="line"/>
      <point x="495" y="-0.5"/>
      <point x="421" y="-21"/>
      <point x="327.5" y="-20.5" type="curve" smooth="yes"/>
      <point x="118" y="-19"/>
      <point x="21.5" y="133.5"/>
    </contour>
  </outline>
</glyph>
<glyph name="B" format="2">
  <advance width="613"/>
  <unicode hex="0042"/>
  <outline>
    <contour>
      <point x="211" y="354.5" type="line"/>
      <point x="222" y="420" type="line"/>
      <point x="329.5" y="420" type="line" smooth="yes"/>
      <point x="386.5" y="420"/>
      <point x="435.5" y="451.5"/>
      <point x="445" y="504" type="curve" smooth="yes"/>
      <point x="454" y="554.5"/>
      <point x="419" y="585"/>
      <point x="364.5" y="585.5" type="curve" smooth="yes"/>
      <point x="288" y="586" type="line"/>
      <point x="206" y="114" type="line"/>
      <point x="291" y="114" type="line" smooth="yes"/>
      <point x="360" y="115"/>
      <point x="423" y="148.5"/>
      <point x="435" y="218" type="curve" smooth="yes"/>
      <point x="446" y="283"/>
      <point x="397.5" y="314.5"/>
      <point x="332.5" y="315.5" type="curve" smooth="yes"/>
      <point x="204" y="316" type="line"/>
      <point x="218" y="394" type="line"/>
      <point x="351" y="394" type="line" smooth="yes"/>
      <point x="476" y="393"/>
      <point x="596" y="333.5"/>
      <point x="577" y="199" type="curve" smooth="yes"/>
      <point x="557" y="61.5"/>
      <point x="435.5" y="0"/>
      <point x="292" y="0" type="curve" smooth="yes"/>
      <point x="45" y="0" type="line"/>
      <point x="165" y="700" type="line"/>
      <point x="389" y="700" type="line" smooth="yes"/>
      <point x="510" y="700"/>
      <point x="611.5" y="642"/>
      <point x="593.5" y="522.5" type="curve" smooth="yes"/>
      <point x="575.5" y="410.5"/>
      <point x="462.5" y="355.5"/>
      <point x="338" y="354.5" type="curve" smooth="yes"/>
    </contour>
  </outline>
</glyph>
<glyph name="D" format="2">
  <advance width="695"/>
  <unicode hex="0044"/>
  <outline>
    <contour>
      <point x="164.5" y="700" type="line"/>
      <point x="311" y="700" type="line"/>
      <point x="191" y="0" type="line"/>
      <point x="46" y="0" type="line"/>
    </contour>
    <contour>
      <point x="282" y="0" type="curve" smooth="yes"/>
      <point x="134.5" y="0" type="line"/>
      <point x="157.5" y="131" type="line"/>
      <point x="292" y="131" type="line" smooth="yes"/>
      <point x="420.5" y="131"/>
      <point x="526.5" y="211"/>
      <point x="549.5" y="350" type="curve" smooth="yes"/>
      <point x="570.5" y="483.5"/>
      <point x="500.5" y="569.5"/>
      <point x="375" y="569.5" type="curve" smooth="yes"/>
      <point x="232" y="569.5" type="line"/>
      <point x="255" y="700" type="line"/>
      <point x="393" y="700" type="line" smooth="yes"/>
      <point x="604" y="700"/>
      <point x="725.5" y="550"/>
      <point x="695.5" y="350" type="curve" smooth="yes"/>
      <point x="663.5" y="143.5"/>
      <point x="498" y="0"/>
    </contour>
  </outline>
</glyph>
<glyph name="F" format="2">
  <advance width="521"/>
  <unicode hex="0046"/>
  <outline>
    <contour>
      <point x="233.5" y="574" type="line"/>
      <point x="255" y="700" type="line"/>
      <point x="561.5" y="700" type="line"/>
      <point x="540" y="574" type="line"/>
    </contour>
    <contour>
      <point x="186" y="298.5" type="line"/>
      <point x="207" y="418" type="line"/>
      <point x="504" y="418" type="line"/>
      <point x="483" y="298" type="line"/>
    </contour>
    <contour>
      <point x="164.5" y="700" type="line"/>
      <point x="303" y="700" type="line"/>
      <point x="183" y="0" type="line"/>
      <point x="46" y="0" type="line"/>
    </contour>
  </outline>
</glyph>
<glyph name="H" format="2">
  <advance width="741"/>
  <unicode hex="0048"/>
  <outline>
    <contour>
      <point x="143.5" y="307.5" type="line"/>
      <point x="165.5" y="438" type="line"/>
      <point x="668" y="438" type="line"/>
      <point x="646" y="307.5" type="line"/>
    </contour>
    <contour>
      <point x="620.5" y="700" type="line"/>
      <point x="764" y="700" type="line"/>
      <point x="643" y="0" type="line"/>
      <point x="502" y="0" type="line"/>
    </contour>
    <contour>
      <point x="164.5" y="700" type="line"/>
      <point x="307.5" y="700" type="line"/>
      <point x="187" y="0" type="line"/>
      <point x="46" y="0" type="line"/>
    </contour>
  </outline>
</glyph>
<glyph name="I" format="2">
  <advance width="288"/>
  <unicode hex="0049"/>
  <outline>
    <contour>
      <point x="164.5" y="700" type="line"/>
      <point x="309.5" y="700" type="line"/>
      <point x="189" y="0" type="line"/>
      <point x="46" y="0" type="line"/>
    </contour>
  </outline>
</glyph>
<glyph name="J" format="2">
  <advance width="293"/>
  <unicode hex="004A"/>
  <outline>
    <contour>
      <point x="-112" y="-76" type="line"/>
      <point x="-94" y="-95"/>
      <point x="-69.5" y="-110.5"/>
      <point x="-40" y="-109.5" type="curve" smooth="yes"/>
      <point x="-2.5" y="-108.5"/>
      <point x="33.5" y="-76.5"/>
      <point x="40.5" y="-26" type="curve" smooth="yes"/>
      <point x="165" y="700" type="line"/>
      <point x="315" y="700" type="line"/>
      <point x="186.5" y="-56.5" type="line" smooth="yes"/>
      <point x="167.5" y="-173"/>
      <point x="72" y="-234"/>
      <point x="-43.5" y="-233" type="curve" smooth="yes"/>
      <point x="-107.5" y="-233"/>
      <point x="-163.5" y="-206"/>
      <point x="-202" y="-177" type="curve"/>
    </contour>
  </outline>
</glyph>
<glyph name="K" format="2">
  <advance width="639"/>
  <unicode hex="004B"/>
  <outline>
    <contour>
      <point x="164.5" y="700" type="line"/>
      <point x="311.5" y="700" type="line"/>
      <point x="191" y="0" type="line"/>
      <point x="46" y="0" type="line"/>
    </contour>
    <contour>
      <point x="547.5" y="699.5" type="line"/>
      <point x="721" y="699.5" type="line"/>
      <point x="379" y="369" type="line"/>
      <point x="610" y="0" type="line"/>
      <point x="444" y="0" type="line"/>
      <point x="212.5" y="371.5" type="line"/>
    </contour>
  </outline>
</glyph>
<glyph name="L" format="2">
  <advance width="489"/>
  <unicode hex="004C"/>
  <outline>
    <contour>
      <point x="165" y="700" type="line"/>
      <point x="307.5" y="700" type="line"/>
      <point x="209" y="126" type="line"/>
      <point x="480" y="126" type="line"/>
      <point x="458" y="0" type="line"/>
      <point x="45" y="0" type="line"/>
    </contour>
  </outline>
</glyph>
<glyph name="M" format="2">
  <advance width="840"/>
  <unicode hex="004D"/>
  <outline>
    <contour>
      <point x="266.5" y="390.5" type="line"/>
      <point x="155" y="0" type="line"/>
      <point x="5" y="0" type="line"/>
      <point x="233" y="735.5" type="line"/>
      <point x="440" y="286" type="line"/>
      <point x="805.5" y="739.5" type="line"/>
      <point x="780" y="0" type="line"/>
      <point x="632.5" y="0" type="line"/>
      <point x="655.5" y="385.5" type="line"/>
      <point x="406" y="63.5" type="line"/>
    </contour>
  </outline>
</glyph>
<glyph name="N" format="2">
  <advance width="763"/>
  <unicode hex="004E"/>
  <outline>
    <contour>
      <point x="647.5" y="700" type="line"/>
      <point x="785" y="700" type="line"/>
      <point x="659.5" y="-33.5" type="line"/>
      <point x="258" y="433" type="line"/>
      <point x="183" y="0" type="line"/>
      <point x="45" y="0" type="line"/>
      <point x="170" y="733.5" type="line"/>
      <point x="572.5" y="267" type="line"/>
    </contour>
  </outline>
</glyph>
<glyph name="P" format="2">
  <advance width="582"/>
  <unicode hex="0050"/>
  <outline>
    <contour>
      <point x="164.5" y="700" type="line"/>
      <point x="307.5" y="700" type="line"/>
      <point x="187" y="0" type="line"/>
      <point x="46" y="0" type="line"/>
    </contour>
    <contour>
      <point x="230" y="578" type="line"/>
      <point x="251" y="700" type="line"/>
      <point x="382" y="700" type="line"/>
      <point x="530.5" y="699"/>
      <point x="619.5" y="613"/>
      <point x="603" y="476" type="curve" smooth="yes"/>
      <point x="586" y="336.5"/>
      <point x="467.5" y="255"/>
      <point x="314.5" y="254" type="curve"/>
      <point x="173.5" y="254" type="line"/>
      <point x="195.5" y="376" type="line"/>
      <point x="326.5" y="376" type="line"/>
      <point x="396" y="377"/>
      <point x="454" y="411.5"/>
      <point x="466" y="477" type="curve" smooth="yes"/>
      <point x="477" y="540"/>
      <point x="435.5" y="577.5"/>
      <point x="369" y="578" type="curve" smooth="yes"/>
    </contour>
  </outline>
</glyph>
<glyph name="Q" format="2">
  <advance width="816"/>
  <unicode hex="0051"/>
  <outline>
    <contour>
      <point x="216" y="350" type="curve" smooth="yes"/>
      <point x="197" y="226"/>
      <point x="261.5" y="113"/>
      <point x="392" y="112" type="curve" smooth="yes"/>
      <point x="522" y="111"/>
      <point x="625.5" y="211"/>
      <point x="647.5" y="336" type="curve" smooth="yes"/>
      <point x="667" y="456"/>
      <point x="609.5" y="578.5"/>
      <point x="472" y="579.5" type="curve" smooth="yes"/>
      <point x="341.5" y="580.5"/>
      <point x="237.5" y="475.5"/>
    </contour>
    <contour>
      <point x="66" y="350" type="curve" smooth="yes"/>
      <point x="97" y="554"/>
      <point x="276.5" y="714.5"/>
      <point x="486.5" y="714" type="curve" smooth="yes"/>
      <point x="694.5" y="713.5"/>
      <point x="815.5" y="546"/>
      <point x="787" y="350" type="curve" smooth="yes"/>
      <point x="756" y="146"/>
      <point x="583.5" y="-18.5"/>
      <point x="370" y="-18" type="curve" smooth="yes"/>
      <point x="159.5" y="-17.5"/>
      <point x="37.5" y="153.5"/>
    </contour>
    <contour>
      <point x="378.5" y="300" type="line"/>
      <point x="525.5" y="300" type="line"/>
      <point x="790" y="-8" type="line"/>
      <point x="639" y="-8" type="line"/>
    </contour>
  </outline>
</glyph>
<glyph name="R" format="2">
  <advance width="601"/>
  <unicode hex="0052"/>
  <outline>
    <contour>
      <point x="258" y="326" type="line"/>
      <point x="403.5" y="326" type="line"/>
      <point x="569" y="0" type="line"/>
      <point x="406.5" y="0" type="line"/>
    </contour>
    <contour>
      <point x="164.5" y="700" type="line"/>
      <point x="307.5" y="700" type="line"/>
      <point x="187" y="0" type="line"/>
      <point x="46" y="0" type="line"/>
    </contour>
    <contour>
      <point x="230" y="576" type="line"/>
      <point x="251" y="700" type="line"/>
      <point x="391" y="700" type="line" smooth="yes"/>
      <point x="539" y="700"/>
      <point x="630.5" y="609.5"/>
      <point x="612.5" y="476" type="curve" smooth="yes"/>
      <point x="593.5" y="340"/>
      <point x="475.5" y="254"/>
      <point x="323" y="254" type="curve" smooth="yes"/>
      <point x="173.5" y="254" type="line"/>
      <point x="194" y="368" type="line"/>
      <point x="325.5" y="368" type="line" smooth="yes"/>
      <point x="395.5" y="368"/>
      <point x="453.5" y="407"/>
      <point x="465.5" y="472.5" type="curve" smooth="yes"/>
      <point x="476.5" y="535.5"/>
      <point x="436" y="576"/>
      <point x="369" y="576" type="curve" smooth="yes"/>
    </contour>
  </outline>
</glyph>
<glyph name="S" format="2">
  <advance width="583"/>
  <unicode hex="0053"/>
  <outline>
    <contour>
      <point x="141.5" y="236" type="line"/>
      <point x="175.5" y="161"/>
      <point x="220" y="107.5"/>
      <point x="295.5" y="107.5" type="curve" smooth="yes"/>
      <point x="360.5" y="107.5"/>
      <point x="405" y="150"/>
      <point x="408" y="200" type="curve" smooth="yes"/>
      <point x="412" y="260"/>
      <point x="357.5" y="281"/>
      <point x="287" y="312" type="curve" smooth="yes"/>
      <point x="217.5" y="343"/>
      <point x="125.5" y="401"/>
      <point x="132.5" y="515" type="curve" smooth="yes"/>
      <point x="141.5" y="633"/>
      <point x="249" y="714"/>
      <point x="383" y="714" type="curve" smooth="yes"/>
      <point x="504.5" y="714"/>
      <point x="577" y="643"/>
      <point x="609.5" y="562" type="curve"/>
      <point x="494" y="501" type="line"/>
      <point x="470.5" y="548"/>
      <point x="436.5" y="590.5"/>
      <point x="370.5" y="590.5" type="curve" smooth="yes"/>
      <point x="315.5" y="590.5"/>
      <point x="280" y="560"/>
      <point x="277" y="519" type="curve" smooth="yes"/>
      <point x="272" y="466"/>
      <point x="337.5" y="436"/>
      <point x="410" y="408" type="curve" smooth="yes"/>
      <point x="493.5" y="374"/>
      <point x="563" y="313.5"/>
      <point x="557" y="206" type="curve" smooth="yes"/>
      <point x="547" y="72"/>
      <point x="422.5" y="-18"/>
      <point x="287.5" y="-18" type="curve" smooth="yes"/>
      <point x="163.5" y="-18"/>
      <point x="69.5" y="61"/>
      <point x="33" y="163" type="curve"/>
    </contour>
  </outline>
</glyph>
<glyph name="T" format="2">
  <advance width="516"/>
  <unicode hex="0054"/>
  <outline>
    <contour>
      <point x="74" y="570" type="line"/>
      <point x="97" y="700" type="line"/>
      <point x="605.5" y="700" type="line"/>
      <point x="582.5" y="570" type="line"/>
      <point x="400" y="570" type="line"/>
      <point x="302" y="0" type="line"/>
      <point x="160" y="0" type="line"/>
      <point x="257.5" y="570" type="line"/>
    </contour>
  </outline>
</glyph>
<glyph name="U" format="2">
  <advance width="658"/>
  <unicode hex="0055"/>
  <outline>
    <contour>
      <point x="160.5" y="700" type="line"/>
      <point x="302" y="700" type="line"/>
      <point x="221.5" y="238" type="line" smooth="yes"/>
      <point x="212.5" y="169"/>
      <point x="237.5" y="108.5"/>
      <point x="316.5" y="107.5" type="curve" smooth="yes"/>
      <point x="402.5" y="106.5"/>
      <point x="449.5" y="165.5"/>
      <point x="462" y="238.5" type="curve"/>
      <point x="542" y="700" type="line"/>
      <point x="684" y="700" type="line"/>
      <point x="604" y="230" type="line" smooth="yes"/>
      <point x="579" y="76.5"/>
      <point x="465.5" y="-23"/>
      <point x="302.5" y="-23" type="curve" smooth="yes"/>
      <point x="151.5" y="-23"/>
      <point x="59" y="79.5"/>
      <point x="80.5" y="230" type="curve"/>
    </contour>
  </outline>
</glyph>
<glyph name="V" format="2">
  <advance width="690"/>
  <unicode hex="0056"/>
  <outline>
    <contour>
      <point x="364.5" y="247.5" type="line"/>
      <point x="617" y="699.5" type="line"/>
      <point x="785" y="699.5" type="line"/>
      <point x="323" y="-44" type="line"/>
      <point x="92.5" y="700" type="line"/>
      <point x="253" y="700" type="line"/>
    </contour>
  </outline>
</glyph>
<glyph name="W" format="2">
  <advance width="1011"/>
  <unicode hex="0057"/>
  <outline>
    <contour>
      <point x="718.5" y="261.5" type="line"/>
      <point x="931" y="700" type="line"/>
      <point x="1099" y="699.5" type="line"/>
      <point x="698" y="-41" type="line"/>
      <point x="554.5" y="416" type="line"/>
      <point x="268" y="-41.5" type="line"/>
      <point x="97" y="700" type="line"/>
      <point x="260.5" y="700" type="line"/>
      <point x="335.5" y="263" type="line"/>
      <point x="601.5" y="737.5" type="line"/>
    </contour>
  </outline>
</glyph>
<glyph name="X" format="2">
  <advance width="627"/>
  <unicode hex="0058"/>
  <outline>
    <contour>
      <point x="525" y="699.5" type="line"/>
      <point x="702" y="699.5" type="line"/>
      <point x="436" y="359" type="line"/>
      <point x="603.5" y="0" type="line"/>
      <point x="434.5" y="0" type="line"/>
      <point x="339.5" y="248" type="line"/>
      <point x="162" y="0" type="line"/>
      <point x="-15" y="0" type="line"/>
      <point x="274" y="365" type="line"/>
      <point x="121.5" y="700" type="line"/>
      <point x="291" y="700" type="line"/>
      <point x="372.5" y="482" type="line"/>
    </contour>
  </outline>
</glyph>
<glyph name="Z" format="2">
  <advance width="579"/>
  <unicode hex="005A"/>
  <outline>
    <contour>
      <point x="117" y="570" type="line"/>
      <point x="140" y="700" type="line"/>
      <point x="660" y="699.5" type="line"/>
      <point x="230.5" y="126.5" type="line"/>
      <point x="530.5" y="126" type="line"/>
      <point x="508.5" y="0" type="line"/>
      <point x="-20.5" y="0" type="line"/>
      <point x="407" y="569" type="line"/>
    </contour>
  </outline>
</glyph>
<glyph name="bracketleft" format="2">
  <advance width="332"/>
  <unicode hex="005B"/>
  <outline>
    <contour>
      <point x="303.5" y="666" type="line"/>
      <point x="184" y="-106" type="line"/>
      <point x="282.5" y="-106" type="line"/>
      <point x="264" y="-220" type="line"/>
      <point x="38.5" y="-220" type="line"/>
      <point x="193" y="780" type="line"/>
      <point x="419" y="780" type="line"/>
      <point x="401" y="666" type="line"/>
    </contour>
  </outline>
</glyph>
<glyph name="backslash" format="2">
  <advance width="520"/>
  <unicode hex="005C"/>
  <outline>
    <contour>
      <point x="107" y="700" type="line"/>
      <point x="231" y="700" type="line"/>
      <point x="478" y="0" type="line"/>
      <point x="356" y="0" type="line"/>
    </contour>
  </outline>
</glyph>
<glyph name="bracketright" format="2">
  <advance width="332"/>
  <unicode hex="005D"/>
  <outline>
    <contour>
      <point x="82.5" y="-106" type="line"/>
      <point x="201.5" y="666" type="line"/>
      <point x="103" y="666" type="line"/>
      <point x="122" y="780" type="line"/>
      <point x="347" y="780" type="line"/>
      <point x="193" y="-220" type="line"/>
      <point x="-33" y="-220" type="line"/>
      <point x="-15.5" y="-106" type="line"/>
    </contour>
  </outline>
</glyph>
<glyph name="asciicircum" format="2">
  <advance width="494"/>
  <unicode hex="005E"/>
  <outline>
    <contour>
      <point x="324" y="590.5" type="line"/>
      <point x="214" y="452" type="line"/>
      <point x="92.5" y="452" type="line"/>
      <point x="302.5" y="709.5" type="line"/>
      <point x="376" y="710" type="line"/>
      <point x="497.5" y="451" type="line"/>
      <point x="384.5" y="451" type="line"/>
    </contour>
  </outline>
</glyph>
<glyph name="grave" format="2">
  <advance width="363"/>
  <unicode hex="0060"/>
  <outline>
    <contour>
      <point x="142" y="657.5" type="line"/>
      <point x="247.5" y="704.5" type="line"/>
      <point x="371" y="542.5" type="line"/>
      <point x="296.5" y="506" type="line"/>
    </contour>
  </outline>
</glyph>
<glyph name="b" format="2">
  <advance width="584"/>
  <unicode hex="0062"/>
  <outline>
    <contour>
      <point x="294" y="780" type="line"/>
      <point x="160" y="0" type="line"/>
      <point x="31" y="0" type="line"/>
      <point x="165" y="780" type="line"/>
    </contour>
    <contour>
      <point x="566" y="230" type="curve" smooth="yes"/>
      <point x="547.5" y="93.5"/>
      <point x="438" y="-11"/>
      <point x="313.5" y="-10" type="curve" smooth="yes"/>
      <point x="190" y="-9"/>
      <point x="142.5" y="105.5"/>
      <point x="158.5" y="230" type="curve" smooth="yes"/>
      <point x="176.5" y="361.5"/>
      <point x="264.5" y="469.5"/>
      <point x="387" y="469.5" type="curve" smooth="yes"/>
      <point x="512" y="469.5"/>
      <point x="583" y="361"/>
    </contour>
    <contour>
      <point x="433.5" y="230" type="curve" smooth="yes"/>
      <point x="443.5" y="299"/>
      <point x="409" y="360.5"/>
      <point x="339" y="361.5" type="curve" smooth="yes"/>
      <point x="275" y="362.5"/>
      <point x="211" y="303"/>
      <point x="199" y="230" type="curve" smooth="yes"/>
      <point x="189.5" y="161"/>
      <point x="224.5" y="100.5"/>
      <point x="287" y="98.5" type="curve" smooth="yes"/>
      <point x="358" y="96.5"/>
      <point x="421.5" y="157"/>
    </contour>
  </outline>
</glyph>
<glyph name="c" format="2">
  <advance width="470"/>
  <unicode hex="0063"/>
  <outline>
    <contour>
      <point x="175" y="230" type="curve" smooth="yes"/>
      <point x="164" y="158.5"/>
      <point x="206" y="99"/>
      <point x="279" y="97.5" type="curve" smooth="yes"/>
      <point x="340" y="96.5"/>
      <point x="396.5" y="129"/>
      <point x="431.5" y="169" type="curve"/>
      <point x="413.5" y="36.5" type="line"/>
      <point x="374" y="7.5"/>
      <point x="322.5" y="-10"/>
      <point x="261" y="-10" type="curve" smooth="yes"/>
      <point x="119.5" y="-10"/>
      <point x="25" y="94.5"/>
      <point x="43" y="230" type="curve" smooth="yes"/>
      <point x="62" y="369.5"/>
      <point x="183.5" y="470"/>
      <point x="328" y="470" type="curve" smooth="yes"/>
      <point x="387.5" y="470"/>
      <point x="435" y="452.5"/>
      <point x="471" y="424" type="curve"/>
      <point x="452.5" y="290" type="line"/>
      <point x="429" y="334.5"/>
      <point x="381" y="362.5"/>
      <point x="327" y="362.5" type="curve" smooth="yes"/>
      <point x="250" y="362.5"/>
      <point x="187" y="303"/>
    </contour>
  </outline>
</glyph>
<glyph name="d" format="2">
  <advance width="584"/>
  <unicode hex="0064"/>
  <outline>
    <contour>
      <point x="504" y="780" type="line"/>
      <point x="633.5" y="780" type="line"/>
      <point x="499" y="0" type="line"/>
      <point x="371.5" y="0" type="line"/>
    </contour>
    <contour>
      <point x="42.5" y="230" type="curve" smooth="yes"/>
      <point x="61" y="366.5"/>
      <point x="171" y="471"/>
      <point x="295.5" y="470" type="curve" smooth="yes"/>
      <point x="419" y="469"/>
      <point x="467" y="354.5"/>
      <point x="451" y="230" type="curve" smooth="yes"/>
      <point x="433" y="98.5"/>
      <point x="344.5" y="-9.5"/>
      <point x="222" y="-9.5" type="curve" smooth="yes"/>
      <point x="97" y="-9.5"/>
      <point x="25.5" y="99"/>
    </contour>
    <contour>
      <point x="176" y="230" type="curve" smooth="yes"/>
      <point x="166" y="161"/>
      <point x="200" y="99.5"/>
      <point x="270" y="98.5" type="curve" smooth="yes"/>
      <point x="334" y="97.5"/>
      <point x="398.5" y="157"/>
      <point x="410.5" y="230" type="curve" smooth="yes"/>
      <point x="420" y="299"/>
      <point x="384.5" y="359.5"/>
      <point x="322" y="361.5" type="curve" smooth="yes"/>
      <point x="251" y="363.5"/>
      <point x="188" y="303"/>
    </contour>
  </outline>
</glyph>
<glyph name="e" format="2">
  <advance width="538"/>
  <unicode hex="0065"/>
  <outline>
    <contour>
      <point x="264.5" y="-10" type="curve" smooth="yes"/>
      <point x="132" y="-10"/>
      <point x="44.5" y="69"/>
      <point x="44.5" y="200" type="curve" smooth="yes"/>
      <point x="44.5" y="349.5"/>
      <point x="160.5" y="470"/>
      <point x="324.5" y="470" type="curve" smooth="yes"/>
      <point x="456.5" y="470"/>
      <point x="531" y="395.5"/>
      <point x="531" y="267" type="curve" smooth="yes"/>
      <point x="531" y="245"/>
      <point x="525" y="219"/>
      <point x="520" y="202" type="curve"/>
      <point x="114" y="202" type="line"/>
      <point x="114" y="281" type="line"/>
      <point x="420" y="281" type="line"/>
      <point x="385" y="235" type="line"/>
      <point x="392" y="249.5"/>
      <point x="399" y="265.5"/>
      <point x="399" y="280.5" type="curve" smooth="yes"/>
      <point x="399" y="341.5"/>
      <point x="371.5" y="378"/>
      <point x="313" y="378" type="curve" smooth="yes"/>
      <point x="232" y="378"/>
      <point x="183.5" y="312"/>
      <point x="174.5" y="216" type="curve" smooth="yes"/>
      <point x="166.5" y="140.5"/>
      <point x="201" y="89"/>
      <point x="272" y="89" type="curve" smooth="yes"/>
      <point x="326" y="89"/>
      <point x="368" y="115.5"/>
      <point x="396" y="156" type="curve"/>
      <point x="506.5" y="120" type="line"/>
      <point x="458.5" y="38.5"/>
      <point x="376.5" y="-10"/>
    </contour>
  </outline>
</glyph>
<glyph name="f" format="2">
  <advance width="316"/>
  <unicode hex="0066"/>
  <outline>
    <contour>
      <point x="74" y="460" type="line"/>
      <point x="357.5" y="460" type="line"/>
      <point x="338" y="350" type="line"/>
      <point x="54" y="350" type="line"/>
    </contour>
    <contour>
      <point x="378" y="650" type="line"/>
      <point x="367" y="666"/>
      <point x="355" y="675.5"/>
      <point x="337" y="675.5" type="curve" smooth="yes"/>
      <point x="303" y="675.5"/>
      <point x="281" y="641"/>
      <point x="275.5" y="600" type="curve" smooth="yes"/>
      <point x="172" y="0" type="line"/>
      <point x="47" y="0" type="line"/>
      <point x="154" y="630.5" type="line" smooth="yes"/>
      <point x="170" y="726.5"/>
      <point x="235" y="794.5"/>
      <point x="338" y="793.5" type="curve" smooth="yes"/>
      <point x="389.5" y="793.5"/>
      <point x="421.5" y="770.5"/>
      <point x="446" y="745.5" type="curve"/>
    </contour>
  </outline>
</glyph>
<glyph name="g" format="2">
  <advance width="580"/>
  <unicode hex="0067"/>
  <outline>
    <contour>
      <point x="6.5" y="-32" type="curve"/>
      <point x="130" y="-32.5" type="line"/>
      <point x="130" y="-89.5"/>
      <point x="160.5" y="-128"/>
      <point x="225" y="-128.5" type="curve" smooth="yes"/>
      <point x="298" y="-129.5"/>
      <point x="360" y="-71.5"/>
      <point x="372" y="10" type="curve" smooth="yes"/>
      <point x="450" y="460" type="line"/>
      <point x="574.5" y="460" type="line"/>
      <point x="497.5" y="10" type="line" smooth="yes"/>
      <point x="474" y="-143"/>
      <point x="367" y="-235.5"/>
      <point x="224" y="-236" type="curve" smooth="yes"/>
      <point x="79" y="-236.5"/>
      <point x="2.5" y="-154.5"/>
    </contour>
    <contour>
      <point x="43.5" y="234.5" type="curve" smooth="yes"/>
      <point x="62" y="371"/>
      <point x="171.5" y="471"/>
      <point x="295.5" y="470" type="curve" smooth="yes"/>
      <point x="419" y="469"/>
      <point x="468" y="359"/>
      <point x="452" y="234" type="curve" smooth="yes"/>
      <point x="434" y="102.5"/>
      <point x="346" y="-1"/>
      <point x="223.5" y="-1" type="curve" smooth="yes"/>
      <point x="99.5" y="-1"/>
      <point x="26.5" y="103"/>
    </contour>
    <contour>
      <point x="176" y="234" type="curve" smooth="yes"/>
      <point x="166" y="164.5"/>
      <point x="202" y="108"/>
      <point x="271" y="107" type="curve" smooth="yes"/>
      <point x="334" y="106"/>
      <point x="401" y="162"/>
      <point x="412" y="235" type="curve" smooth="yes"/>
      <point x="421.5" y="304"/>
      <point x="384" y="360.5"/>
      <point x="322" y="361.5" type="curve" smooth="yes"/>
      <point x="249.5" y="362.5"/>
      <point x="187.5" y="307"/>
    </contour>
  </outline>
</glyph>
<glyph name="h" format="2">
  <advance width="538"/>
  <unicode hex="0068"/>
  <outline>
    <contour>
      <point x="296.5" y="780" type="line"/>
      <point x="162" y="0" type="line"/>
      <point x="33.5" y="0" type="line"/>
      <point x="167.5" y="780" type="line"/>
    </contour>
    <contour>
      <point x="372" y="280" type="line" smooth="yes"/>
      <point x="378" y="328.5"/>
      <point x="370" y="370.5"/>
      <point x="317" y="373" type="curve" smooth="yes"/>
      <point x="262" y="375.5"/>
      <point x="222.5" y="330.5"/>
      <point x="210" y="281" type="curve"/>
      <point x="183" y="281" type="line"/>
      <point x="202" y="381.5"/>
      <point x="264.5" y="474.5"/>
      <point x="374" y="474.5" type="curve" smooth="yes"/>
      <point x="481.5" y="474.5"/>
      <point x="515.5" y="398.5"/>
      <point x="502" y="298" type="curve"/>
      <point x="450.5" y="0" type="line"/>
      <point x="323" y="0" type="line"/>
    </contour>
  </outline>
</glyph>
<glyph name="i" format="2">
  <advance width="262"/>
  <unicode hex="0069"/>
  <outline>
    <contour>
      <point x="136" y="638" type="curve" smooth="yes"/>
      <point x="136" y="680"/>
      <point x="170" y="711"/>
      <point x="214" y="711" type="curve" smooth="yes"/>
      <point x="258" y="711"/>
      <point x="291.5" y="680"/>
      <point x="291.5" y="638" type="curve" smooth="yes"/>
      <point x="291.5" y="596"/>
      <point x="258" y="564"/>
      <point x="214" y="564" type="curve" smooth="yes"/>
      <point x="170" y="564"/>
      <point x="136" y="596"/>
    </contour>
    <contour>
      <point x="119.5" y="460" type="line"/>
      <point x="246" y="460" type="line"/>
      <point x="167" y="0" type="line"/>
      <point x="42" y="0" type="line"/>
    </contour>
  </outline>
</glyph>
<glyph name="j" format="2">
  <advance width="256"/>
  <unicode hex="006A"/>
  <outline>
    <contour>
      <point x="129" y="638" type="curve" smooth="yes"/>
      <point x="129" y="680"/>
      <point x="163" y="710.5"/>
      <point x="207" y="710.5" type="curve" smooth="yes"/>
      <point x="251" y="710.5"/>
      <point x="285" y="680"/>
      <point x="285" y="638" type="curve" smooth="yes"/>
      <point x="285" y="596"/>
      <point x="251" y="564"/>
      <point x="207" y="564" type="curve" smooth="yes"/>
      <point x="163" y="564"/>
      <point x="129" y="596"/>
    </contour>
    <contour>
      <point x="-72.5" y="-88.5" type="line"/>
      <point x="-62.5" y="-102.5"/>
      <point x="-48" y="-114.5"/>
      <point x="-30" y="-114.5" type="curve" smooth="yes"/>
      <point x="4" y="-115.5"/>
      <point x="24" y="-78.5"/>
      <point x="29" y="-39" type="curve" smooth="yes"/>
      <point x="115" y="460" type="line"/>
      <point x="240.5" y="460" type="line"/>
      <point x="150.5" y="-69" type="line" smooth="yes"/>
      <point x="134.5" y="-162.5"/>
      <point x="73.5" y="-234"/>
      <point x="-29.5" y="-233" type="curve" smooth="yes"/>
      <point x="-80.5" y="-233"/>
      <point x="-115" y="-211"/>
      <point x="-141" y="-184" type="curve"/>
    </contour>
  </outline>
</glyph>
<glyph name="k" format="2">
  <advance width="519"/>
  <unicode hex="006B"/>
  <outline>
    <contour>
      <point x="164" y="780" type="line"/>
      <point x="289.5" y="780" type="line"/>
      <point x="155.5" y="0" type="line"/>
      <point x="32" y="0" type="line"/>
    </contour>
    <contour>
      <point x="393" y="459.5" type="line"/>
      <point x="552.5" y="459.5" type="line"/>
      <point x="322" y="265" type="line"/>
      <point x="487" y="0" type="line"/>
      <point x="340.5" y="0" type="line"/>
      <point x="172" y="273.5" type="line"/>
    </contour>
  </outline>
</glyph>
<glyph name="l" format="2">
  <advance width="250"/>
  <unicode hex="006C"/>
  <outline>
    <contour>
      <point x="167" y="780" type="line"/>
      <point x="296.5" y="780" type="line"/>
      <point x="162" y="0" type="line"/>
      <point x="34.5" y="0" type="line"/>
    </contour>
  </outline>
</glyph>
<glyph name="m" format="2">
  <advance width="783"/>
  <unicode hex="006D"/>
  <outline>
    <contour>
      <point x="746" y="294" type="curve" smooth="yes"/>
      <point x="696" y="0" type="line"/>
      <point x="567" y="0" type="line"/>
      <point x="617" y="280" type="line" smooth="yes"/>
      <point x="622.5" y="327"/>
      <point x="618" y="373"/>
      <point x="570.5" y="373" type="curve" smooth="yes"/>
      <point x="520.5" y="373"/>
      <point x="482.5" y="335.5"/>
      <point x="474.5" y="281" type="curve" smooth="yes"/>
      <point x="426.5" y="0" type="line"/>
      <point x="298" y="0" type="line"/>
      <point x="347.5" y="280" type="line" smooth="yes"/>
      <point x="352.5" y="327.5"/>
      <point x="349.5" y="373"/>
      <point x="302" y="373" type="curve" smooth="yes"/>
      <point x="253.5" y="373"/>
      <point x="216" y="337.5"/>
      <point x="208" y="284" type="curve" smooth="yes"/>
      <point x="158" y="0" type="line"/>
      <point x="33" y="0" type="line"/>
      <point x="113" y="460" type="line"/>
      <point x="237" y="460" type="line"/>
      <point x="227" y="396.5" type="line"/>
      <point x="257.5" y="441.5"/>
      <point x="301.5" y="470"/>
      <point x="361" y="470" type="curve" smooth="yes"/>
      <point x="430" y="470"/>
      <point x="465" y="438"/>
      <point x="476.5" y="388" type="curve"/>
      <point x="512.5" y="437.5"/>
      <point x="565.5" y="470"/>
      <point x="630" y="470" type="curve" smooth="yes"/>
      <point x="734.5" y="470"/>
      <point x="758" y="390.5"/>
    </contour>
  </outline>
</glyph>
<glyph name="n" format="2">
  <advance width="542"/>
  <unicode hex="006E"/>
  <outline>
    <contour>
      <point x="372" y="280" type="line" smooth="yes"/>
      <point x="378" y="328"/>
      <point x="370" y="373"/>
      <point x="315" y="373" type="curve" smooth="yes"/>
      <point x="261" y="373"/>
      <point x="219" y="335.5"/>
      <point x="211" y="282.5" type="curve" smooth="yes"/>
      <point x="162" y="0" type="line"/>
      <point x="33" y="0" type="line"/>
      <point x="113" y="460" type="line"/>
      <point x="241.5" y="460" type="line"/>
      <point x="230.5" y="394" type="line"/>
      <point x="262.5" y="441"/>
      <point x="310" y="470"/>
      <point x="373" y="470" type="curve" smooth="yes"/>
      <point x="480.5" y="470"/>
      <point x="520" y="392"/>
      <point x="505" y="294" type="curve" smooth="yes"/>
      <point x="455" y="0" type="line"/>
      <point x="323" y="0" type="line"/>
    </contour>
  </outline>
</glyph>
<glyph name="o" format="2">
  <advance width="558"/>
  <unicode hex="006F"/>
  <outline>
    <contour>
      <point x="49" y="230" type="curve" smooth="yes"/>
      <point x="67" y="368.5"/>
      <point x="188.5" y="470"/>
      <point x="331" y="470" type="curve" smooth="yes"/>
      <point x="471.5" y="470"/>
      <point x="565" y="365"/>
      <point x="547" y="230" type="curve" smooth="yes"/>
      <point x="529" y="91.5"/>
      <point x="407.5" y="-10"/>
      <point x="265" y="-10" type="curve" smooth="yes"/>
      <point x="125" y="-10"/>
      <point x="31" y="95"/>
    </contour>
    <contour>
      <point x="180" y="230" type="curve" smooth="yes"/>
      <point x="170" y="163"/>
      <point x="205.5" y="101.5"/>
      <point x="274.5" y="100.5" type="curve" smooth="yes"/>
      <point x="344.5" y="99.5"/>
      <point x="405" y="159"/>
      <point x="416" y="230" type="curve" smooth="yes"/>
      <point x="426" y="297"/>
      <point x="390" y="359"/>
      <point x="321" y="360" type="curve" smooth="yes"/>
      <point x="251" y="361"/>
      <point x="191" y="301"/>
    </contour>
  </outline>
</glyph>
<glyph name="p" format="2">
  <advance width="584"/>
  <unicode hex="0070"/>
  <outline>
    <contour>
      <point x="123" y="-220" type="line"/>
      <point x="-7" y="-220" type="line"/>
      <point x="110.5" y="460" type="line"/>
      <point x="238" y="460" type="line"/>
    </contour>
    <contour>
      <point x="566" y="230" type="curve" smooth="yes"/>
      <point x="547" y="91"/>
      <point x="438" y="-15"/>
      <point x="312.5" y="-14" type="curve" smooth="yes"/>
      <point x="185.5" y="-13"/>
      <point x="147" y="105.5"/>
      <point x="163" y="230" type="curve" smooth="yes"/>
      <point x="181" y="361.5"/>
      <point x="262" y="473"/>
      <point x="387.5" y="473.5" type="curve" smooth="yes"/>
      <point x="513.5" y="474"/>
      <point x="583" y="363.5"/>
    </contour>
    <contour>
      <point x="433.5" y="230" type="curve" smooth="yes"/>
      <point x="443.5" y="299.5"/>
      <point x="407" y="356.5"/>
      <point x="338" y="357.5" type="curve" smooth="yes"/>
      <point x="275" y="358.5"/>
      <point x="210" y="303"/>
      <point x="199" y="230" type="curve" smooth="yes"/>
      <point x="189.5" y="161"/>
      <point x="226" y="104.5"/>
      <point x="288" y="102.5" type="curve" smooth="yes"/>
      <point x="358" y="100.5"/>
      <point x="422" y="157"/>
    </contour>
  </outline>
</glyph>
<glyph name="q" format="2">
  <advance width="584"/>
  <unicode hex="0071"/>
  <outline>
    <contour>
      <point x="333" y="-220" type="line"/>
      <point x="450" y="460" type="line"/>
      <point x="579" y="460" type="line"/>
      <point x="462" y="-220" type="line"/>
    </contour>
    <contour>
      <point x="42.5" y="230" type="curve" smooth="yes"/>
      <point x="61.5" y="369"/>
      <point x="170.5" y="475"/>
      <point x="296" y="474" type="curve" smooth="yes"/>
      <point x="423" y="473"/>
      <point x="463" y="354.5"/>
      <point x="447" y="230" type="curve" smooth="yes"/>
      <point x="429" y="98.5"/>
      <point x="347" y="-13"/>
      <point x="221.5" y="-13.5" type="curve" smooth="yes"/>
      <point x="95.5" y="-14"/>
      <point x="25.5" y="96.5"/>
    </contour>
    <contour>
      <point x="176" y="230" type="curve" smooth="yes"/>
      <point x="166" y="160.5"/>
      <point x="201.5" y="103.5"/>
      <point x="270.5" y="102.5" type="curve" smooth="yes"/>
      <point x="333.5" y="101.5"/>
      <point x="399.5" y="157"/>
      <point x="410.5" y="230" type="curve" smooth="yes"/>
      <point x="420" y="299"/>
      <point x="383" y="355.5"/>
      <point x="321" y="357.5" type="curve" smooth="yes"/>
      <point x="251" y="359.5"/>
      <point x="187.5" y="303"/>
    </contour>
  </outline>
</glyph>
<glyph name="r" format="2">
  <advance width="380"/>
  <unicode hex="0072"/>
  <outline>
    <contour>
      <point x="239" y="460" type="line"/>
      <point x="160" y="0" type="line"/>
      <point x="33" y="0" type="line"/>
      <point x="113" y="460" type="line"/>
    </contour>
    <contour>
      <point x="351" y="324" type="line"/>
      <point x="335" y="338"/>
      <point x="320.5" y="348.5"/>
      <point x="297.5" y="349" type="curve" smooth="yes"/>
      <point x="244" y="350"/>
      <point x="210.5" y="298"/>
      <point x="201.5" y="243.5" type="curve"/>
      <point x="175" y="281" type="line"/>
      <point x="192" y="375"/>
      <point x="265" y="469"/>
      <point x="345" y="470" type="curve" smooth="yes"/>
      <point x="377.5" y="470"/>
      <point x="405" y="455.5"/>
      <point x="425" y="432.5" type="curve"/>
    </contour>
  </outline>
</glyph>
<glyph name="s" format="2">
  <advance width="427"/>
  <unicode hex="0073"/>
  <outline>
    <contour>
      <point x="90" y="157.5" type="line"/>
      <point x="135" y="111.5"/>
      <point x="178.5" y="81"/>
      <point x="226.5" y="83" type="curve" smooth="yes"/>
      <point x="258.5" y="83"/>
      <point x="282.5" y="103.5"/>
      <point x="283.5" y="129.5" type="curve" smooth="yes"/>
      <point x="285" y="165.5"/>
      <point x="245" y="184"/>
      <point x="198" y="201" type="curve" smooth="yes"/>
      <point x="140" y="223"/>
      <point x="82.5" y="260"/>
      <point x="86.5" y="338" type="curve" smooth="yes"/>
      <point x="92" y="426"/>
      <point x="171" y="470"/>
      <point x="257" y="470" type="curve" smooth="yes"/>
      <point x="331.5" y="470"/>
      <point x="392" y="437"/>
      <point x="436" y="395" type="curve"/>
      <point x="374.5" y="315.5" type="line"/>
      <point x="343.5" y="349.5"/>
      <point x="302" y="377.5"/>
      <point x="259.5" y="377.5" type="curve" smooth="yes"/>
      <point x="228" y="377.5"/>
      <point x="205.5" y="362"/>
      <point x="204.5" y="339.5" type="curve" smooth="yes"/>
      <point x="201.5" y="305"/>
      <point x="246.5" y="292.5"/>
      <point x="292.5" y="273.5" type="curve" smooth="yes"/>
      <point x="359.5" y="246"/>
      <point x="413.5" y="212.5"/>
      <point x="410" y="132.5" type="curve" smooth="yes"/>
      <point x="405" y="42.5"/>
      <point x="334.5" y="-16"/>
      <point x="234" y="-16" type="curve" smooth="yes"/>
      <point x="140" y="-16"/>
      <point x="67.5" y="28"/>
      <point x="19" y="78.5" type="curve"/>
    </contour>
  </outline>
</glyph>
<glyph name="t" format="2">
  <advance width="285"/>
  <unicode hex="0074"/>
  <outline>
    <contour>
      <point x="56.5" y="460" type="line"/>
      <point x="335" y="460" type="line"/>
      <point x="315.5" y="350" type="line"/>
      <point x="36.5" y="350" type="line"/>
    </contour>
    <contour>
      <point x="159" y="620" type="line"/>
      <point x="284" y="620" type="line"/>
      <point x="177" y="0" type="line"/>
      <point x="54" y="0" type="line"/>
    </contour>
  </outline>
</glyph>
<glyph name="u" format="2">
  <advance width="542"/>
  <unicode hex="0075"/>
  <outline>
    <contour>
      <point x="196.5" y="180" type="line" smooth="yes"/>
      <point x="190.5" y="132"/>
      <point x="197" y="87"/>
      <point x="250" y="87" type="curve" smooth="yes"/>
      <point x="304" y="87"/>
      <point x="347" y="122"/>
      <point x="356" y="177" type="curve" smooth="yes"/>
      <point x="405.5" y="460" type="line"/>
      <point x="534.5" y="460" type="line"/>
      <point x="455" y="0" type="line"/>
      <point x="326" y="0" type="line"/>
      <point x="337" y="66" type="line"/>
      <point x="304" y="19"/>
      <point x="257.5" y="-10"/>
      <point x="194.5" y="-10" type="curve" smooth="yes"/>
      <point x="87.5" y="-10"/>
      <point x="48.5" y="68"/>
      <point x="62.5" y="166" type="curve"/>
      <point x="113" y="460" type="line"/>
      <point x="245.5" y="460" type="line"/>
    </contour>
  </outline>
</glyph>
<glyph name="v" format="2">
  <advance width="485"/>
  <unicode hex="0076"/>
  <outline>
    <contour>
      <point x="52" y="460" type="line"/>
      <point x="188.5" y="460" type="line"/>
      <point x="254.5" y="187" type="line"/>
      <point x="405" y="459.5" type="line"/>
      <point x="546" y="459.5" type="line"/>
      <point x="219.5" y="-50" type="line"/>
    </contour>
  </outline>
</glyph>
<glyph name="w" format="2">
  <advance width="714"/>
  <unicode hex="0077"/>
  <outline>
    <contour>
      <point x="49" y="460" type="line"/>
      <point x="181" y="460" type="line"/>
      <point x="235.5" y="209" type="line"/>
      <point x="412" y="497.5" type="line"/>
      <point x="491.5" y="207" type="line"/>
      <point x="634" y="459.5" type="line"/>
      <point x="773.5" y="459.5" type="line"/>
      <point x="467" y="-33" type="line"/>
      <point x="375" y="259" type="line"/>
      <point x="184" y="-33" type="line"/>
    </contour>
  </outline>
</glyph>
<glyph name="x" format="2">
  <advance width="483"/>
  <unicode hex="0078"/>
  <outline>
    <contour>
      <point x="385" y="460" type="line"/>
      <point x="531" y="460" type="line"/>
      <point x="328.5" y="232" type="line"/>
      <point x="465" y="0" type="line"/>
      <point x="328" y="0" type="line"/>
      <point x="249" y="148" type="line"/>
      <point x="130.5" y="0" type="line"/>
      <point x="-21" y="0" type="line"/>
      <point x="194.5" y="243" type="line"/>
      <point x="65" y="460" type="line"/>
      <point x="206.5" y="460" type="line"/>
      <point x="276.5" y="328.5" type="line"/>
    </contour>
  </outline>
</glyph>
<glyph name="y" format="2">
  <advance width="481"/>
  <unicode hex="0079"/>
  <outline>
    <contour>
      <point x="544" y="459.5" type="line"/>
      <point x="135" y="-219.5" type="line"/>
      <point x="0" y="-219.5" type="line"/>
      <point x="162" y="49.5" type="line"/>
      <point x="46" y="460" type="line"/>
      <point x="183.5" y="460" type="line"/>
      <point x="266" y="94" type="line"/>
      <point x="202" y="96" type="line"/>
      <point x="406" y="459.5" type="line"/>
    </contour>
  </outline>
</glyph>
<glyph name="z" format="2">
  <advance width="487"/>
  <unicode hex="007A"/>
  <outline>
    <contour>
      <point x="289" y="341.5" type="line"/>
      <point x="82" y="341.5" type="line"/>
      <point x="103" y="460" type="line"/>
      <point x="529.5" y="460" type="line"/>
      <point x="231.5" y="118.5" type="line"/>
      <point x="441" y="118.5" type="line"/>
      <point x="420" y="0" type="line"/>
      <point x="-16" y="0" type="line"/>
    </contour>
  </outline>
</glyph>
<glyph name="braceleft" format="2">
  <advance width="360"/>
  <unicode hex="007B"/>
  <outline>
    <contour>
      <point x="313" y="624.5" type="curve" smooth="yes"/>
      <point x="292.5" y="490" type="line" smooth="yes"/>
      <point x="275.5" y="392.5"/>
      <point x="250" y="291"/>
      <point x="127" y="280.5" type="curve"/>
      <point x="129" y="300" type="line"/>
      <point x="249" y="286.5"/>
      <point x="243.5" y="179.5"/>
      <point x="230" y="90" type="curve" smooth="yes"/>
      <point x="208" y="-45.5" type="line" smooth="yes"/>
      <point x="203.5" y="-72.5"/>
      <point x="216.5" y="-94"/>
      <point x="246" y="-94.5" type="curve" smooth="yes"/>
      <point x="281.5" y="-94.5" type="line"/>
      <point x="266" y="-200" type="line"/>
      <point x="188.5" y="-200" type="line" smooth="yes"/>
      <point x="114.5" y="-199.5"/>
      <point x="57.5" y="-146.5"/>
      <point x="68.5" y="-60" type="curve" smooth="yes"/>
      <point x="98" y="132" type="line" smooth="yes"/>
      <point x="105" y="194"/>
      <point x="99" y="221"/>
      <point x="60" y="242" type="curve"/>
      <point x="73.5" y="337.5" type="line"/>
      <point x="116.5" y="355"/>
      <point x="136" y="384.5"/>
      <point x="145" y="448" type="curve" smooth="yes"/>
      <point x="175" y="640.5" type="line" smooth="yes"/>
      <point x="188" y="729"/>
      <point x="257" y="779"/>
      <point x="333" y="780" type="curve"/>
      <point x="416.5" y="780" type="line"/>
      <point x="401" y="675.5" type="line"/>
      <point x="368.5" y="675.5" type="line" smooth="yes"/>
      <point x="337.5" y="675.5"/>
      <point x="318" y="653.5"/>
    </contour>
  </outline>
</glyph>
<glyph name="braceright" format="2">
  <advance width="360"/>
  <unicode hex="007D"/>
  <outline>
    <contour>
      <point x="108" y="-45" type="curve" smooth="yes"/>
      <point x="129" y="90" type="line" smooth="yes"/>
      <point x="146" y="187.5"/>
      <point x="171.5" y="289"/>
      <point x="294.5" y="299.5" type="curve"/>
      <point x="291.5" y="280" type="line"/>
      <point x="171.5" y="293.5"/>
      <point x="178.5" y="400.5"/>
      <point x="192" y="490" type="curve" smooth="yes"/>
      <point x="213" y="625.5" type="line" smooth="yes"/>
      <point x="217.5" y="652.5"/>
      <point x="204" y="674"/>
      <point x="175" y="674.5" type="curve" smooth="yes"/>
      <point x="140" y="674.5" type="line"/>
      <point x="155.5" y="780" type="line"/>
      <point x="232.5" y="780" type="line" smooth="yes"/>
      <point x="306.5" y="779"/>
      <point x="364" y="726.5"/>
      <point x="353" y="640" type="curve" smooth="yes"/>
      <point x="323" y="448" type="line" smooth="yes"/>
      <point x="316" y="386"/>
      <point x="322.5" y="359"/>
      <point x="361.5" y="338" type="curve"/>
      <point x="348" y="242.5" type="line"/>
      <point x="305" y="225"/>
      <point x="285" y="195.5"/>
      <point x="276" y="132" type="curve" smooth="yes"/>
      <point x="247" y="-60.5" type="line" smooth="yes"/>
      <point x="234.5" y="-149"/>
      <point x="164.5" y="-199"/>
      <point x="88.5" y="-200" type="curve"/>
      <point x="4.5" y="-200" type="line"/>
      <point x="20" y="-95.5" type="line"/>
      <point x="53" y="-95.5" type="line" smooth="yes"/>
      <point x="84" y="-95.5"/>
      <point x="103" y="-74"/>
    </contour>
  </outline>
</glyph>
<glyph name="asciitilde" format="2">
  <advance width="558"/>
  <unicode hex="007E"/>
  <outline>
    <contour>
      <point x="158" y="167" type="curve"/>
      <point x="54" y="172" type="line"/>
      <point x="53" y="179.5"/>
      <point x="54" y="188.5"/>
      <point x="55" y="197" type="curve" smooth="yes"/>
      <point x="59" y="228"/>
      <point x="71.5" y="258.5"/>
      <point x="94" y="284" type="curve" smooth="yes"/>
      <point x="123.5" y="317.5"/>
      <point x="166" y="340"/>
      <point x="220" y="340" type="curve" smooth="yes"/>
      <point x="262" y="340"/>
      <point x="296" y="320.5"/>
      <point x="334" y="291.5" type="curve" smooth="yes"/>
      <point x="356" y="274.5"/>
      <point x="377" y="258"/>
      <point x="397" y="258" type="curve" smooth="yes"/>
      <point x="420" y="258"/>
      <point x="436" y="278.5"/>
      <point x="440" y="300" type="curve" smooth="yes"/>
      <point x="442" y="310"/>
      <point x="441" y="322.5"/>
      <point x="439" y="332.5" type="curve"/>
      <point x="545" y="326" type="line"/>
      <point x="546" y="317"/>
      <point x="546.5" y="307.5"/>
      <point x="545.5" y="298" type="curve" smooth="yes"/>
      <point x="541.5" y="268"/>
      <point x="529.5" y="235.5"/>
      <point x="507.5" y="210" type="curve" smooth="yes"/>
      <point x="480.5" y="178"/>
      <point x="443.5" y="158.5"/>
      <point x="397.5" y="159" type="curve" smooth="yes"/>
      <point x="358.5" y="159.5"/>
      <point x="325" y="180.5"/>
      <point x="286.5" y="208.5" type="curve" smooth="yes"/>
      <point x="262.5" y="227.5"/>
      <point x="237" y="243"/>
      <point x="211.5" y="242" type="curve" smooth="yes"/>
      <point x="181.5" y="241"/>
      <point x="162" y="219"/>
      <point x="157" y="194" type="curve" smooth="yes"/>
      <point x="155" y="184.5"/>
      <point x="156.5" y="175.5"/>
    </contour>
  </outline>
</glyph>
<glyph name="exclamdown" format="2">
  <advance width="320"/>
  <unicode hex="00A1"/>
  <outline>
    <contour>
      <point x="172.5" y="-234" type="line"/>
      <point x="13" y="-234" type="line"/>
      <point x="123.5" y="244" type="line"/>
      <point x="226" y="244" type="line"/>
    </contour>
    <contour>
      <point x="284" y="410" type="curve" smooth="yes"/>
      <point x="279" y="368"/>
      <point x="237" y="333.5"/>
      <point x="193" y="334.5" type="curve" smooth="yes"/>
      <point x="148" y="335.5"/>
      <point x="117" y="369"/>
      <point x="122.5" y="412" type="curve" smooth="yes"/>
      <point x="127.5" y="454"/>
      <point x="170" y="488"/>
      <point x="214" y="487" type="curve" smooth="yes"/>
      <point x="259" y="486"/>
      <point x="289.5" y="453"/>
    </contour>
  </outline>
</glyph>
<glyph name="cent" format="2">
  <advance width="562"/>
  <unicode hex="00A2"/>
  <outline>
    <contour>
      <point x="220" y="38" type="line"/>
      <point x="316.5" y="38" type="line"/>
      <point x="296" y="-112" type="line"/>
      <point x="188" y="-112" type="line"/>
    </contour>
    <contour>
      <point x="199" y="230" type="curve" smooth="yes"/>
      <point x="187.5" y="158"/>
      <point x="229.5" y="99"/>
      <point x="302" y="97.5" type="curve" smooth="yes"/>
      <point x="366" y="96.5"/>
      <point x="420" y="130.5"/>
      <point x="455.5" y="169" type="curve"/>
      <point x="435" y="36" type="line"/>
      <point x="395.5" y="7.5"/>
      <point x="342" y="-10"/>
      <point x="282.5" y="-10" type="curve" smooth="yes"/>
      <point x="141" y="-9.5"/>
      <point x="49.5" y="95"/>
      <point x="69" y="230" type="curve" smooth="yes"/>
      <point x="90" y="369.5"/>
      <point x="211.5" y="469.5"/>
      <point x="356.5" y="470" type="curve" smooth="yes"/>
      <point x="414" y="470"/>
      <point x="463" y="453.5"/>
      <point x="499" y="424" type="curve"/>
      <point x="478.5" y="290" type="line"/>
      <point x="456" y="333.5"/>
      <point x="414" y="362.5"/>
      <point x="355" y="362.5" type="curve" smooth="yes"/>
      <point x="281" y="362.5"/>
      <point x="212" y="304"/>
    </contour>
    <contour>
      <point x="306.5" y="578" type="line"/>
      <point x="415" y="578" type="line"/>
      <point x="383" y="428" type="line"/>
      <point x="286.5" y="428" type="line"/>
    </contour>
  </outline>
</glyph>
<glyph name="sterling" format="2">
  <advance width="583"/>
  <unicode hex="00A3"/>
  <outline>
    <contour>
      <point x="100.5" y="370" type="line"/>
      <point x="465" y="370" type="line"/>
      <point x="448" y="278" type="line"/>
      <point x="83.5" y="278" type="line"/>
    </contour>
    <contour>
      <point x="481" y="471" type="line"/>
      <point x="483.5" y="527"/>
      <point x="471" y="589.5"/>
      <point x="398" y="590.5" type="curve" smooth="yes"/>
      <point x="344.5" y="591.5"/>
      <point x="294" y="557.5"/>
      <point x="284" y="502" type="curve" smooth="yes"/>
      <point x="268" y="416"/>
      <point x="346.5" y="363"/>
      <point x="335" y="267.5" type="curve" smooth="yes"/>
      <point x="319" y="159.5"/>
      <point x="209" y="77.5"/>
      <point x="121" y="51" type="curve"/>
      <point x="166" y="122" type="line"/>
      <point x="512" y="122" type="line"/>
      <point x="490" y="0" type="line"/>
      <point x="27" y="0" type="line"/>
      <point x="118" y="92"/>
      <point x="193" y="168.5"/>
      <point x="211" y="275" type="curve" smooth="yes"/>
      <point x="224" y="364"/>
      <point x="140" y="417.5"/>
      <point x="152" y="520.5" type="curve" smooth="yes"/>
      <point x="168.5" y="637"/>
      <point x="284" y="710.5"/>
      <point x="405.5" y="709.5" type="curve" smooth="yes"/>
      <point x="535.5" y="708.5"/>
      <point x="605.5" y="609.5"/>
      <point x="602" y="514" type="curve"/>
    </contour>
  </outline>
</glyph>
<glyph name="currency" format="2">
  <advance width="559"/>
  <unicode hex="00A4"/>
  <outline>
    <contour>
      <point x="84" y="504.5" type="line"/>
      <point x="150" y="562" type="line"/>
      <point x="230.5" y="459.5" type="line"/>
      <point x="167" y="406.5" type="line"/>
    </contour>
    <contour>
      <point x="66" y="38.5" type="line"/>
      <point x="15.5" y="100.5" type="line"/>
      <point x="126.5" y="194" type="line"/>
      <point x="175.5" y="134.5" type="line"/>
    </contour>
    <contour>
      <point x="483.5" y="406" type="line"/>
      <point x="433.5" y="466.5" type="line"/>
      <point x="544" y="562" type="line"/>
      <point x="593" y="500.5" type="line"/>
    </contour>
    <contour>
      <point x="377.5" y="138.5" type="line"/>
      <point x="443" y="194" type="line"/>
      <point x="523" y="93.5" type="line"/>
      <point x="460" y="39" type="line"/>
    </contour>
    <contour>
      <point x="73" y="300" type="curve" smooth="yes"/>
      <point x="92" y="432.5"/>
      <point x="206.5" y="540"/>
      <point x="342" y="540" type="curve" smooth="yes"/>
      <point x="476" y="540"/>
      <point x="555" y="427.5"/>
      <point x="537" y="300" type="curve" smooth="yes"/>
      <point x="518" y="167.5"/>
      <point x="404" y="60"/>
      <point x="268.5" y="60" type="curve" smooth="yes"/>
      <point x="134.5" y="60"/>
      <point x="55" y="172.5"/>
    </contour>
    <contour>
      <point x="191" y="300" type="curve" smooth="yes"/>
      <point x="181" y="237"/>
      <point x="214" y="180.5"/>
      <point x="281" y="179.5" type="curve" smooth="yes"/>
      <point x="349" y="178.5"/>
      <point x="407.5" y="233"/>
      <point x="418.5" y="300" type="curve" smooth="yes"/>
      <point x="428.5" y="363"/>
      <point x="396" y="419.5"/>
      <point x="329" y="420.5" type="curve" smooth="yes"/>
      <point x="261" y="421.5"/>
      <point x="202" y="367"/>
    </contour>
  </outline>
</glyph>
<glyph name="yen" format="2">
  <advance width="622"/>
  <unicode hex="00A5"/>
  <outline>
    <contour>
      <point x="62.5" y="272.5" type="line"/>
      <point x="78.5" y="365" type="line"/>
      <point x="613" y="365" type="line"/>
      <point x="597" y="272" type="line"/>
    </contour>
    <contour>
      <point x="36.5" y="122.5" type="line"/>
      <point x="52.5" y="215" type="line"/>
      <point x="587.5" y="215" type="line"/>
      <point x="571.5" y="122" type="line"/>
    </contour>
    <contour>
      <point x="547" y="699.5" type="line"/>
      <point x="712" y="699.5" type="line"/>
      <point x="407" y="289" type="line"/>
      <point x="358" y="0" type="line"/>
      <point x="212" y="0" type="line"/>
      <point x="264" y="294" type="line"/>
      <point x="100" y="700" type="line"/>
      <point x="258" y="700" type="line"/>
      <point x="353.5" y="421" type="line"/>
    </contour>
  </outline>
</glyph>
<glyph name="brokenbar" format="2">
  <advance width="318"/>
  <unicode hex="00A6"/>
  <outline>
    <contour>
      <point x="188" y="694.5" type="line"/>
      <point x="315.5" y="694.5" type="line"/>
      <point x="271" y="438" type="line"/>
      <point x="143" y="438" type="line"/>
    </contour>
    <contour>
      <point x="242" y="262" type="line"/>
      <point x="197" y="5.5" type="line"/>
      <point x="69" y="5.5" type="line"/>
      <point x="114" y="262" type="line"/>
    </contour>
  </outline>
</glyph>
<glyph name="section" format="2">
  <advance width="510"/>
  <unicode hex="00A7"/>
  <outline>
    <contour>
      <point x="434" y="559" type="line"/>
      <point x="411" y="588.5"/>
      <point x="376.5" y="608.5"/>
      <point x="341.5" y="608.5" type="curve" smooth="yes"/>
      <point x="312.5" y="608.5"/>
      <point x="280.5" y="596.5"/>
      <point x="277" y="573.5" type="curve" smooth="yes"/>
      <point x="272" y="542.5"/>
      <point x="328" y="529"/>
      <point x="365" y="515.5" type="curve" smooth="yes"/>
      <point x="430.5" y="492"/>
      <point x="483.5" y="444"/>
      <point x="474.5" y="375" type="curve" smooth="yes"/>
      <point x="459.5" y="271.5"/>
      <point x="355.5" y="236"/>
      <point x="255" y="233" type="curve"/>
      <point x="262" y="272" type="line"/>
      <point x="302.5" y="281"/>
      <point x="345" y="308"/>
      <point x="352" y="350" type="curve" smooth="yes"/>
      <point x="360.5" y="402.5"/>
      <point x="301.5" y="421"/>
      <point x="257" y="441" type="curve" smooth="yes"/>
      <point x="199" y="467"/>
      <point x="145.5" y="508.5"/>
      <point x="155.5" y="582" type="curve" smooth="yes"/>
      <point x="168" y="670"/>
      <point x="261" y="719"/>
      <point x="345.5" y="719.5" type="curve" smooth="yes"/>
      <point x="418" y="720"/>
      <point x="483.5" y="688.5"/>
      <point x="512" y="638.5" type="curve"/>
    </contour>
    <contour>
      <point x="113.5" y="169" type="line"/>
      <point x="142.5" y="122.5"/>
      <point x="187" y="91"/>
      <point x="236.5" y="91.5" type="curve" smooth="yes"/>
      <point x="271" y="91.5"/>
      <point x="303" y="106.5"/>
      <point x="308" y="133.5" type="curve" smooth="yes"/>
      <point x="314" y="170.5"/>
      <point x="265" y="185"/>
      <point x="225" y="200" type="curve" smooth="yes"/>
      <point x="159" y="223"/>
      <point x="95" y="268"/>
      <point x="105" y="342.5" type="curve" smooth="yes"/>
      <point x="120" y="439.5"/>
      <point x="224" y="476"/>
      <point x="327.5" y="479" type="curve"/>
      <point x="322" y="445" type="line"/>
      <point x="280" y="429.5"/>
      <point x="237.5" y="410.5"/>
      <point x="230" y="368.5" type="curve" smooth="yes"/>
      <point x="220" y="309.5"/>
      <point x="288.5" y="295"/>
      <point x="333" y="274.5" type="curve" smooth="yes"/>
      <point x="393.5" y="246.5"/>
      <point x="444.5" y="200.5"/>
      <point x="435.5" y="129.5" type="curve" smooth="yes"/>
      <point x="422.5" y="31"/>
      <point x="324" y="-18"/>
      <point x="228.5" y="-18" type="curve" smooth="yes"/>
      <point x="135.5" y="-18"/>
      <point x="68" y="26.5"/>
      <point x="34" y="91" type="curve"/>
    </contour>
  </outline>
</glyph>
<glyph name="dieresis" format="2">
  <advance width="483"/>
  <unicode hex="00A8"/>
  <outline>
    <contour>
      <point x="358" y="641" type="curve" smooth="yes"/>
      <point x="362" y="680"/>
      <point x="403.5" y="715"/>
      <point x="444.5" y="714" type="curve" smooth="yes"/>
      <point x="486" y="713"/>
      <point x="516.5" y="679"/>
      <point x="512" y="639" type="curve" smooth="yes"/>
      <point x="508" y="600"/>
      <point x="467.5" y="566"/>
      <point x="426.5" y="567" type="curve" smooth="yes"/>
      <point x="385" y="568"/>
      <point x="353.5" y="601"/>
    </contour>
    <contour>
      <point x="135" y="641" type="curve" smooth="yes"/>
      <point x="139" y="680"/>
      <point x="180" y="715"/>
      <point x="221" y="714" type="curve" smooth="yes"/>
      <point x="262.5" y="713"/>
      <point x="292.5" y="679"/>
      <point x="288" y="639" type="curve" smooth="yes"/>
      <point x="284" y="600"/>
      <point x="243.5" y="566"/>
      <point x="202.5" y="567" type="curve" smooth="yes"/>
      <point x="161" y="568"/>
      <point x="130.5" y="601"/>
    </contour>
  </outline>
</glyph>
<glyph name="copyright" format="2">
  <advance width="776"/>
  <unicode hex="00A9"/>
  <outline>
    <contour>
      <point x="303" y="350" type="curve" smooth="yes"/>
      <point x="292" y="276"/>
      <point x="334.5" y="216"/>
      <point x="409.5" y="215" type="curve" smooth="yes"/>
      <point x="465.5" y="214"/>
      <point x="510.5" y="241"/>
      <point x="545.5" y="271" type="curve"/>
      <point x="532.5" y="174" type="line"/>
      <point x="494.5" y="148"/>
      <point x="454.5" y="131.5"/>
      <point x="399.5" y="131.5" type="curve" smooth="yes"/>
      <point x="274" y="131.5"/>
      <point x="194" y="229.5"/>
      <point x="210" y="350" type="curve" smooth="yes"/>
      <point x="226" y="474"/>
      <point x="331.5" y="567.5"/>
      <point x="459.5" y="568.5" type="curve" smooth="yes"/>
      <point x="513" y="568.5"/>
      <point x="550.5" y="553"/>
      <point x="585.5" y="525" type="curve"/>
      <point x="571.5" y="428" type="line"/>
      <point x="544.5" y="461"/>
      <point x="510.5" y="486"/>
      <point x="458.5" y="486" type="curve" smooth="yes"/>
      <point x="381.5" y="486"/>
      <point x="315" y="428"/>
    </contour>
    <contour>
      <point x="129.5" y="350" type="curve" smooth="yes"/>
      <point x="105.5" y="189"/>
      <point x="202" y="41.5"/>
      <point x="373.5" y="40.5" type="curve" smooth="yes"/>
      <point x="548" y="39.5"/>
      <point x="694.5" y="181"/>
      <point x="720.5" y="350" type="curve" smooth="yes"/>
      <point x="744.5" y="511"/>
      <point x="648" y="658.5"/>
      <point x="476.5" y="659.5" type="curve" smooth="yes"/>
      <point x="302" y="660.5"/>
      <point x="155.5" y="519"/>
    </contour>
    <contour>
      <point x="74" y="350" type="curve" smooth="yes"/>
      <point x="101" y="550"/>
      <point x="272" y="710.5"/>
      <point x="476" y="710" type="curve" smooth="yes"/>
      <point x="677" y="709.5"/>
      <point x="800" y="542.5"/>
      <point x="775" y="350" type="curve" smooth="yes"/>
      <point x="748" y="150"/>
      <point x="577.5" y="-10.5"/>
      <point x="373.5" y="-10" type="curve" smooth="yes"/>
      <point x="172.5" y="-9.5"/>
      <point x="49" y="157.5"/>
    </contour>
  </outline>
</glyph>
<glyph name="ordfeminine" format="2">
  <advance width="252"/>
  <unicode hex="00AA"/>
  <outline>
    <contour>
      <point x="145" y="529.5" type="curve" smooth="yes"/>
      <point x="143" y="513.5"/>
      <point x="155" y="502"/>
      <point x="175" y="501" type="curve" smooth="yes"/>
      <point x="206" y="500"/>
      <point x="230.5" y="520.5"/>
      <point x="240" y="551.5" type="curve"/>
      <point x="243" y="523.5" type="line"/>
      <point x="231" y="483.5"/>
      <point x="198.5" y="454.5"/>
      <point x="150.5" y="455.5" type="curve" smooth="yes"/>
      <point x="106.5" y="456.5"/>
      <point x="74" y="485.5"/>
      <point x="80" y="530" type="curve" smooth="yes"/>
      <point x="87" y="576"/>
      <point x="138.5" y="606"/>
      <point x="187.5" y="606" type="curve" smooth="yes"/>
      <point x="220.5" y="606"/>
      <point x="245.5" y="592.5"/>
      <point x="261" y="579.5" type="curve"/>
      <point x="256" y="548" type="line"/>
      <point x="239" y="560"/>
      <point x="221.5" y="568.5"/>
      <point x="198" y="568" type="curve" smooth="yes"/>
      <point x="174" y="568"/>
      <point x="148" y="551"/>
    </contour>
    <contour>
      <point x="143" y="631" type="curve"/>
      <point x="126.5" y="679" type="line"/>
      <point x="154" y="691"/>
      <point x="188" y="705"/>
      <point x="226" y="705" type="curve" smooth="yes"/>
      <point x="278" y="705"/>
      <point x="318" y="680"/>
      <point x="314" y="631.5" type="curve"/>
      <point x="285" y="460" type="line"/>
      <point x="223" y="460.5" type="line"/>
      <point x="252" y="618" type="line"/>
      <point x="250" y="637.5"/>
      <point x="241" y="649"/>
      <point x="218" y="651" type="curve" smooth="yes"/>
      <point x="189" y="653"/>
      <point x="159.5" y="640"/>
    </contour>
  </outline>
</glyph>
<glyph name="guillemotleft" format="2">
  <advance width="515"/>
  <unicode hex="00AB"/>
  <outline>
    <contour>
      <point x="340.5" y="256.5" type="line"/>
      <point x="453.5" y="62.5" type="line"/>
      <point x="368" y="6" type="line"/>
      <point x="232" y="259" type="line"/>
      <point x="448" y="503" type="line"/>
      <point x="519" y="442" type="line"/>
    </contour>
    <contour>
      <point x="156" y="256.5" type="line"/>
      <point x="269" y="62.5" type="line"/>
      <point x="182" y="6" type="line"/>
      <point x="47" y="259" type="line"/>
      <point x="262" y="503" type="line"/>
      <point x="334.5" y="442" type="line"/>
    </contour>
  </outline>
</glyph>
<glyph name="logicalnot" format="2">
  <advance width="621"/>
  <unicode hex="00AC"/>
  <outline>
    <contour>
      <point x="83.5" y="280" type="line"/>
      <point x="102.5" y="394" type="line"/>
      <point x="601" y="394" type="line"/>
      <point x="563" y="175.5" type="line"/>
      <point x="467" y="175.5" type="line"/>
      <point x="487" y="280" type="line"/>
    </contour>
  </outline>
</glyph>
<glyph name="uni00AD" format="2">
  <advance width="203"/>
  <unicode hex="00AD"/>
  <outline>
    <contour>
      <point x="12.5" y="200.5" type="line"/>
      <point x="24.5" y="275" type="line"/>
      <point x="220.5" y="275" type="line"/>
      <point x="208.5" y="200.5" type="line"/>
    </contour>
  </outline>
</glyph>
<glyph name="registered" format="2">
  <advance width="776"/>
  <unicode hex="00AE"/>
  <outline>
    <contour>
      <point x="392" y="336.5" type="line"/>
      <point x="470.5" y="336.5" type="line"/>
      <point x="567.5" y="150" type="line"/>
      <point x="469.5" y="150" type="line"/>
    </contour>
    <contour>
      <point x="322" y="570" type="line"/>
      <point x="407.5" y="570" type="line"/>
      <point x="343" y="150" type="line"/>
      <point x="257" y="150" type="line"/>
    </contour>
    <contour>
      <point x="362" y="496" type="line"/>
      <point x="373" y="569.5" type="line"/>
      <point x="457.5" y="570" type="line"/>
      <point x="544" y="568"/>
      <point x="603.5" y="518.5"/>
      <point x="593.5" y="440" type="curve" smooth="yes"/>
      <point x="582.5" y="359"/>
      <point x="512.5" y="309.5"/>
      <point x="423" y="307.5" type="curve"/>
      <point x="332" y="307" type="line"/>
      <point x="343" y="374.5" type="line"/>
      <point x="422.5" y="375" type="line"/>
      <point x="463" y="377"/>
      <point x="500" y="397.5"/>
      <point x="506" y="436.5" type="curve" smooth="yes"/>
      <point x="511" y="474"/>
      <point x="484" y="494"/>
      <point x="445.5" y="496" type="curve"/>
    </contour>
    <contour>
      <point x="129.5" y="350" type="curve" smooth="yes"/>
      <point x="105.5" y="189"/>
      <point x="202" y="41.5"/>
      <point x="373.5" y="40.5" type="curve" smooth="yes"/>
      <point x="548" y="39.5"/>
      <point x="694.5" y="181"/>
      <point x="720.5" y="350" type="curve" smooth="yes"/>
      <point x="744.5" y="511"/>
      <point x="648" y="658.5"/>
      <point x="476.5" y="659.5" type="curve" smooth="yes"/>
      <point x="302" y="660.5"/>
      <point x="155.5" y="519"/>
    </contour>
    <contour>
      <point x="74" y="350" type="curve" smooth="yes"/>
      <point x="101" y="549.5"/>
      <point x="272" y="710.5"/>
      <point x="476" y="710" type="curve" smooth="yes"/>
      <point x="677" y="709.5"/>
      <point x="800" y="542.5"/>
      <point x="775" y="350" type="curve" smooth="yes"/>
      <point x="748" y="150.5"/>
      <point x="577.5" y="-10.5"/>
      <point x="373.5" y="-10" type="curve" smooth="yes"/>
      <point x="172.5" y="-9.5"/>
      <point x="49" y="157.5"/>
    </contour>
  </outline>
</glyph>
<glyph name="macron" format="2">
  <advance width="508"/>
  <unicode hex="00AF"/>
  <outline>
    <contour>
      <point x="149" y="580" type="line"/>
      <point x="167" y="694" type="line"/>
      <point x="524" y="694" type="line"/>
      <point x="506" y="580" type="line"/>
    </contour>
  </outline>
</glyph>
<glyph name="degree" format="2">
  <advance width="281"/>
  <unicode hex="00B0"/>
  <outline>
    <contour>
      <point x="91" y="598.5" type="curve" smooth="yes"/>
      <point x="100.5" y="666.5"/>
      <point x="162.5" y="719.5"/>
      <point x="233.5" y="719.5" type="curve" smooth="yes"/>
      <point x="304.5" y="719.5"/>
      <point x="350.5" y="665"/>
      <point x="341.5" y="597" type="curve" smooth="yes"/>
      <point x="332" y="528.5"/>
      <point x="270.5" y="476.5"/>
      <point x="199" y="476.5" type="curve" smooth="yes"/>
      <point x="128" y="476.5"/>
      <point x="82" y="530.5"/>
    </contour>
    <contour>
      <point x="154" y="597.5" type="curve" smooth="yes"/>
      <point x="149" y="564.5"/>
      <point x="168.5" y="534"/>
      <point x="202.5" y="533" type="curve" smooth="yes"/>
      <point x="238" y="532"/>
      <point x="271.5" y="562.5"/>
      <point x="277.5" y="598" type="curve" smooth="yes"/>
      <point x="282.5" y="631"/>
      <point x="264" y="662.5"/>
      <point x="230" y="663.5" type="curve" smooth="yes"/>
      <point x="194.5" y="664.5"/>
      <point x="160" y="633"/>
    </contour>
  </outline>
</glyph>
<glyph name="plusminus" format="2">
  <advance width="608"/>
  <unicode hex="00B1"/>
  <outline>
    <contour>
      <point x="46.5" y="4" type="line"/>
      <point x="63.5" y="119" type="line"/>
      <point x="550" y="119" type="line"/>
      <point x="532" y="4" type="line"/>
    </contour>
    <contour>
      <point x="97" y="336" type="line"/>
      <point x="115.5" y="456" type="line"/>
      <point x="602" y="456" type="line"/>
      <point x="583" y="336" type="line"/>
    </contour>
    <contour>
      <point x="317.5" y="620" type="line"/>
      <point x="449.5" y="620" type="line"/>
      <point x="379.5" y="172" type="line"/>
      <point x="249" y="172" type="line"/>
    </contour>
  </outline>
</glyph>
<glyph name="uni00B2" format="2">
  <advance width="377"/>
  <unicode hex="00B2"/>
  <outline>
    <contour>
      <point x="43" y="283" type="line"/>
      <point x="261" y="482" type="line" smooth="yes"/>
      <point x="292" y="511"/>
      <point x="323.5" y="538.5"/>
      <point x="329.5" y="575.5" type="curve" smooth="yes"/>
      <point x="333.5" y="603.5"/>
      <point x="319.5" y="632.5"/>
      <point x="283" y="634.5" type="curve" smooth="yes"/>
      <point x="237" y="637.5"/>
      <point x="207" y="593.5"/>
      <point x="197" y="551" type="curve"/>
      <point x="111.5" y="551" type="line"/>
      <point x="129.5" y="636.5"/>
      <point x="191" y="711"/>
      <point x="291" y="710" type="curve" smooth="yes"/>
      <point x="378" y="710"/>
      <point x="429" y="644.5"/>
      <point x="418" y="576.5" type="curve" smooth="yes"/>
      <point x="411" y="531"/>
      <point x="379.5" y="494"/>
      <point x="343" y="463.5" type="curve" smooth="yes"/>
      <point x="221" y="362" type="line"/>
      <point x="388" y="361" type="line"/>
      <point x="374" y="282" type="line"/>
    </contour>
  </outline>
</glyph>
<glyph name="uni00B3" format="2">
  <advance width="338"/>
  <unicode hex="00B3"/>
  <outline>
    <contour>
      <point x="201" y="485" type="curve"/>
      <point x="208" y="526" type="line"/>
      <point x="250.5" y="530"/>
      <point x="290.5" y="550"/>
      <point x="297.5" y="588" type="curve" smooth="yes"/>
      <point x="301.5" y="614"/>
      <point x="287" y="635.5"/>
      <point x="257" y="636.5" type="curve" smooth="yes"/>
      <point x="223" y="637.5"/>
      <point x="198" y="610.5"/>
      <point x="189" y="583" type="curve"/>
      <point x="109" y="584" type="line"/>
      <point x="125.5" y="653"/>
      <point x="181" y="707"/>
      <point x="262.5" y="707" type="curve" smooth="yes"/>
      <point x="339" y="707"/>
      <point x="391.5" y="657"/>
      <point x="381" y="591.5" type="curve" smooth="yes"/>
      <point x="368.5" y="516.5"/>
      <point x="285" y="488"/>
    </contour>
    <contour>
      <point x="192" y="271.5" type="curve" smooth="yes"/>
      <point x="102" y="271.5"/>
      <point x="56" y="332.5"/>
      <point x="60" y="407" type="curve"/>
      <point x="143.5" y="406.5" type="line"/>
      <point x="143.5" y="369.5"/>
      <point x="160.5" y="344.5"/>
      <point x="199" y="343.5" type="curve" smooth="yes"/>
      <point x="235.5" y="342.5"/>
      <point x="270.5" y="367"/>
      <point x="275.5" y="403" type="curve" smooth="yes"/>
      <point x="283.5" y="447"/>
      <point x="245" y="464.5"/>
      <point x="197" y="468" type="curve"/>
      <point x="204" y="512.5" type="line"/>
      <point x="290.5" y="509.5"/>
      <point x="372.5" y="480"/>
      <point x="359.5" y="393" type="curve" smooth="yes"/>
      <point x="348.5" y="319.5"/>
      <point x="276" y="271.5"/>
    </contour>
  </outline>
</glyph>
<glyph name="acute" format="2">
  <advance width="363"/>
  <unicode hex="00B4"/>
  <outline>
    <contour>
      <point x="389" y="653" type="line"/>
      <point x="193" y="506.5" type="line"/>
      <point x="123.5" y="547" type="line"/>
      <point x="292" y="703.5" type="line"/>
    </contour>
  </outline>
</glyph>
<glyph name="mu" format="2">
  <advance width="551"/>
  <unicode hex="00B5"/>
  <outline>
    <contour>
      <point x="245.5" y="460" type="line"/>
      <point x="196.5" y="191" type="line" smooth="yes"/>
      <point x="189.5" y="141.5"/>
      <point x="205.5" y="104"/>
      <point x="257" y="104" type="curve" smooth="yes"/>
      <point x="311" y="104"/>
      <point x="351" y="141.5"/>
      <point x="360" y="195.5" type="curve" smooth="yes"/>
      <point x="408" y="460" type="line"/>
      <point x="533.5" y="460" type="line"/>
      <point x="456" y="0" type="line"/>
      <point x="326" y="0" type="line"/>
      <point x="335" y="54.5" type="line"/>
      <point x="307" y="18"/>
      <point x="269" y="-5.5"/>
      <point x="226" y="-5.5" type="curve" smooth="yes"/>
      <point x="201" y="-5.5"/>
      <point x="181" y="-0.5"/>
      <point x="161" y="15" type="curve"/>
      <point x="104" y="-320" type="line"/>
      <point x="-20" y="-320" type="line"/>
      <point x="113" y="460" type="line"/>
    </contour>
  </outline>
</glyph>
<glyph name="paragraph" format="2">
  <advance width="623"/>
  <unicode hex="00B6"/>
  <outline>
    <contour>
      <point x="298" y="271" type="line"/>
      <point x="177.5" y="278.5"/>
      <point x="94" y="357"/>
      <point x="113" y="485.5" type="curve" smooth="yes"/>
      <point x="134" y="620"/>
      <point x="243" y="700"/>
      <point x="371" y="700" type="curve" smooth="yes"/>
      <point x="660" y="700" type="line"/>
      <point x="503" y="-220" type="line"/>
      <point x="390.5" y="-220" type="line"/>
      <point x="533" y="616" type="line"/>
      <point x="469" y="616" type="line"/>
      <point x="326" y="-220" type="line"/>
      <point x="214" y="-220" type="line"/>
    </contour>
  </outline>
</glyph>
<glyph name="periodcentered" format="2">
  <advance width="305"/>
  <unicode hex="00B7"/>
  <outline>
    <contour>
      <point x="90" y="261" type="curve" smooth="yes"/>
      <point x="95.5" y="303"/>
      <point x="137" y="341.5"/>
      <point x="182" y="340.5" type="curve" smooth="yes"/>
      <point x="227.5" y="339.5"/>
      <point x="256.5" y="301"/>
      <point x="251" y="259" type="curve" smooth="yes"/>
      <point x="245.5" y="217"/>
      <point x="204" y="178"/>
      <point x="159" y="179" type="curve" smooth="yes"/>
      <point x="113.5" y="180"/>
      <point x="84.5" y="219"/>
    </contour>
  </outline>
</glyph>
<glyph name="cedilla" format="2">
  <advance width="368"/>
  <unicode hex="00B8"/>
  <outline>
    <contour>
      <point x="164" y="67" type="line"/>
      <point x="261" y="65" type="line"/>
      <point x="160.5" y="-54" type="line"/>
      <point x="168.5" y="-52"/>
      <point x="176.5" y="-52"/>
      <point x="185.5" y="-52" type="curve" smooth="yes"/>
      <point x="228.5" y="-55"/>
      <point x="264" y="-89.5"/>
      <point x="258" y="-143" type="curve" smooth="yes"/>
      <point x="250" y="-208"/>
      <point x="182" y="-245"/>
      <point x="122" y="-245.5" type="curve" smooth="yes"/>
      <point x="74.5" y="-246.5"/>
      <point x="40" y="-233"/>
      <point x="1" y="-205.5" type="curve"/>
      <point x="49" y="-148" type="line"/>
      <point x="69.5" y="-163"/>
      <point x="92" y="-172"/>
      <point x="114.5" y="-172" type="curve" smooth="yes"/>
      <point x="141.5" y="-172"/>
      <point x="173" y="-158"/>
      <point x="175" y="-135" type="curve" smooth="yes"/>
      <point x="177" y="-111.5"/>
      <point x="151" y="-102.5"/>
      <point x="127.5" y="-102" type="curve" smooth="yes"/>
      <point x="109.5" y="-101"/>
      <point x="78.5" y="-107.5"/>
      <point x="50" y="-117.5" type="curve"/>
    </contour>
  </outline>
</glyph>
<glyph name="uni00B9" format="2">
  <advance width="463"/>
  <unicode hex="00B9"/>
  <outline>
    <contour>
      <point x="206" y="584" type="line"/>
      <point x="219" y="662" type="line"/>
      <point x="409" y="702.5" type="line"/>
      <point x="335" y="274" type="line"/>
      <point x="251" y="274" type="line"/>
      <point x="308" y="609" type="line"/>
    </contour>
  </outline>
</glyph>
<glyph name="ordmasculine" format="2">
  <advance width="269"/>
  <unicode hex="00BA"/>
  <outline>
    <contour>
      <point x="90" y="581" type="curve" smooth="yes"/>
      <point x="99.5" y="649"/>
      <point x="159.5" y="699.5"/>
      <point x="230.5" y="699.5" type="curve" smooth="yes"/>
      <point x="301.5" y="699.5"/>
      <point x="348.5" y="647"/>
      <point x="339.5" y="579" type="curve" smooth="yes"/>
      <point x="330" y="510.5"/>
      <point x="268" y="460.5"/>
      <point x="197" y="460.5" type="curve" smooth="yes"/>
      <point x="126" y="460.5"/>
      <point x="81" y="513"/>
    </contour>
    <contour>
      <point x="154.5" y="580" type="curve" smooth="yes"/>
      <point x="149.5" y="547.5"/>
      <point x="167" y="517"/>
      <point x="200" y="516" type="curve" smooth="yes"/>
      <point x="234" y="515"/>
      <point x="268" y="545"/>
      <point x="273.5" y="580" type="curve" smooth="yes"/>
      <point x="278.5" y="612.5"/>
      <point x="260.5" y="643.5"/>
      <point x="227.5" y="644.5" type="curve" smooth="yes"/>
      <point x="193.5" y="645.5"/>
      <point x="160" y="615"/>
    </contour>
  </outline>
</glyph>
<glyph name="guillemotright" format="2">
  <advance width="515"/>
  <unicode hex="00BB"/>
  <outline>
    <contour>
      <point x="208" y="253.5" type="line"/>
      <point x="95" y="447.5" type="line"/>
      <point x="181" y="504" type="line"/>
      <point x="317" y="251" type="line"/>
      <point x="102" y="7" type="line"/>
      <point x="30" y="68" type="line"/>
    </contour>
    <contour>
      <point x="393.5" y="253.5" type="line"/>
      <point x="280" y="447.5" type="line"/>
      <point x="366.5" y="504" type="line"/>
      <point x="502.5" y="251" type="line"/>
      <point x="286.5" y="7" type="line"/>
      <point x="214" y="68" type="line"/>
    </contour>
  </outline>
</glyph>
<glyph name="onequarter" format="2">
  <advance width="777"/>
  <unicode hex="00BC"/>
  <outline>
    <contour>
      <point x="697" y="699" type="line"/>
      <point x="788" y="699" type="line"/>
      <point x="164" y="0" type="line"/>
      <point x="73.5" y="0" type="line"/>
    </contour>
    <contour>
      <point x="96.5" y="584" type="line"/>
      <point x="110" y="662" type="line"/>
      <point x="299" y="702.5" type="line"/>
      <point x="225" y="274" type="line"/>
      <point x="141" y="274" type="line"/>
      <point x="198" y="609" type="line"/>
    </contour>
    <contour>
      <point x="375.5" y="78.5" type="line"/>
      <point x="454.5" y="141" type="line"/>
      <point x="633" y="142" type="line"/>
      <point x="645" y="152" type="line"/>
      <point x="747" y="151" type="line"/>
      <point x="734" y="78" type="line"/>
    </contour>
    <contour>
      <point x="470" y="99" type="line"/>
      <point x="373" y="76.5" type="line"/>
      <point x="667.5" y="419" type="line"/>
      <point x="729" y="420" type="line"/>
      <point x="657" y="0" type="line"/>
      <point x="568" y="0" type="line"/>
      <point x="585" y="99.5" type="line"/>
      <point x="593.5" y="105.5" type="line"/>
      <point x="622.5" y="275.5" type="line"/>
    </contour>
  </outline>
</glyph>
<glyph name="onehalf" format="2">
  <advance width="845"/>
  <unicode hex="00BD"/>
  <outline>
    <contour>
      <point x="697" y="699" type="line"/>
      <point x="788" y="699" type="line"/>
      <point x="164" y="0" type="line"/>
      <point x="73.5" y="0" type="line"/>
    </contour>
    <contour>
      <point x="96.5" y="584" type="line"/>
      <point x="110" y="662" type="line"/>
      <point x="299" y="702.5" type="line"/>
      <point x="225" y="274" type="line"/>
      <point x="141" y="274" type="line"/>
      <point x="198" y="609" type="line"/>
    </contour>
    <contour>
      <point x="458" y="3" type="line"/>
      <point x="676" y="202" type="line" smooth="yes"/>
      <point x="707" y="231"/>
      <point x="739" y="258.5"/>
      <point x="745" y="295.5" type="curve" smooth="yes"/>
      <point x="749" y="323.5"/>
      <point x="734.5" y="352"/>
      <point x="698" y="354" type="curve" smooth="yes"/>
      <point x="652" y="357"/>
      <point x="621.5" y="313.5"/>
      <point x="611.5" y="271" type="curve"/>
      <point x="527" y="271" type="line"/>
      <point x="545" y="356.5"/>
      <point x="606" y="431"/>
      <point x="706" y="430" type="curve" smooth="yes"/>
      <point x="793" y="430"/>
      <point x="843" y="364.5"/>
      <point x="832" y="296.5" type="curve" smooth="yes"/>
      <point x="825" y="251"/>
      <point x="794" y="214"/>
      <point x="757.5" y="183.5" type="curve" smooth="yes"/>
      <point x="636.5" y="82" type="line"/>
      <point x="803" y="81" type="line"/>
      <point x="789" y="2" type="line"/>
    </contour>
  </outline>
</glyph>
<glyph name="threequarters" format="2">
  <advance width="835"/>
  <unicode hex="00BE"/>
  <outline>
    <contour>
      <point x="760.5" y="699" type="line"/>
      <point x="850" y="699" type="line"/>
      <point x="226" y="0" type="line"/>
      <point x="137" y="0" type="line"/>
    </contour>
    <contour>
      <point x="208.5" y="485" type="curve"/>
      <point x="214.5" y="526" type="line"/>
      <point x="257" y="530"/>
      <point x="297.5" y="550"/>
      <point x="304.5" y="588" type="curve" smooth="yes"/>
      <point x="308.5" y="614"/>
      <point x="294" y="635.5"/>
      <point x="264" y="636.5" type="curve" smooth="yes"/>
      <point x="230" y="637.5"/>
      <point x="205.5" y="610.5"/>
      <point x="196.5" y="583" type="curve"/>
      <point x="115.5" y="584" type="line"/>
      <point x="132" y="653"/>
      <point x="188" y="707"/>
      <point x="269.5" y="707" type="curve" smooth="yes"/>
      <point x="346" y="707"/>
      <point x="399" y="657"/>
      <point x="388.5" y="591.5" type="curve" smooth="yes"/>
      <point x="376" y="516.5"/>
      <point x="292.5" y="488"/>
    </contour>
    <contour>
      <point x="198.5" y="271.5" type="curve" smooth="yes"/>
      <point x="108.5" y="271.5"/>
      <point x="63.5" y="332.5"/>
      <point x="67.5" y="407" type="curve"/>
      <point x="150.5" y="406.5" type="line"/>
      <point x="150.5" y="369.5"/>
      <point x="167.5" y="344.5"/>
      <point x="206" y="343.5" type="curve" smooth="yes"/>
      <point x="242.5" y="342.5"/>
      <point x="278" y="367"/>
      <point x="283" y="403" type="curve" smooth="yes"/>
      <point x="291" y="447"/>
      <point x="252" y="464.5"/>
      <point x="204" y="468" type="curve"/>
      <point x="211.5" y="512.5" type="line"/>
      <point x="298" y="509.5"/>
      <point x="379.5" y="480"/>
      <point x="366.5" y="393" type="curve" smooth="yes"/>
      <point x="355.5" y="319.5"/>
      <point x="282.5" y="271.5"/>
    </contour>
    <contour>
      <point x="434" y="78.5" type="line"/>
      <point x="513" y="141" type="line"/>
      <point x="692" y="142" type="line"/>
      <point x="704" y="152" type="line"/>
      <point x="805.5" y="151" type="line"/>
      <point x="793" y="78" type="line"/>
    </contour>
    <contour>
      <point x="528" y="99" type="line"/>
      <point x="431.5" y="76.5" type="line"/>
      <point x="726.5" y="419" type="line"/>
      <point x="787.5" y="420" type="line"/>
      <point x="715" y="0" type="line"/>
      <point x="627" y="0" type="line"/>
      <point x="644" y="99.5" type="line"/>
      <point x="653" y="105.5" type="line"/>
      <point x="682" y="275.5" type="line"/>
    </contour>
  </outline>
</glyph>
<glyph name="questiondown" format="2">
  <advance width="587"/>
  <unicode hex="00BF"/>
  <outline>
    <contour>
      <point x="188.5" y="200" type="curve" smooth="yes"/>
      <point x="178.5" y="138"/>
      <point x="217.5" y="97.5"/>
      <point x="286" y="96.5" type="curve" smooth="yes"/>
      <point x="351" y="95.5"/>
      <point x="409.5" y="133"/>
      <point x="451" y="181" type="curve"/>
      <point x="531.5" y="108" type="line"/>
      <point x="460.5" y="35.5"/>
      <point x="378" y="-17"/>
      <point x="265.5" y="-16" type="curve" smooth="yes"/>
      <point x="140.5" y="-15"/>
      <point x="41.5" y="74.5"/>
      <point x="60" y="200.5" type="curve" smooth="yes"/>
      <point x="79" y="320.5"/>
      <point x="189" y="394"/>
      <point x="301" y="414" type="curve"/>
      <point x="323.5" y="508" type="line"/>
      <point x="427.5" y="508" type="line"/>
      <point x="418" y="331" type="line"/>
      <point x="390" y="331" type="line"/>
      <point x="289" y="329"/>
      <point x="203.5" y="271.5"/>
    </contour>
    <contour>
      <point x="480" y="645" type="curve" smooth="yes"/>
      <point x="475" y="606"/>
      <point x="431.5" y="571.5"/>
      <point x="388.5" y="572.5" type="curve" smooth="yes"/>
      <point x="344.5" y="573.5"/>
      <point x="313.5" y="607"/>
      <point x="318.5" y="647" type="curve" smooth="yes"/>
      <point x="323.5" y="686"/>
      <point x="366" y="722"/>
      <point x="409" y="721" type="curve" smooth="yes"/>
      <point x="453" y="720"/>
      <point x="485" y="685"/>
    </contour>
  </outline>
</glyph>
<glyph name="Agrave" format="2">
  <advance width="690"/>
  <unicode hex="00C0"/>
  <outline>
    <contour>
      <point x="167" y="158.5" type="line"/>
      <point x="203" y="271.5" type="line"/>
      <point x="531" y="272" type="line"/>
      <point x="528" y="158" type="line"/>
    </contour>
    <contour>
      <point x="402" y="472" type="line"/>
      <point x="259" y="230.5" type="line"/>
      <point x="257" y="198.5" type="line"/>
      <point x="134" y="0" type="line"/>
      <point x="-29.5" y="0" type="line"/>
      <point x="444.5" y="744" type="line"/>
      <point x="663" y="0" type="line"/>
      <point x="506.5" y="0" type="line"/>
      <point x="452" y="192.5" type="line"/>
      <point x="460" y="229" type="line"/>
    </contour>
    <contour>
      <point x="333" y="954" type="line"/>
      <point x="440" y="1000.5" type="line"/>
      <point x="561" y="838" type="line"/>
      <point x="486" y="802" type="line"/>
    </contour>
  </outline>
</glyph>
<glyph name="Atilde" format="2">
  <advance width="690"/>
  <unicode hex="00C3"/>
  <outline>
    <contour>
      <point x="167" y="158.5" type="line"/>
      <point x="203" y="271.5" type="line"/>
      <point x="531" y="272" type="line"/>
      <point x="528" y="158" type="line"/>
    </contour>
    <contour>
      <point x="402" y="472" type="line"/>
      <point x="259" y="230.5" type="line"/>
      <point x="257" y="198.5" type="line"/>
      <point x="134" y="0" type="line"/>
      <point x="-29.5" y="0" type="line"/>
      <point x="444.5" y="744" type="line"/>
      <point x="663" y="0" type="line"/>
      <point x="506.5" y="0" type="line"/>
      <point x="452" y="192.5" type="line"/>
      <point x="460" y="229" type="line"/>
    </contour>
    <contour>
      <point x="280.5" y="849" type="line"/>
      <point x="301" y="894.5"/>
      <point x="347" y="939"/>
      <point x="405" y="937.5" type="curve" smooth="yes"/>
      <point x="459" y="936.5"/>
      <point x="476.5" y="887.5"/>
      <point x="525.5" y="889" type="curve" smooth="yes"/>
      <point x="552.5" y="890"/>
      <point x="575" y="913.5"/>
      <point x="596" y="939" type="curve"/>
      <point x="650.5" y="872" type="line"/>
      <point x="625.5" y="835.5"/>
      <point x="574" y="791"/>
      <point x="518" y="793" type="curve" smooth="yes"/>
      <point x="470" y="795"/>
      <point x="441.5" y="845.5"/>
      <point x="396.5" y="843" type="curve" smooth="yes"/>
      <point x="362" y="841"/>
      <point x="348.5" y="811.5"/>
      <point x="340" y="793.5" type="curve"/>
    </contour>
  </outline>
</glyph>
<glyph name="Adieresis" format="2">
  <advance width="690"/>
  <unicode hex="00C4"/>
  <outline>
    <contour>
      <point x="167" y="158.5" type="line"/>
      <point x="203" y="271.5" type="line"/>
      <point x="531" y="272" type="line"/>
      <point x="528" y="158" type="line"/>
    </contour>
    <contour>
      <point x="402" y="472" type="line"/>
      <point x="259" y="230.5" type="line"/>
      <point x="257" y="198.5" type="line"/>
      <point x="134" y="0" type="line"/>
      <point x="-29.5" y="0" type="line"/>
      <point x="444.5" y="744" type="line"/>
      <point x="663" y="0" type="line"/>
      <point x="506.5" y="0" type="line"/>
      <point x="452" y="192.5" type="line"/>
      <point x="460" y="229" type="line"/>
    </contour>
    <contour>
      <point x="509" y="837" type="curve" smooth="yes"/>
      <point x="514" y="876"/>
      <point x="555" y="910.5"/>
      <point x="596" y="909.5" type="curve" smooth="yes"/>
      <point x="637.5" y="908.5"/>
      <point x="667" y="875"/>
      <point x="662" y="835" type="curve" smooth="yes"/>
      <point x="657" y="796"/>
      <point x="616" y="761.5"/>
      <point x="575" y="762.5" type="curve" smooth="yes"/>
      <point x="533.5" y="763.5"/>
      <point x="504" y="797"/>
    </contour>
    <contour>
      <point x="256.5" y="841.5" type="curve" smooth="yes"/>
      <point x="261.5" y="880.5"/>
      <point x="303" y="914.5"/>
      <point x="344" y="913.5" type="curve" smooth="yes"/>
      <point x="385.5" y="912.5"/>
      <point x="415" y="879"/>
      <point x="410" y="839" type="curve" smooth="yes"/>
      <point x="405" y="800"/>
      <point x="364" y="766"/>
      <point x="323" y="767" type="curve" smooth="yes"/>
      <point x="281.5" y="768"/>
      <point x="251.5" y="801.5"/>
    </contour>
  </outline>
</glyph>
<glyph name="Aring" format="2">
  <advance width="690"/>
  <unicode hex="00C5"/>
  <outline>
    <contour>
      <point x="167" y="158.5" type="line"/>
      <point x="203" y="271.5" type="line"/>
      <point x="531" y="272" type="line"/>
      <point x="528" y="158" type="line"/>
    </contour>
    <contour>
      <point x="402" y="472" type="line"/>
      <point x="259" y="230.5" type="line"/>
      <point x="257" y="198.5" type="line"/>
      <point x="134" y="0" type="line"/>
      <point x="-29.5" y="0" type="line"/>
      <point x="444.5" y="744" type="line"/>
      <point x="663" y="0" type="line"/>
      <point x="506.5" y="0" type="line"/>
      <point x="452" y="192.5" type="line"/>
      <point x="460" y="229" type="line"/>
    </contour>
    <contour>
      <point x="339.5" y="801" type="curve" smooth="yes"/>
      <point x="348" y="863"/>
      <point x="407.5" y="910"/>
      <point x="470.5" y="910" type="curve" smooth="yes"/>
      <point x="533.5" y="910"/>
      <point x="579.5" y="861.5"/>
      <point x="571" y="799" type="curve" smooth="yes"/>
      <point x="562.5" y="737"/>
      <point x="502" y="689.5"/>
      <point x="439" y="689.5" type="curve" smooth="yes"/>
      <point x="376" y="689.5"/>
      <point x="331" y="739"/>
    </contour>
    <contour>
      <point x="408" y="799" type="curve" smooth="yes"/>
      <point x="405" y="774.5"/>
      <point x="421" y="752"/>
      <point x="444" y="751" type="curve" smooth="yes"/>
      <point x="468.5" y="749"/>
      <point x="498" y="775"/>
      <point x="501" y="800.5" type="curve" smooth="yes"/>
      <point x="504" y="825"/>
      <point x="488.5" y="847.5"/>
      <point x="465.5" y="848.5" type="curve" smooth="yes"/>
      <point x="441" y="850.5"/>
      <point x="411" y="824.5"/>
    </contour>
  </outline>
</glyph>
<glyph name="AE" format="2">
  <advance width="1015"/>
  <unicode hex="00C6"/>
  <outline>
    <contour>
      <point x="247" y="168.5" type="line"/>
      <point x="274" y="301" type="line"/>
      <point x="568" y="301" type="line"/>
      <point x="545" y="168" type="line"/>
    </contour>
    <contour>
      <point x="519.5" y="700" type="line"/>
      <point x="642.5" y="658" type="line"/>
      <point x="160" y="0" type="line"/>
      <point x="-18" y="0" type="line"/>
    </contour>
    <contour>
      <point x="557.5" y="0" type="line"/>
      <point x="578" y="122" type="line"/>
      <point x="944" y="122" type="line"/>
      <point x="923" y="0" type="line"/>
    </contour>
    <contour>
      <point x="668" y="578" type="line"/>
      <point x="519.5" y="700" type="line"/>
      <point x="1043" y="700" type="line"/>
      <point x="1022" y="578" type="line"/>
    </contour>
    <contour>
      <point x="610.5" y="312" type="line"/>
      <point x="630.5" y="431" type="line"/>
      <point x="978" y="431" type="line"/>
      <point x="957" y="312" type="line"/>
    </contour>
    <contour>
      <point x="607" y="700" type="line"/>
      <point x="758" y="700" type="line"/>
      <point x="638" y="0" type="line"/>
      <point x="488" y="0" type="line"/>
    </contour>
  </outline>
</glyph>
<glyph name="Ccedilla" format="2">
  <advance width="674"/>
  <unicode hex="00C7"/>
  <outline>
    <contour>
      <point x="220" y="350" type="curve" smooth="yes"/>
      <point x="200.5" y="228"/>
      <point x="271" y="126"/>
      <point x="394" y="124.5" type="curve" smooth="yes"/>
      <point x="487.5" y="123.5"/>
      <point x="562.5" y="168"/>
      <point x="621" y="219" type="curve"/>
      <point x="597" y="58" type="line"/>
      <point x="533.5" y="13.5"/>
      <point x="465.5" y="-14"/>
      <point x="373" y="-14" type="curve" smooth="yes"/>
      <point x="163" y="-13"/>
      <point x="37" y="151"/>
      <point x="66" y="350" type="curve" smooth="yes"/>
      <point x="97.5" y="557"/>
      <point x="274" y="714"/>
      <point x="488" y="714" type="curve" smooth="yes"/>
      <point x="576" y="714"/>
      <point x="637.5" y="688.5"/>
      <point x="694" y="641" type="curve"/>
      <point x="669" y="480" type="line"/>
      <point x="626.5" y="538"/>
      <point x="566" y="575.5"/>
      <point x="479.5" y="575.5" type="curve" smooth="yes"/>
      <point x="354.5" y="575"/>
      <point x="242" y="478.5"/>
    </contour>
    <contour>
      <point x="332" y="51" type="line"/>
      <point x="430" y="48" type="line"/>
      <point x="329" y="-70" type="line"/>
      <point x="337" y="-68"/>
      <point x="345.5" y="-68"/>
      <point x="354.5" y="-68" type="curve" smooth="yes"/>
      <point x="397" y="-71"/>
      <point x="433" y="-106"/>
      <point x="426.5" y="-159" type="curve" smooth="yes"/>
      <point x="418" y="-223"/>
      <point x="351.5" y="-261"/>
      <point x="291.5" y="-262" type="curve" smooth="yes"/>
      <point x="244" y="-263"/>
      <point x="208.5" y="-249"/>
      <point x="169.5" y="-222" type="curve"/>
      <point x="218.5" y="-164.5" type="line"/>
      <point x="239" y="-179.5"/>
      <point x="261.5" y="-188"/>
      <point x="284" y="-188" type="curve" smooth="yes"/>
      <point x="311" y="-188"/>
      <point x="343" y="-174"/>
      <point x="345" y="-151" type="curve" smooth="yes"/>
      <point x="347" y="-127.5"/>
      <point x="320.5" y="-118.5"/>
      <point x="297" y="-118" type="curve" smooth="yes"/>
      <point x="279" y="-117"/>
      <point x="247" y="-124.5"/>
      <point x="218.5" y="-134.5" type="curve"/>
    </contour>
  </outline>
</glyph>
<glyph name="Egrave" format="2">
  <advance width="569"/>
  <unicode hex="00C8"/>
  <outline>
    <contour>
      <point x="135" y="0" type="line"/>
      <point x="156" y="122" type="line"/>
      <point x="502" y="122" type="line"/>
      <point x="481" y="0" type="line"/>
    </contour>
    <contour>
      <point x="234" y="578.5" type="line"/>
      <point x="255" y="700" type="line"/>
      <point x="600.5" y="700" type="line"/>
      <point x="579.5" y="578" type="line"/>
    </contour>
    <contour>
      <point x="189" y="312" type="line"/>
      <point x="209" y="431" type="line"/>
      <point x="535" y="431" type="line"/>
      <point x="514" y="312" type="line"/>
    </contour>
    <contour>
      <point x="164.5" y="700" type="line"/>
      <point x="303" y="700" type="line"/>
      <point x="183" y="0" type="line"/>
      <point x="46" y="0" type="line"/>
    </contour>
    <contour>
      <point x="273" y="930" type="line"/>
      <point x="380" y="978" type="line"/>
      <point x="500.5" y="816" type="line"/>
      <point x="426" y="778" type="line"/>
    </contour>
  </outline>
</glyph>
<glyph name="Eacute" format="2">
  <advance width="569"/>
  <unicode hex="00C9"/>
  <outline>
    <contour>
      <point x="135" y="0" type="line"/>
      <point x="156" y="122" type="line"/>
      <point x="502" y="122" type="line"/>
      <point x="481" y="0" type="line"/>
    </contour>
    <contour>
      <point x="234" y="578.5" type="line"/>
      <point x="255" y="700" type="line"/>
      <point x="600.5" y="700" type="line"/>
      <point x="579.5" y="578" type="line"/>
    </contour>
    <contour>
      <point x="189" y="312" type="line"/>
      <point x="209" y="431" type="line"/>
      <point x="535" y="431" type="line"/>
      <point x="514" y="312" type="line"/>
    </contour>
    <contour>
      <point x="164.5" y="700" type="line"/>
      <point x="303" y="700" type="line"/>
      <point x="183" y="0" type="line"/>
      <point x="46" y="0" type="line"/>
    </contour>
    <contour>
      <point x="567.5" y="925" type="line"/>
      <point x="369.5" y="779" type="line"/>
      <point x="300.5" y="820" type="line"/>
      <point x="471.5" y="977" type="line"/>
    </contour>
  </outline>
</glyph>
<glyph name="Ecircumflex" format="2">
  <advance width="569"/>
  <unicode hex="00CA"/>
  <outline>
    <contour>
      <point x="135" y="0" type="line"/>
      <point x="156" y="122" type="line"/>
      <point x="502" y="122" type="line"/>
      <point x="481" y="0" type="line"/>
    </contour>
    <contour>
      <point x="234" y="578.5" type="line"/>
      <point x="255" y="700" type="line"/>
      <point x="600.5" y="700" type="line"/>
      <point x="579.5" y="578" type="line"/>
    </contour>
    <contour>
      <point x="189" y="312" type="line"/>
      <point x="209" y="431" type="line"/>
      <point x="535" y="431" type="line"/>
      <point x="514" y="312" type="line"/>
    </contour>
    <contour>
      <point x="164.5" y="700" type="line"/>
      <point x="303" y="700" type="line"/>
      <point x="183" y="0" type="line"/>
      <point x="46" y="0" type="line"/>
    </contour>
    <contour>
      <point x="415" y="862" type="line"/>
      <point x="305.5" y="774.5" type="line"/>
      <point x="226" y="838.5" type="line"/>
      <point x="428" y="976" type="line"/>
      <point x="588.5" y="834" type="line"/>
      <point x="494" y="774" type="line"/>
    </contour>
  </outline>
</glyph>
<glyph name="Edieresis" format="2">
  <advance width="569"/>
  <unicode hex="00CB"/>
  <outline>
    <contour>
      <point x="135" y="0" type="line"/>
      <point x="156" y="122" type="line"/>
      <point x="502" y="122" type="line"/>
      <point x="481" y="0" type="line"/>
    </contour>
    <contour>
      <point x="234" y="578.5" type="line"/>
      <point x="255" y="700" type="line"/>
      <point x="600.5" y="700" type="line"/>
      <point x="579.5" y="578" type="line"/>
    </contour>
    <contour>
      <point x="189" y="312" type="line"/>
      <point x="209" y="431" type="line"/>
      <point x="535" y="431" type="line"/>
      <point x="514" y="312" type="line"/>
    </contour>
    <contour>
      <point x="164.5" y="700" type="line"/>
      <point x="303" y="700" type="line"/>
      <point x="183" y="0" type="line"/>
      <point x="46" y="0" type="line"/>
    </contour>
    <contour>
      <point x="450" y="861" type="curve" smooth="yes"/>
      <point x="455" y="900"/>
      <point x="496" y="934"/>
      <point x="537" y="933" type="curve" smooth="yes"/>
      <point x="578.5" y="932"/>
      <point x="609" y="898.5"/>
      <point x="604" y="858.5" type="curve" smooth="yes"/>
      <point x="599" y="819.5"/>
      <point x="558" y="785.5"/>
      <point x="517" y="786.5" type="curve" smooth="yes"/>
      <point x="475.5" y="787.5"/>
      <point x="445" y="821"/>
    </contour>
    <contour>
      <point x="226.5" y="861" type="curve" smooth="yes"/>
      <point x="231.5" y="900"/>
      <point x="272" y="934"/>
      <point x="313" y="933" type="curve" smooth="yes"/>
      <point x="354.5" y="932"/>
      <point x="385" y="898.5"/>
      <point x="380" y="858.5" type="curve" smooth="yes"/>
      <point x="375" y="819.5"/>
      <point x="334.5" y="785.5"/>
      <point x="293.5" y="786.5" type="curve" smooth="yes"/>
      <point x="252" y="787.5"/>
      <point x="221.5" y="821"/>
    </contour>
  </outline>
</glyph>
<glyph name="Igrave" format="2">
  <advance width="288"/>
  <unicode hex="00CC"/>
  <outline>
    <contour>
      <point x="164.5" y="700" type="line"/>
      <point x="309.5" y="700" type="line"/>
      <point x="189" y="0" type="line"/>
      <point x="46" y="0" type="line"/>
    </contour>
    <contour>
      <point x="123.5" y="930" type="line"/>
      <point x="230.5" y="978" type="line"/>
      <point x="351" y="816" type="line"/>
      <point x="276" y="778" type="line"/>
    </contour>
  </outline>
</glyph>
<glyph name="Iacute" format="2">
  <advance width="288"/>
  <unicode hex="00CD"/>
  <outline>
    <contour>
      <point x="164.5" y="700" type="line"/>
      <point x="309.5" y="700" type="line"/>
      <point x="189" y="0" type="line"/>
      <point x="46" y="0" type="line"/>
    </contour>
    <contour>
      <point x="418" y="925" type="line"/>
      <point x="220" y="779" type="line"/>
      <point x="151.5" y="820" type="line"/>
      <point x="322.5" y="977" type="line"/>
    </contour>
  </outline>
</glyph>
<glyph name="Icircumflex" format="2">
  <advance width="288"/>
  <unicode hex="00CE"/>
  <outline>
    <contour>
      <point x="164.5" y="700" type="line"/>
      <point x="309.5" y="700" type="line"/>
      <point x="189" y="0" type="line"/>
      <point x="46" y="0" type="line"/>
    </contour>
    <contour>
      <point x="268" y="869.5" type="line"/>
      <point x="151" y="779" type="line"/>
      <point x="86" y="832" type="line"/>
      <point x="276" y="970" type="line"/>
      <point x="424" y="828" type="line"/>
      <point x="353" y="779" type="line"/>
    </contour>
  </outline>
</glyph>
<glyph name="Idieresis" format="2">
  <advance width="288"/>
  <unicode hex="00CF"/>
  <outline>
    <contour>
      <point x="164.5" y="700" type="line"/>
      <point x="309.5" y="700" type="line"/>
      <point x="189" y="0" type="line"/>
      <point x="46" y="0" type="line"/>
    </contour>
    <contour>
      <point x="297.5" y="849.5" type="curve" smooth="yes"/>
      <point x="302.5" y="888.5"/>
      <point x="343" y="922.5"/>
      <point x="384" y="921.5" type="curve" smooth="yes"/>
      <point x="425.5" y="920.5"/>
      <point x="456" y="887"/>
      <point x="451" y="847" type="curve" smooth="yes"/>
      <point x="446" y="808"/>
      <point x="405" y="773.5"/>
      <point x="364" y="774.5" type="curve" smooth="yes"/>
      <point x="322" y="775.5"/>
      <point x="292.5" y="809.5"/>
    </contour>
    <contour>
      <point x="74" y="849.5" type="curve" smooth="yes"/>
      <point x="79" y="888.5"/>
      <point x="118.5" y="922.5"/>
      <point x="159.5" y="921.5" type="curve" smooth="yes"/>
      <point x="201" y="920.5"/>
      <point x="232" y="887"/>
      <point x="227" y="847" type="curve" smooth="yes"/>
      <point x="222" y="808"/>
      <point x="180.5" y="773.5"/>
      <point x="139.5" y="774.5" type="curve" smooth="yes"/>
      <point x="97.5" y="775.5"/>
      <point x="69" y="809.5"/>
    </contour>
  </outline>
</glyph>
<glyph name="Eth" format="2">
  <advance width="695"/>
  <unicode hex="00D0"/>
  <outline>
    <contour>
      <point x="30" y="305" type="line"/>
      <point x="46" y="397" type="line"/>
      <point x="372.5" y="397" type="line"/>
      <point x="356.5" y="304" type="line"/>
    </contour>
    <contour>
      <point x="164.5" y="700" type="line"/>
      <point x="311" y="700" type="line"/>
      <point x="191" y="0" type="line"/>
      <point x="46" y="0" type="line"/>
    </contour>
    <contour>
      <point x="282" y="0" type="curve"/>
      <point x="134.5" y="0" type="line"/>
      <point x="157.5" y="131" type="line"/>
      <point x="292" y="131" type="line"/>
      <point x="420.5" y="134"/>
      <point x="526.5" y="211"/>
      <point x="549.5" y="350" type="curve" smooth="yes"/>
      <point x="570.5" y="483.5"/>
      <point x="500.5" y="566"/>
      <point x="375" y="569" type="curve"/>
      <point x="232" y="569.5" type="line"/>
      <point x="255" y="700" type="line"/>
      <point x="393" y="700" type="line"/>
      <point x="604" y="697"/>
      <point x="725.5" y="550"/>
      <point x="695.5" y="350" type="curve" smooth="yes"/>
      <point x="663.5" y="143.5"/>
      <point x="498" y="3"/>
    </contour>
  </outline>
</glyph>
<glyph name="Ntilde" format="2">
  <advance width="763"/>
  <unicode hex="00D1"/>
  <outline>
    <contour>
      <point x="647.5" y="700" type="line"/>
      <point x="785" y="700" type="line"/>
      <point x="659.5" y="-33.5" type="line"/>
      <point x="258" y="433" type="line"/>
      <point x="183" y="0" type="line"/>
      <point x="45" y="0" type="line"/>
      <point x="170" y="733.5" type="line"/>
      <point x="572.5" y="267" type="line"/>
    </contour>
    <contour>
      <point x="291" y="822" type="line"/>
      <point x="311.5" y="867.5"/>
      <point x="357" y="913"/>
      <point x="415" y="911.5" type="curve" smooth="yes"/>
      <point x="469" y="910.5"/>
      <point x="486" y="860.5"/>
      <point x="535" y="862" type="curve" smooth="yes"/>
      <point x="562" y="863"/>
      <point x="585.5" y="887"/>
      <point x="606.5" y="912.5" type="curve"/>
      <point x="660" y="846" type="line"/>
      <point x="635" y="809.5"/>
      <point x="583" y="764.5"/>
      <point x="527" y="766.5" type="curve" smooth="yes"/>
      <point x="479" y="768.5"/>
      <point x="451" y="819"/>
      <point x="406" y="816.5" type="curve" smooth="yes"/>
      <point x="371.5" y="814.5"/>
      <point x="357.5" y="784.5"/>
      <point x="349" y="766.5" type="curve"/>
    </contour>
  </outline>
</glyph>
<glyph name="Ograve" format="2">
  <advance width="787"/>
  <unicode hex="00D2"/>
  <outline>
    <contour>
      <point x="216" y="350" type="curve" smooth="yes"/>
      <point x="197.5" y="232"/>
      <point x="254.5" y="121.5"/>
      <point x="383" y="120.5" type="curve" smooth="yes"/>
      <point x="513.5" y="119.5"/>
      <point x="615.5" y="225"/>
      <point x="637" y="350" type="curve" smooth="yes"/>
      <point x="656" y="468"/>
      <point x="600.5" y="578.5"/>
      <point x="470" y="579.5" type="curve" smooth="yes"/>
      <point x="339.5" y="580.5"/>
      <point x="237" y="475"/>
    </contour>
    <contour>
      <point x="66" y="350" type="curve" smooth="yes"/>
      <point x="97" y="554"/>
      <point x="274" y="714"/>
      <point x="484" y="714" type="curve" smooth="yes"/>
      <point x="692" y="714"/>
      <point x="815.5" y="546.5"/>
      <point x="787" y="350" type="curve" smooth="yes"/>
      <point x="756" y="146"/>
      <point x="581.5" y="-18.5"/>
      <point x="368" y="-18" type="curve" smooth="yes"/>
      <point x="157.5" y="-17.5"/>
      <point x="37.5" y="153.5"/>
    </contour>
    <contour>
      <point x="390" y="930" type="line"/>
      <point x="496" y="978" type="line"/>
      <point x="617" y="816" type="line"/>
      <point x="542" y="778" type="line"/>
    </contour>
  </outline>
</glyph>
<glyph name="Ocircumflex" format="2">
  <advance width="787"/>
  <unicode hex="00D4"/>
  <outline>
    <contour>
      <point x="216" y="350" type="curve" smooth="yes"/>
      <point x="197.5" y="232"/>
      <point x="254.5" y="121.5"/>
      <point x="383" y="120.5" type="curve" smooth="yes"/>
      <point x="513.5" y="119.5"/>
      <point x="615.5" y="225"/>
      <point x="637" y="350" type="curve" smooth="yes"/>
      <point x="656" y="468"/>
      <point x="600.5" y="578.5"/>
      <point x="470" y="579.5" type="curve" smooth="yes"/>
      <point x="339.5" y="580.5"/>
      <point x="237" y="475"/>
    </contour>
    <contour>
      <point x="66" y="350" type="curve" smooth="yes"/>
      <point x="97" y="554"/>
      <point x="274" y="714"/>
      <point x="484" y="714" type="curve" smooth="yes"/>
      <point x="692" y="714"/>
      <point x="815.5" y="546.5"/>
      <point x="787" y="350" type="curve" smooth="yes"/>
      <point x="756" y="146"/>
      <point x="581.5" y="-18.5"/>
      <point x="368" y="-18" type="curve" smooth="yes"/>
      <point x="157.5" y="-17.5"/>
      <point x="37.5" y="153.5"/>
    </contour>
    <contour>
      <point x="515" y="862" type="line"/>
      <point x="405.5" y="774.5" type="line"/>
      <point x="326" y="838.5" type="line"/>
      <point x="528" y="976" type="line"/>
      <point x="688.5" y="834" type="line"/>
      <point x="594" y="774" type="line"/>
    </contour>
  </outline>
</glyph>
<glyph name="Otilde" format="2">
  <advance width="787"/>
  <unicode hex="00D5"/>
  <outline>
    <contour>
      <point x="216" y="350" type="curve" smooth="yes"/>
      <point x="197.5" y="232"/>
      <point x="254.5" y="121.5"/>
      <point x="383" y="120.5" type="curve" smooth="yes"/>
      <point x="513.5" y="119.5"/>
      <point x="615.5" y="225"/>
      <point x="637" y="350" type="curve" smooth="yes"/>
      <point x="656" y="468"/>
      <point x="600.5" y="578.5"/>
      <point x="470" y="579.5" type="curve" smooth="yes"/>
      <point x="339.5" y="580.5"/>
      <point x="237" y="475"/>
    </contour>
    <contour>
      <point x="66" y="350" type="curve" smooth="yes"/>
      <point x="97" y="554"/>
      <point x="274" y="714"/>
      <point x="484" y="714" type="curve" smooth="yes"/>
      <point x="692" y="714"/>
      <point x="815.5" y="546.5"/>
      <point x="787" y="350" type="curve" smooth="yes"/>
      <point x="756" y="146"/>
      <point x="581.5" y="-18.5"/>
      <point x="368" y="-18" type="curve" smooth="yes"/>
      <point x="157.5" y="-17.5"/>
      <point x="37.5" y="153.5"/>
    </contour>
    <contour>
      <point x="341" y="822" type="line"/>
      <point x="361.5" y="867.5"/>
      <point x="407" y="913"/>
      <point x="465" y="911.5" type="curve" smooth="yes"/>
      <point x="519" y="910.5"/>
      <point x="536" y="860.5"/>
      <point x="585" y="862" type="curve" smooth="yes"/>
      <point x="612" y="863"/>
      <point x="635.5" y="887"/>
      <point x="656.5" y="912.5" type="curve"/>
      <point x="710" y="846" type="line"/>
      <point x="685" y="809.5"/>
      <point x="633" y="764.5"/>
      <point x="577" y="766.5" type="curve" smooth="yes"/>
      <point x="529" y="768.5"/>
      <point x="501" y="819"/>
      <point x="456" y="816.5" type="curve" smooth="yes"/>
      <point x="421.5" y="814.5"/>
      <point x="407.5" y="784.5"/>
      <point x="399" y="766.5" type="curve"/>
    </contour>
  </outline>
</glyph>
<glyph name="Odieresis" format="2">
  <advance width="787"/>
  <unicode hex="00D6"/>
  <outline>
    <contour>
      <point x="216" y="350" type="curve" smooth="yes"/>
      <point x="197.5" y="232"/>
      <point x="254.5" y="121.5"/>
      <point x="383" y="120.5" type="curve" smooth="yes"/>
      <point x="513.5" y="119.5"/>
      <point x="615.5" y="225"/>
      <point x="637" y="350" type="curve" smooth="yes"/>
      <point x="656" y="468"/>
      <point x="600.5" y="578.5"/>
      <point x="470" y="579.5" type="curve" smooth="yes"/>
      <point x="339.5" y="580.5"/>
      <point x="237" y="475"/>
    </contour>
    <contour>
      <point x="66" y="350" type="curve" smooth="yes"/>
      <point x="97" y="554"/>
      <point x="274" y="714"/>
      <point x="484" y="714" type="curve" smooth="yes"/>
      <point x="692" y="714"/>
      <point x="815.5" y="546.5"/>
      <point x="787" y="350" type="curve" smooth="yes"/>
      <point x="756" y="146"/>
      <point x="581.5" y="-18.5"/>
      <point x="368" y="-18" type="curve" smooth="yes"/>
      <point x="157.5" y="-17.5"/>
      <point x="37.5" y="153.5"/>
    </contour>
    <contour>
      <point x="546.5" y="849.5" type="curve" smooth="yes"/>
      <point x="551.5" y="888.5"/>
      <point x="592.5" y="922.5"/>
      <point x="633.5" y="921.5" type="curve" smooth="yes"/>
      <point x="675" y="920.5"/>
      <point x="706" y="887"/>
      <point x="701" y="847" type="curve" smooth="yes"/>
      <point x="696" y="808"/>
      <point x="654.5" y="773.5"/>
      <point x="613.5" y="774.5" type="curve" smooth="yes"/>
      <point x="572" y="775.5"/>
      <point x="541.5" y="809.5"/>
    </contour>
    <contour>
      <point x="323" y="849.5" type="curve" smooth="yes"/>
      <point x="328" y="888.5"/>
      <point x="368.5" y="922.5"/>
      <point x="409.5" y="921.5" type="curve" smooth="yes"/>
      <point x="451" y="920.5"/>
      <point x="481.5" y="887"/>
      <point x="476.5" y="847" type="curve" smooth="yes"/>
      <point x="471.5" y="808"/>
      <point x="431" y="773.5"/>
      <point x="390" y="774.5" type="curve" smooth="yes"/>
      <point x="348.5" y="775.5"/>
      <point x="318" y="809.5"/>
    </contour>
  </outline>
</glyph>
<glyph name="multiply" format="2">
  <advance width="578"/>
  <unicode hex="00D7"/>
  <outline>
    <contour>
      <point x="107" y="8" type="line"/>
      <point x="39" y="95" type="line"/>
      <point x="230.5" y="258" type="line"/>
      <point x="94.5" y="422" type="line"/>
      <point x="186" y="502" type="line"/>
      <point x="316" y="334" type="line"/>
      <point x="504" y="502" type="line"/>
      <point x="572" y="415" type="line"/>
      <point x="380.5" y="252" type="line"/>
      <point x="516.5" y="88" type="line"/>
      <point x="425" y="8" type="line"/>
      <point x="295" y="176" type="line"/>
    </contour>
  </outline>
</glyph>
<glyph name="Oslash" format="2">
  <advance width="766"/>
  <unicode hex="00D8"/>
  <outline>
    <contour>
      <point x="216" y="350" type="curve" smooth="yes"/>
      <point x="197" y="231"/>
      <point x="254" y="121.5"/>
      <point x="383" y="120.5" type="curve" smooth="yes"/>
      <point x="513.5" y="119.5"/>
      <point x="615.5" y="223.5"/>
      <point x="637" y="350" type="curve" smooth="yes"/>
      <point x="656" y="469"/>
      <point x="599" y="578.5"/>
      <point x="470" y="579.5" type="curve" smooth="yes"/>
      <point x="339.5" y="580.5"/>
      <point x="237.5" y="476.5"/>
    </contour>
    <contour>
      <point x="66" y="350" type="curve" smooth="yes"/>
      <point x="97" y="554"/>
      <point x="272" y="714.5"/>
      <point x="484" y="714" type="curve" smooth="yes"/>
      <point x="691.5" y="713.5"/>
      <point x="815.5" y="546.5"/>
      <point x="787" y="350" type="curve" smooth="yes"/>
      <point x="756" y="146"/>
      <point x="580" y="-18.5"/>
      <point x="368" y="-18" type="curve" smooth="yes"/>
      <point x="159" y="-17.5"/>
      <point x="37.5" y="154"/>
    </contour>
    <contour>
      <point x="772" y="753.5" type="line"/>
      <point x="833.5" y="703" type="line"/>
      <point x="76.5" y="-54" type="line"/>
      <point x="16" y="-5" type="line"/>
    </contour>
  </outline>
</glyph>
<glyph name="Ugrave" format="2">
  <advance width="658"/>
  <unicode hex="00D9"/>
  <outline>
    <contour>
      <point x="160.5" y="700" type="line"/>
      <point x="302" y="700" type="line"/>
      <point x="221.5" y="238" type="line" smooth="yes"/>
      <point x="212.5" y="169"/>
      <point x="237.5" y="108.5"/>
      <point x="316.5" y="107.5" type="curve" smooth="yes"/>
      <point x="396.5" y="106.5"/>
      <point x="448" y="166"/>
      <point x="462" y="238.5" type="curve"/>
      <point x="542" y="700" type="line"/>
      <point x="684" y="700" type="line"/>
      <point x="604" y="230" type="line" smooth="yes"/>
      <point x="578" y="76.5"/>
      <point x="457.5" y="-23"/>
      <point x="302.5" y="-23" type="curve" smooth="yes"/>
      <point x="151.5" y="-23"/>
      <point x="60.5" y="79"/>
      <point x="80.5" y="230" type="curve"/>
    </contour>
    <contour>
      <point x="312.5" y="926" type="line"/>
      <point x="418.5" y="974" type="line"/>
      <point x="539.5" y="811.5" type="line"/>
      <point x="464.5" y="774" type="line"/>
    </contour>
  </outline>
</glyph>
<glyph name="Uacute" format="2">
  <advance width="658"/>
  <unicode hex="00DA"/>
  <outline>
    <contour>
      <point x="160.5" y="700" type="line"/>
      <point x="302" y="700" type="line"/>
      <point x="221.5" y="238" type="line" smooth="yes"/>
      <point x="212.5" y="169"/>
      <point x="237.5" y="108.5"/>
      <point x="316.5" y="107.5" type="curve" smooth="yes"/>
      <point x="396.5" y="106.5"/>
      <point x="448" y="166"/>
      <point x="462" y="238.5" type="curve"/>
      <point x="542" y="700" type="line"/>
      <point x="684" y="700" type="line"/>
      <point x="604" y="230" type="line" smooth="yes"/>
      <point x="578" y="76.5"/>
      <point x="457.5" y="-23"/>
      <point x="302.5" y="-23" type="curve" smooth="yes"/>
      <point x="151.5" y="-23"/>
      <point x="60.5" y="79"/>
      <point x="80.5" y="230" type="curve"/>
    </contour>
    <contour>
      <point x="609" y="921" type="line"/>
      <point x="411" y="775" type="line"/>
      <point x="341" y="816" type="line"/>
      <point x="512" y="973" type="line"/>
    </contour>
  </outline>
</glyph>
<glyph name="Ucircumflex" format="2">
  <advance width="658"/>
  <unicode hex="00DB"/>
  <outline>
    <contour>
      <point x="160.5" y="700" type="line"/>
      <point x="302" y="700" type="line"/>
      <point x="221.5" y="238" type="line" smooth="yes"/>
      <point x="212.5" y="169"/>
      <point x="237.5" y="108.5"/>
      <point x="316.5" y="107.5" type="curve" smooth="yes"/>
      <point x="396.5" y="106.5"/>
      <point x="448" y="166"/>
      <point x="462" y="238.5" type="curve"/>
      <point x="542" y="700" type="line"/>
      <point x="684" y="700" type="line"/>
      <point x="604" y="230" type="line" smooth="yes"/>
      <point x="578" y="76.5"/>
      <point x="457.5" y="-23"/>
      <point x="302.5" y="-23" type="curve" smooth="yes"/>
      <point x="151.5" y="-23"/>
      <point x="60.5" y="79"/>
      <point x="80.5" y="230" type="curve"/>
    </contour>
    <contour>
      <point x="452.5" y="862" type="line"/>
      <point x="343" y="774.5" type="line"/>
      <point x="264" y="838.5" type="line"/>
      <point x="465.5" y="976" type="line"/>
      <point x="626" y="834" type="line"/>
      <point x="531" y="774" type="line"/>
    </contour>
  </outline>
</glyph>
<glyph name="Yacute" format="2">
  <advance width="611"/>
  <unicode hex="00DD"/>
  <outline>
    <contour>
      <point x="584" y="921" type="line"/>
      <point x="386.5" y="774.5" type="line"/>
      <point x="318" y="816" type="line"/>
      <point x="489" y="973" type="line"/>
    </contour>
    <contour>
      <point x="541" y="699.5" type="line"/>
      <point x="707" y="699.5" type="line"/>
      <point x="400" y="286.5" type="line"/>
      <point x="351" y="0" type="line"/>
      <point x="206" y="0" type="line"/>
      <point x="258" y="293" type="line"/>
      <point x="94.5" y="700" type="line"/>
      <point x="253" y="700" type="line"/>
      <point x="348.5" y="421" type="line"/>
    </contour>
  </outline>
</glyph>
<glyph name="Thorn" format="2">
  <advance width="575"/>
  <unicode hex="00DE"/>
  <outline>
    <contour>
      <point x="168.5" y="700" type="line"/>
      <point x="296.5" y="700" type="line"/>
      <point x="176.5" y="0" type="line"/>
      <point x="50" y="0" type="line"/>
    </contour>
    <contour>
      <point x="204" y="456" type="line"/>
      <point x="225" y="574" type="line"/>
      <point x="356" y="574" type="line"/>
      <point x="504" y="572"/>
      <point x="599" y="488.5"/>
      <point x="578" y="351.5" type="curve" smooth="yes"/>
      <point x="557" y="213"/>
      <point x="441.5" y="134"/>
      <point x="289" y="132" type="curve"/>
      <point x="149" y="132" type="line"/>
      <point x="169.5" y="248" type="line"/>
      <point x="301" y="248" type="line"/>
      <point x="376.5" y="250"/>
      <point x="437" y="282"/>
      <point x="450" y="352.5" type="curve" smooth="yes"/>
      <point x="462" y="421.5"/>
      <point x="415.5" y="453.5"/>
      <point x="344" y="455.5" type="curve"/>
    </contour>
  </outline>
</glyph>
<glyph name="germandbls" format="2">
  <advance width="591"/>
  <unicode hex="00DF"/>
  <outline>
    <contour>
      <point x="372.5" y="-12" type="curve" smooth="yes"/>
      <point x="316.5" y="-12"/>
      <point x="252.5" y="8"/>
      <point x="218.5" y="36" type="curve"/>
      <point x="255" y="136" type="line"/>
      <point x="283" y="112"/>
      <point x="320" y="96"/>
      <point x="354" y="96" type="curve" smooth="yes"/>
      <point x="408" y="96"/>
      <point x="446" y="136"/>
      <point x="446" y="186" type="curve" smooth="yes"/>
      <point x="446" y="288"/>
      <point x="310" y="292.5"/>
      <point x="310" y="388.5" type="curve" smooth="yes"/>
      <point x="310" y="480.5"/>
      <point x="455" y="507"/>
      <point x="455" y="608" type="curve" smooth="yes"/>
      <point x="455" y="658"/>
      <point x="421.5" y="680"/>
      <point x="374.5" y="680" type="curve" smooth="yes"/>
      <point x="308.5" y="680"/>
      <point x="266" y="640"/>
      <point x="254" y="562" type="curve" smooth="yes"/>
      <point x="160" y="-2" type="line"/>
      <point x="29" y="-2" type="line"/>
      <point x="124" y="569" type="line" smooth="yes"/>
      <point x="145.5" y="704"/>
      <point x="226" y="796"/>
      <point x="390.5" y="796" type="curve" smooth="yes"/>
      <point x="504.5" y="796"/>
      <point x="590" y="731"/>
      <point x="590" y="630" type="curve" smooth="yes"/>
      <point x="590" y="491"/>
      <point x="449" y="463"/>
      <point x="449" y="397" type="curve" smooth="yes"/>
      <point x="449" y="331"/>
      <point x="581" y="334"/>
      <point x="581" y="190" type="curve" smooth="yes"/>
      <point x="581" y="78"/>
      <point x="488.5" y="-12"/>
    </contour>
  </outline>
</glyph>
<glyph name="atilde" format="2">
  <advance width="584"/>
  <unicode hex="00E3"/>
  <outline>
    <contour>
      <point x="452" y="460" type="line"/>
      <point x="579" y="460" type="line"/>
      <point x="499.5" y="0" type="line"/>
      <point x="374" y="0" type="line"/>
    </contour>
    <contour>
      <point x="42.5" y="230" type="curve" smooth="yes"/>
      <point x="61" y="366.5"/>
      <point x="171" y="471"/>
      <point x="295.5" y="470" type="curve" smooth="yes"/>
      <point x="419" y="469"/>
      <point x="467" y="354.5"/>
      <point x="451" y="230" type="curve" smooth="yes"/>
      <point x="433" y="98.5"/>
      <point x="344.5" y="-9.5"/>
      <point x="222" y="-9.5" type="curve" smooth="yes"/>
      <point x="97" y="-9.5"/>
      <point x="25.5" y="99"/>
    </contour>
    <contour>
      <point x="176" y="230" type="curve" smooth="yes"/>
      <point x="166" y="161"/>
      <point x="200" y="99.5"/>
      <point x="270" y="98.5" type="curve" smooth="yes"/>
      <point x="334" y="97.5"/>
      <point x="398.5" y="157"/>
      <point x="410.5" y="230" type="curve" smooth="yes"/>
      <point x="420" y="299"/>
      <point x="384.5" y="359.5"/>
      <point x="322" y="361.5" type="curve" smooth="yes"/>
      <point x="251" y="363.5"/>
      <point x="188" y="303"/>
    </contour>
    <contour>
      <point x="191" y="589" type="line"/>
      <point x="211" y="636.5"/>
      <point x="257.5" y="678"/>
      <point x="315" y="678" type="curve" smooth="yes"/>
      <point x="369" y="678"/>
      <point x="385.5" y="627"/>
      <point x="435" y="628.5" type="curve" smooth="yes"/>
      <point x="462" y="629.5"/>
      <point x="485.5" y="654"/>
      <point x="506.5" y="679.5" type="curve"/>
      <point x="560" y="612.5" type="line"/>
      <point x="535" y="576"/>
      <point x="483" y="531"/>
      <point x="427" y="533" type="curve" smooth="yes"/>
      <point x="379" y="535"/>
      <point x="351" y="586"/>
      <point x="306" y="583.5" type="curve" smooth="yes"/>
      <point x="271.5" y="581.5"/>
      <point x="257.5" y="551.5"/>
      <point x="249" y="533.5" type="curve"/>
    </contour>
  </outline>
</glyph>
<glyph name="adieresis" format="2">
  <advance width="584"/>
  <unicode hex="00E4"/>
  <outline>
    <contour>
      <point x="452" y="460" type="line"/>
      <point x="579" y="460" type="line"/>
      <point x="499.5" y="0" type="line"/>
      <point x="374" y="0" type="line"/>
    </contour>
    <contour>
      <point x="42.5" y="230" type="curve" smooth="yes"/>
      <point x="61" y="366.5"/>
      <point x="171" y="471"/>
      <point x="295.5" y="470" type="curve" smooth="yes"/>
      <point x="419" y="469"/>
      <point x="467" y="354.5"/>
      <point x="451" y="230" type="curve" smooth="yes"/>
      <point x="433" y="98.5"/>
      <point x="344.5" y="-9.5"/>
      <point x="222" y="-9.5" type="curve" smooth="yes"/>
      <point x="97" y="-9.5"/>
      <point x="25.5" y="99"/>
    </contour>
    <contour>
      <point x="176" y="230" type="curve" smooth="yes"/>
      <point x="166" y="161"/>
      <point x="200" y="99.5"/>
      <point x="270" y="98.5" type="curve" smooth="yes"/>
      <point x="334" y="97.5"/>
      <point x="398.5" y="157"/>
      <point x="410.5" y="230" type="curve" smooth="yes"/>
      <point x="420" y="299"/>
      <point x="384.5" y="359.5"/>
      <point x="322" y="361.5" type="curve" smooth="yes"/>
      <point x="251" y="363.5"/>
      <point x="188" y="303"/>
    </contour>
    <contour>
      <point x="403" y="605" type="curve" smooth="yes"/>
      <point x="408" y="644"/>
      <point x="449" y="678.5"/>
      <point x="490" y="677.5" type="curve" smooth="yes"/>
      <point x="531.5" y="676.5"/>
      <point x="561" y="643"/>
      <point x="556" y="603" type="curve" smooth="yes"/>
      <point x="551" y="564"/>
      <point x="511" y="530"/>
      <point x="470" y="531" type="curve" smooth="yes"/>
      <point x="428.5" y="532"/>
      <point x="398" y="565"/>
    </contour>
    <contour>
      <point x="179" y="605" type="curve" smooth="yes"/>
      <point x="184" y="644"/>
      <point x="224.5" y="678.5"/>
      <point x="265.5" y="677.5" type="curve" smooth="yes"/>
      <point x="307" y="676.5"/>
      <point x="337" y="643"/>
      <point x="332" y="603" type="curve" smooth="yes"/>
      <point x="327" y="564"/>
      <point x="286.5" y="530"/>
      <point x="245.5" y="531" type="curve" smooth="yes"/>
      <point x="204" y="532"/>
      <point x="174" y="565"/>
    </contour>
  </outline>
</glyph>
<glyph name="aring" format="2">
  <advance width="584"/>
  <unicode hex="00E5"/>
  <outline>
    <contour>
      <point x="452" y="460" type="line"/>
      <point x="579" y="460" type="line"/>
      <point x="499.5" y="0" type="line"/>
      <point x="374" y="0" type="line"/>
    </contour>
    <contour>
      <point x="42.5" y="230" type="curve" smooth="yes"/>
      <point x="61" y="366.5"/>
      <point x="171" y="471"/>
      <point x="295.5" y="470" type="curve" smooth="yes"/>
      <point x="419" y="469"/>
      <point x="467" y="354.5"/>
      <point x="451" y="230" type="curve" smooth="yes"/>
      <point x="433" y="98.5"/>
      <point x="344.5" y="-9.5"/>
      <point x="222" y="-9.5" type="curve" smooth="yes"/>
      <point x="97" y="-9.5"/>
      <point x="25.5" y="99"/>
    </contour>
    <contour>
      <point x="176" y="230" type="curve" smooth="yes"/>
      <point x="166" y="161"/>
      <point x="200" y="99.5"/>
      <point x="270" y="98.5" type="curve" smooth="yes"/>
      <point x="334" y="97.5"/>
      <point x="398.5" y="157"/>
      <point x="410.5" y="230" type="curve" smooth="yes"/>
      <point x="420" y="299"/>
      <point x="384.5" y="359.5"/>
      <point x="322" y="361.5" type="curve" smooth="yes"/>
      <point x="251" y="363.5"/>
      <point x="188" y="303"/>
    </contour>
    <contour>
      <point x="243" y="641.5" type="curve" smooth="yes"/>
      <point x="251.5" y="703.5"/>
      <point x="311" y="751"/>
      <point x="374" y="751" type="curve" smooth="yes"/>
      <point x="437" y="751"/>
      <point x="483" y="702.5"/>
      <point x="474.5" y="640" type="curve" smooth="yes"/>
      <point x="466" y="578"/>
      <point x="406" y="530"/>
      <point x="343" y="530" type="curve" smooth="yes"/>
      <point x="280" y="530"/>
      <point x="234.5" y="579.5"/>
    </contour>
    <contour>
      <point x="312" y="640" type="curve" smooth="yes"/>
      <point x="309" y="615.5"/>
      <point x="324.5" y="592.5"/>
      <point x="348" y="592.5" type="curve" smooth="yes"/>
      <point x="372.5" y="592.5"/>
      <point x="402.5" y="616"/>
      <point x="405.5" y="641.5" type="curve" smooth="yes"/>
      <point x="408.5" y="666"/>
      <point x="392.5" y="689"/>
      <point x="369" y="689" type="curve" smooth="yes"/>
      <point x="344.5" y="689"/>
      <point x="315" y="665.5"/>
    </contour>
  </outline>
</glyph>
<glyph name="ae" format="2">
  <advance width="860"/>
  <unicode hex="00E6"/>
  <outline>
    <contour>
      <point x="186" y="-10" type="curve" smooth="yes"/>
      <point x="68" y="-10"/>
      <point x="9.5" y="44.5"/>
      <point x="16.5" y="124.5" type="curve" smooth="yes"/>
      <point x="22.5" y="213.5"/>
      <point x="110" y="281"/>
      <point x="231" y="281" type="curve" smooth="yes"/>
      <point x="288" y="281"/>
      <point x="333.5" y="268"/>
      <point x="410.5" y="226" type="curve"/>
      <point x="350" y="226" type="line"/>
      <point x="361.5" y="293.5" type="line" smooth="yes"/>
      <point x="368.5" y="345"/>
      <point x="340.5" y="370"/>
      <point x="290" y="370" type="curve" smooth="yes"/>
      <point x="246" y="370"/>
      <point x="183.5" y="352"/>
      <point x="143.5" y="328" type="curve"/>
      <point x="105" y="418" type="line"/>
      <point x="175" y="454"/>
      <point x="243" y="472"/>
      <point x="309" y="472" type="curve" smooth="yes"/>
      <point x="405" y="472"/>
      <point x="456" y="435"/>
      <point x="451.5" y="359" type="curve"/>
      <point x="435" y="350.5" type="line"/>
      <point x="480" y="422.5"/>
      <point x="558.5" y="470"/>
      <point x="658" y="470" type="curve" smooth="yes"/>
      <point x="783" y="470"/>
      <point x="854" y="391.5"/>
      <point x="843" y="256" type="curve" smooth="yes"/>
      <point x="841.5" y="233.5"/>
      <point x="836.5" y="213.5"/>
      <point x="832" y="202" type="curve"/>
      <point x="463.5" y="202" type="line"/>
      <point x="486" y="220" type="line"/>
      <point x="475.5" y="143.5"/>
      <point x="504" y="89"/>
      <point x="578" y="89" type="curve" smooth="yes"/>
      <point x="632" y="89"/>
      <point x="678.5" y="112"/>
      <point x="706" y="156" type="curve"/>
      <point x="818.5" y="120" type="line"/>
      <point x="760.5" y="33"/>
      <point x="673" y="-10"/>
      <point x="569" y="-10" type="curve" smooth="yes"/>
      <point x="469" y="-10"/>
      <point x="409.5" y="26"/>
      <point x="385" y="105" type="curve"/>
      <point x="399.5" y="104" type="line"/>
      <point x="367.5" y="32"/>
      <point x="293" y="-10"/>
    </contour>
    <contour>
      <point x="221" y="80" type="curve" smooth="yes"/>
      <point x="288.5" y="80"/>
      <point x="332" y="116"/>
      <point x="350.5" y="188" type="curve"/>
      <point x="344.5" y="128" type="line"/>
      <point x="345" y="203" type="line"/>
      <point x="360.5" y="176" type="line"/>
      <point x="329" y="196"/>
      <point x="290" y="206"/>
      <point x="250" y="206" type="curve" smooth="yes"/>
      <point x="191.5" y="206"/>
      <point x="150.5" y="180.5"/>
      <point x="148.5" y="134.5" type="curve" smooth="yes"/>
      <point x="147" y="96.5"/>
      <point x="169" y="80"/>
    </contour>
    <contour>
      <point x="486" y="237" type="curve"/>
      <point x="470.5" y="281" type="line"/>
      <point x="730.5" y="281" type="line"/>
      <point x="705" y="250" type="line"/>
      <point x="708" y="257"/>
      <point x="708" y="258"/>
      <point x="708" y="266" type="curve" smooth="yes"/>
      <point x="712" y="337"/>
      <point x="689.5" y="378"/>
      <point x="624.5" y="378" type="curve" smooth="yes"/>
      <point x="552.5" y="378"/>
      <point x="506" y="327"/>
    </contour>
  </outline>
</glyph>
<glyph name="ccedilla" format="2">
  <advance width="473"/>
  <unicode hex="00E7"/>
  <outline>
    <contour>
      <point x="171" y="230" type="curve" smooth="yes"/>
      <point x="159.5" y="159"/>
      <point x="199.5" y="99"/>
      <point x="273" y="97.5" type="curve" smooth="yes"/>
      <point x="334" y="96.5"/>
      <point x="391.5" y="129"/>
      <point x="427" y="169" type="curve"/>
      <point x="407.5" y="36.5" type="line"/>
      <point x="368" y="7.5"/>
      <point x="316.5" y="-10"/>
      <point x="255" y="-10" type="curve" smooth="yes"/>
      <point x="113.5" y="-10"/>
      <point x="20.5" y="95"/>
      <point x="40" y="230" type="curve" smooth="yes"/>
      <point x="61" y="369.5"/>
      <point x="183.5" y="470"/>
      <point x="328.5" y="470" type="curve" smooth="yes"/>
      <point x="388" y="470"/>
      <point x="435" y="452.5"/>
      <point x="471" y="424" type="curve"/>
      <point x="450.5" y="290" type="line"/>
      <point x="428" y="335"/>
      <point x="380.5" y="363"/>
      <point x="326.5" y="362.5" type="curve" smooth="yes"/>
      <point x="251.5" y="362"/>
      <point x="184" y="303"/>
    </contour>
    <contour>
      <point x="217" y="59" type="line"/>
      <point x="313" y="57" type="line"/>
      <point x="213.5" y="-62" type="line"/>
      <point x="221.5" y="-60"/>
      <point x="230" y="-59"/>
      <point x="239" y="-59" type="curve" smooth="yes"/>
      <point x="281.5" y="-62"/>
      <point x="317" y="-98"/>
      <point x="310.5" y="-151" type="curve" smooth="yes"/>
      <point x="302" y="-215"/>
      <point x="235.5" y="-252.5"/>
      <point x="175.5" y="-253.5" type="curve" smooth="yes"/>
      <point x="128" y="-254.5"/>
      <point x="93" y="-240.5"/>
      <point x="54" y="-213.5" type="curve"/>
      <point x="102.5" y="-155.5" type="line"/>
      <point x="123" y="-170.5"/>
      <point x="145.5" y="-180"/>
      <point x="168" y="-180" type="curve" smooth="yes"/>
      <point x="195" y="-180"/>
      <point x="226.5" y="-164.5"/>
      <point x="228.5" y="-141.5" type="curve" smooth="yes"/>
      <point x="230.5" y="-118"/>
      <point x="205" y="-110.5"/>
      <point x="181.5" y="-110" type="curve" smooth="yes"/>
      <point x="163.5" y="-109"/>
      <point x="131.5" y="-115"/>
      <point x="103" y="-125" type="curve"/>
    </contour>
  </outline>
</glyph>
<glyph name="igrave" format="2">
  <advance width="262"/>
  <unicode hex="00EC"/>
  <outline>
    <contour>
      <point x="119.5" y="460" type="line"/>
      <point x="246" y="460" type="line"/>
      <point x="166" y="0" type="line"/>
      <point x="42" y="0" type="line"/>
    </contour>
    <contour>
      <point x="53.5" y="694" type="line"/>
      <point x="159.5" y="740" type="line"/>
      <point x="280" y="578" type="line"/>
      <point x="206" y="542" type="line"/>
    </contour>
  </outline>
</glyph>
<glyph name="iacute" format="2">
  <advance width="262"/>
  <unicode hex="00ED"/>
  <outline>
    <contour>
      <point x="119.5" y="460" type="line"/>
      <point x="246" y="460" type="line"/>
      <point x="166" y="0" type="line"/>
      <point x="42" y="0" type="line"/>
    </contour>
    <contour>
      <point x="387" y="689" type="line"/>
      <point x="189" y="543" type="line"/>
      <point x="119.5" y="582.5" type="line"/>
      <point x="290.5" y="739.5" type="line"/>
    </contour>
  </outline>
</glyph>
<glyph name="icircumflex" format="2">
  <advance width="262"/>
  <unicode hex="00EE"/>
  <outline>
    <contour>
      <point x="119.5" y="460" type="line"/>
      <point x="246" y="460" type="line"/>
      <point x="166" y="0" type="line"/>
      <point x="42" y="0" type="line"/>
    </contour>
    <contour>
      <point x="214.5" y="623.5" type="line"/>
      <point x="104.5" y="536.5" type="line"/>
      <point x="25.5" y="600" type="line"/>
      <point x="227" y="738" type="line"/>
      <point x="387.5" y="596" type="line"/>
      <point x="293" y="536" type="line"/>
    </contour>
  </outline>
</glyph>
<glyph name="idieresis" format="2">
  <advance width="262"/>
  <unicode hex="00EF"/>
  <outline>
    <contour>
      <point x="119.5" y="460" type="line"/>
      <point x="246" y="460" type="line"/>
      <point x="166" y="0" type="line"/>
      <point x="42" y="0" type="line"/>
    </contour>
    <contour>
      <point x="245.5" y="623" type="curve" smooth="yes"/>
      <point x="250.5" y="662"/>
      <point x="291.5" y="695.5"/>
      <point x="332.5" y="694.5" type="curve" smooth="yes"/>
      <point x="374" y="693.5"/>
      <point x="404" y="660"/>
      <point x="399" y="620" type="curve" smooth="yes"/>
      <point x="394" y="581"/>
      <point x="353.5" y="547"/>
      <point x="312.5" y="548" type="curve" smooth="yes"/>
      <point x="271" y="549"/>
      <point x="240.5" y="583"/>
    </contour>
    <contour>
      <point x="22" y="623" type="curve" smooth="yes"/>
      <point x="27" y="662"/>
      <point x="67.5" y="695.5"/>
      <point x="108.5" y="694.5" type="curve" smooth="yes"/>
      <point x="150" y="693.5"/>
      <point x="180" y="660"/>
      <point x="175" y="620" type="curve" smooth="yes"/>
      <point x="170" y="581"/>
      <point x="129.5" y="547"/>
      <point x="88.5" y="548" type="curve" smooth="yes"/>
      <point x="47" y="549"/>
      <point x="17" y="583"/>
    </contour>
  </outline>
</glyph>
<glyph name="eth" format="2">
  <advance width="611"/>
  <unicode hex="00F0"/>
  <outline>
    <contour>
      <point x="285" y="-14" type="curve" smooth="yes"/>
      <point x="149" y="-14"/>
      <point x="52" y="74.5"/>
      <point x="52" y="211.5" type="curve" smooth="yes"/>
      <point x="52" y="358.5"/>
      <point x="169.5" y="468"/>
      <point x="300" y="468" type="curve" smooth="yes"/>
      <point x="376" y="468"/>
      <point x="434.5" y="430"/>
      <point x="494" y="356" type="curve"/>
      <point x="452.5" y="358" type="line"/>
      <point x="404.5" y="491.5"/>
      <point x="332" y="581"/>
      <point x="202" y="680" type="curve"/>
      <point x="295" y="750" type="line"/>
      <point x="500" y="565"/>
      <point x="577" y="428.5"/>
      <point x="577" y="277.5" type="curve" smooth="yes"/>
      <point x="577" y="122.5"/>
      <point x="459" y="-14"/>
    </contour>
    <contour>
      <point x="294" y="104" type="curve" smooth="yes"/>
      <point x="379" y="104"/>
      <point x="437" y="177"/>
      <point x="437" y="251" type="curve" smooth="yes"/>
      <point x="437" y="319.5"/>
      <point x="395" y="362.5"/>
      <point x="333" y="362.5" type="curve" smooth="yes"/>
      <point x="258.5" y="362.5"/>
      <point x="188" y="295"/>
      <point x="188" y="214" type="curve" smooth="yes"/>
      <point x="188" y="150"/>
      <point x="230.5" y="104"/>
    </contour>
    <contour>
      <point x="217.5" y="506" type="line"/>
      <point x="201" y="558" type="line"/>
      <point x="529" y="669" type="line"/>
      <point x="546" y="616" type="line"/>
    </contour>
  </outline>
</glyph>
<glyph name="ntilde" format="2">
  <advance width="542"/>
  <unicode hex="00F1"/>
  <outline>
    <contour>
      <point x="241.5" y="460" type="line"/>
      <point x="162" y="0" type="line"/>
      <point x="33" y="0" type="line"/>
      <point x="113" y="460" type="line"/>
    </contour>
    <contour>
      <point x="372" y="280" type="line"/>
      <point x="377.5" y="328.5"/>
      <point x="370" y="370.5"/>
      <point x="317" y="373" type="curve" smooth="yes"/>
      <point x="262" y="375.5"/>
      <point x="222.5" y="330.5"/>
      <point x="210" y="281" type="curve"/>
      <point x="177.5" y="277" type="line"/>
      <point x="196.5" y="378"/>
      <point x="263" y="470"/>
      <point x="373" y="470" type="curve" smooth="yes"/>
      <point x="480" y="470"/>
      <point x="517" y="395.5"/>
      <point x="505" y="294" type="curve"/>
      <point x="455" y="0" type="line"/>
      <point x="323" y="0" type="line"/>
    </contour>
    <contour>
      <point x="163.5" y="589.5" type="line"/>
      <point x="184" y="635"/>
      <point x="229" y="679.5"/>
      <point x="287" y="678" type="curve" smooth="yes"/>
      <point x="341" y="677"/>
      <point x="358" y="627"/>
      <point x="407" y="628.5" type="curve" smooth="yes"/>
      <point x="434" y="629.5"/>
      <point x="457" y="654"/>
      <point x="478" y="679.5" type="curve"/>
      <point x="532" y="612.5" type="line"/>
      <point x="507" y="576"/>
      <point x="455" y="531"/>
      <point x="399" y="533" type="curve" smooth="yes"/>
      <point x="351" y="535"/>
      <point x="323.5" y="586"/>
      <point x="278.5" y="583.5" type="curve" smooth="yes"/>
      <point x="244" y="581.5"/>
      <point x="230" y="551.5"/>
      <point x="221.5" y="533.5" type="curve"/>
    </contour>
  </outline>
</glyph>
<glyph name="oacute" format="2">
  <advance width="558"/>
  <unicode hex="00F3"/>
  <outline>
    <contour>
      <point x="42.5" y="230" type="curve" smooth="yes"/>
      <point x="62.5" y="367.5"/>
      <point x="185" y="470"/>
      <point x="328.5" y="470" type="curve" smooth="yes"/>
      <point x="469" y="470"/>
      <point x="560.5" y="364.5"/>
      <point x="541" y="230" type="curve" smooth="yes"/>
      <point x="521" y="92.5"/>
      <point x="398" y="-10"/>
      <point x="255" y="-10" type="curve" smooth="yes"/>
      <point x="114.5" y="-10"/>
      <point x="23" y="95.5"/>
    </contour>
    <contour>
      <point x="174" y="230" type="curve" smooth="yes"/>
      <point x="164" y="163"/>
      <point x="197" y="101.5"/>
      <point x="266" y="100.5" type="curve" smooth="yes"/>
      <point x="336" y="99.5"/>
      <point x="398" y="159"/>
      <point x="410" y="230" type="curve" smooth="yes"/>
      <point x="420" y="297"/>
      <point x="386.5" y="359"/>
      <point x="317.5" y="360" type="curve" smooth="yes"/>
      <point x="247.5" y="361"/>
      <point x="186" y="301"/>
    </contour>
    <contour>
      <point x="526.5" y="689" type="line"/>
      <point x="329" y="543" type="line"/>
      <point x="259" y="582.5" type="line"/>
      <point x="430" y="739.5" type="line"/>
    </contour>
  </outline>
</glyph>
<glyph name="otilde" format="2">
  <advance width="558"/>
  <unicode hex="00F5"/>
  <outline>
    <contour>
      <point x="42.5" y="230" type="curve" smooth="yes"/>
      <point x="62.5" y="367.5"/>
      <point x="185" y="470"/>
      <point x="328.5" y="470" type="curve" smooth="yes"/>
      <point x="469" y="470"/>
      <point x="560.5" y="364.5"/>
      <point x="541" y="230" type="curve" smooth="yes"/>
      <point x="521" y="92.5"/>
      <point x="398" y="-10"/>
      <point x="255" y="-10" type="curve" smooth="yes"/>
      <point x="114.5" y="-10"/>
      <point x="23" y="95.5"/>
    </contour>
    <contour>
      <point x="174" y="230" type="curve" smooth="yes"/>
      <point x="164" y="163"/>
      <point x="197" y="101.5"/>
      <point x="266" y="100.5" type="curve" smooth="yes"/>
      <point x="336" y="99.5"/>
      <point x="398" y="159"/>
      <point x="410" y="230" type="curve" smooth="yes"/>
      <point x="420" y="297"/>
      <point x="386.5" y="359"/>
      <point x="317.5" y="360" type="curve" smooth="yes"/>
      <point x="247.5" y="361"/>
      <point x="186" y="301"/>
    </contour>
    <contour>
      <point x="171" y="589" type="line"/>
      <point x="171" y="636.5"/>
      <point x="249" y="678.5"/>
      <point x="294.5" y="678" type="curve" smooth="yes"/>
      <point x="348.5" y="677"/>
      <point x="365.5" y="627"/>
      <point x="415" y="628.5" type="curve" smooth="yes"/>
      <point x="442" y="629.5"/>
      <point x="464.5" y="654"/>
      <point x="485.5" y="679.5" type="curve"/>
      <point x="540" y="612.5" type="line"/>
      <point x="515" y="576"/>
      <point x="463.5" y="531"/>
      <point x="407.5" y="533" type="curve" smooth="yes"/>
      <point x="359.5" y="535"/>
      <point x="330.5" y="586"/>
      <point x="285.5" y="583.5" type="curve" smooth="yes"/>
      <point x="251" y="581.5"/>
      <point x="238" y="551.5"/>
      <point x="229.5" y="533.5" type="curve"/>
    </contour>
  </outline>
</glyph>
<glyph name="divide" format="2">
  <advance width="615"/>
  <unicode hex="00F7"/>
  <outline>
    <contour>
      <point x="288" y="523" type="curve" smooth="yes"/>
      <point x="293.5" y="565"/>
      <point x="335" y="604"/>
      <point x="380" y="603" type="curve" smooth="yes"/>
      <point x="425.5" y="602"/>
      <point x="456.5" y="563"/>
      <point x="451" y="521" type="curve" smooth="yes"/>
      <point x="445.5" y="479"/>
      <point x="403" y="440.5"/>
      <point x="358" y="441.5" type="curve" smooth="yes"/>
      <point x="312.5" y="442.5"/>
      <point x="282.5" y="481"/>
    </contour>
    <contour>
      <point x="214.5" y="91" type="curve" smooth="yes"/>
      <point x="220" y="133"/>
      <point x="261.5" y="171.5"/>
      <point x="306.5" y="170.5" type="curve" smooth="yes"/>
      <point x="352" y="169.5"/>
      <point x="382" y="131"/>
      <point x="376.5" y="89" type="curve" smooth="yes"/>
      <point x="371" y="47"/>
      <point x="329" y="8"/>
      <point x="284" y="9" type="curve" smooth="yes"/>
      <point x="238.5" y="10"/>
      <point x="209" y="49"/>
    </contour>
    <contour>
      <point x="49.5" y="249.5" type="line"/>
      <point x="70" y="368" type="line"/>
      <point x="617.5" y="368" type="line"/>
      <point x="596.5" y="249" type="line"/>
    </contour>
  </outline>
</glyph>
<glyph name="oslash" format="2">
  <advance width="529"/>
  <unicode hex="00F8"/>
  <outline>
    <contour>
      <point x="42.5" y="230" type="curve" smooth="yes"/>
      <point x="63.5" y="371"/>
      <point x="185.5" y="470"/>
      <point x="328.5" y="470" type="curve" smooth="yes"/>
      <point x="468.5" y="470"/>
      <point x="560.5" y="367.5"/>
      <point x="541" y="230" type="curve" smooth="yes"/>
      <point x="520" y="89"/>
      <point x="398" y="-10"/>
      <point x="255" y="-10" type="curve" smooth="yes"/>
      <point x="115" y="-10"/>
      <point x="23" y="92.5"/>
    </contour>
    <contour>
      <point x="165.5" y="230" type="curve" smooth="yes"/>
      <point x="154" y="159"/>
      <point x="192" y="97.5"/>
      <point x="265" y="96.5" type="curve" smooth="yes"/>
      <point x="339" y="95.5"/>
      <point x="406.5" y="155"/>
      <point x="418.5" y="230" type="curve" smooth="yes"/>
      <point x="429.5" y="298.5"/>
      <point x="390.5" y="362.5"/>
      <point x="318" y="363.5" type="curve" smooth="yes"/>
      <point x="244" y="364.5"/>
      <point x="178" y="302.5"/>
    </contour>
    <contour>
      <point x="493.5" y="503.5" type="line"/>
      <point x="544.5" y="473" type="line"/>
      <point x="78.5" y="-47.5" type="line"/>
      <point x="28" y="-18" type="line"/>
    </contour>
  </outline>
</glyph>
<glyph name="uacute" format="2">
  <advance width="542"/>
  <unicode hex="00FA"/>
  <outline>
    <contour>
      <point x="326" y="0" type="line"/>
      <point x="405.5" y="460" type="line"/>
      <point x="534.5" y="460" type="line"/>
      <point x="455" y="0" type="line"/>
    </contour>
    <contour>
      <point x="196.5" y="180" type="line"/>
      <point x="191" y="131.5"/>
      <point x="197" y="89.5"/>
      <point x="250" y="87" type="curve" smooth="yes"/>
      <point x="305" y="84.5"/>
      <point x="345" y="129.5"/>
      <point x="357.5" y="179" type="curve"/>
      <point x="391" y="183" type="line"/>
      <point x="372" y="82"/>
      <point x="304.5" y="-10"/>
      <point x="194.5" y="-10" type="curve" smooth="yes"/>
      <point x="87.5" y="-10"/>
      <point x="50.5" y="64.5"/>
      <point x="62.5" y="166" type="curve"/>
      <point x="113" y="460" type="line"/>
      <point x="245.5" y="460" type="line"/>
    </contour>
    <contour>
      <point x="496.5" y="689" type="line"/>
      <point x="299" y="542" type="line"/>
      <point x="230" y="582.5" type="line"/>
      <point x="401" y="739.5" type="line"/>
    </contour>
  </outline>
</glyph>
<glyph name="ucircumflex" format="2">
  <advance width="542"/>
  <unicode hex="00FB"/>
  <outline>
    <contour>
      <point x="326" y="0" type="line"/>
      <point x="405.5" y="460" type="line"/>
      <point x="534.5" y="460" type="line"/>
      <point x="455" y="0" type="line"/>
    </contour>
    <contour>
      <point x="196.5" y="180" type="line"/>
      <point x="191" y="131.5"/>
      <point x="197" y="89.5"/>
      <point x="250" y="87" type="curve" smooth="yes"/>
      <point x="305" y="84.5"/>
      <point x="345" y="129.5"/>
      <point x="357.5" y="179" type="curve"/>
      <point x="391" y="183" type="line"/>
      <point x="372" y="82"/>
      <point x="304.5" y="-10"/>
      <point x="194.5" y="-10" type="curve" smooth="yes"/>
      <point x="87.5" y="-10"/>
      <point x="50.5" y="64.5"/>
      <point x="62.5" y="166" type="curve"/>
      <point x="113" y="460" type="line"/>
      <point x="245.5" y="460" type="line"/>
    </contour>
    <contour>
      <point x="355" y="629" type="line"/>
      <point x="245.5" y="542" type="line"/>
      <point x="166" y="606" type="line"/>
      <point x="368" y="744" type="line"/>
      <point x="528.5" y="601.5" type="line"/>
      <point x="433.5" y="541.5" type="line"/>
    </contour>
  </outline>
</glyph>
<glyph name="udieresis" format="2">
  <advance width="542"/>
  <unicode hex="00FC"/>
  <outline>
    <contour>
      <point x="326" y="0" type="line"/>
      <point x="405.5" y="460" type="line"/>
      <point x="534.5" y="460" type="line"/>
      <point x="455" y="0" type="line"/>
    </contour>
    <contour>
      <point x="196.5" y="180" type="line"/>
      <point x="191" y="131.5"/>
      <point x="197" y="89.5"/>
      <point x="250" y="87" type="curve" smooth="yes"/>
      <point x="305" y="84.5"/>
      <point x="345" y="129.5"/>
      <point x="357.5" y="179" type="curve"/>
      <point x="391" y="183" type="line"/>
      <point x="372" y="82"/>
      <point x="304.5" y="-10"/>
      <point x="194.5" y="-10" type="curve" smooth="yes"/>
      <point x="87.5" y="-10"/>
      <point x="50.5" y="64.5"/>
      <point x="62.5" y="166" type="curve"/>
      <point x="113" y="460" type="line"/>
      <point x="245.5" y="460" type="line"/>
    </contour>
    <contour>
      <point x="385.5" y="617" type="curve" smooth="yes"/>
      <point x="390.5" y="656"/>
      <point x="431" y="690"/>
      <point x="472" y="689" type="curve" smooth="yes"/>
      <point x="513.5" y="688"/>
      <point x="544" y="654.5"/>
      <point x="539" y="614.5" type="curve" smooth="yes"/>
      <point x="534" y="575.5"/>
      <point x="493" y="541"/>
      <point x="452" y="542" type="curve" smooth="yes"/>
      <point x="410" y="543"/>
      <point x="380.5" y="577"/>
    </contour>
    <contour>
      <point x="161.5" y="617" type="curve" smooth="yes"/>
      <point x="166.5" y="656"/>
      <point x="207" y="690"/>
      <point x="248" y="689" type="curve" smooth="yes"/>
      <point x="289.5" y="688"/>
      <point x="319.5" y="654.5"/>
      <point x="314.5" y="614.5" type="curve" smooth="yes"/>
      <point x="309.5" y="575.5"/>
      <point x="269" y="541"/>
      <point x="228" y="542" type="curve" smooth="yes"/>
      <point x="186" y="543"/>
      <point x="156.5" y="577"/>
    </contour>
  </outline>
</glyph>
<glyph name="yacute" format="2">
  <advance width="481"/>
  <unicode hex="00FD"/>
  <outline>
    <contour>
      <point x="544" y="459.5" type="line"/>
      <point x="135" y="-219.5" type="line"/>
      <point x="0" y="-219.5" type="line"/>
      <point x="162" y="49.5" type="line"/>
      <point x="46" y="460" type="line"/>
      <point x="185.5" y="460" type="line"/>
      <point x="266" y="94" type="line"/>
      <point x="202" y="96" type="line"/>
      <point x="406" y="459.5" type="line"/>
    </contour>
    <contour>
      <point x="480" y="689" type="line"/>
      <point x="282" y="543" type="line"/>
      <point x="213" y="582.5" type="line"/>
      <point x="383.5" y="739.5" type="line"/>
    </contour>
  </outline>
</glyph>
<glyph name="thorn" format="2">
  <advance width="584"/>
  <unicode hex="00FE"/>
  <outline>
    <contour>
      <point x="123" y="-220" type="line"/>
      <point x="-7" y="-220" type="line"/>
      <point x="165" y="780" type="line"/>
      <point x="293" y="780" type="line"/>
    </contour>
    <contour>
      <point x="566" y="230" type="curve" smooth="yes"/>
      <point x="547.5" y="93.5"/>
      <point x="438" y="-11"/>
      <point x="313.5" y="-10" type="curve" smooth="yes"/>
      <point x="190" y="-9"/>
      <point x="141.5" y="105.5"/>
      <point x="157.5" y="230" type="curve" smooth="yes"/>
      <point x="175.5" y="361.5"/>
      <point x="264.5" y="469.5"/>
      <point x="387" y="469.5" type="curve" smooth="yes"/>
      <point x="512" y="469.5"/>
      <point x="583" y="361"/>
    </contour>
    <contour>
      <point x="433.5" y="230" type="curve" smooth="yes"/>
      <point x="443.5" y="299"/>
      <point x="409" y="360.5"/>
      <point x="339" y="361.5" type="curve" smooth="yes"/>
      <point x="275" y="362.5"/>
      <point x="210.5" y="303"/>
      <point x="198.5" y="230" type="curve" smooth="yes"/>
      <point x="189" y="161"/>
      <point x="224.5" y="100.5"/>
      <point x="287" y="98.5" type="curve" smooth="yes"/>
      <point x="358" y="96.5"/>
      <point x="421.5" y="157"/>
    </contour>
  </outline>
</glyph>
<glyph name="ydieresis" format="2">
  <advance width="481"/>
  <unicode hex="00FF"/>
  <outline>
    <contour>
      <point x="544" y="459.5" type="line"/>
      <point x="135" y="-219.5" type="line"/>
      <point x="0" y="-219.5" type="line"/>
      <point x="162" y="49.5" type="line"/>
      <point x="46" y="460" type="line"/>
      <point x="185.5" y="460" type="line"/>
      <point x="266" y="94" type="line"/>
      <point x="202" y="96" type="line"/>
      <point x="406" y="459.5" type="line"/>
    </contour>
    <contour>
      <point x="352.5" y="605" type="curve" smooth="yes"/>
      <point x="357.5" y="644"/>
      <point x="398.5" y="678.5"/>
      <point x="439.5" y="677.5" type="curve" smooth="yes"/>
      <point x="481" y="676.5"/>
      <point x="511" y="643"/>
      <point x="506" y="603" type="curve" smooth="yes"/>
      <point x="501" y="564"/>
      <point x="460" y="530"/>
      <point x="419" y="531" type="curve" smooth="yes"/>
      <point x="377.5" y="532"/>
      <point x="347.5" y="565"/>
    </contour>
    <contour>
      <point x="128.5" y="605" type="curve" smooth="yes"/>
      <point x="133.5" y="644"/>
      <point x="175" y="678.5"/>
      <point x="216" y="677.5" type="curve" smooth="yes"/>
      <point x="257.5" y="676.5"/>
      <point x="287" y="643"/>
      <point x="282" y="603" type="curve" smooth="yes"/>
      <point x="277" y="564"/>
      <point x="237" y="530"/>
      <point x="196" y="531" type="curve" smooth="yes"/>
      <point x="154.5" y="532"/>
      <point x="123.5" y="565"/>
    </contour>
  </outline>
</glyph>
<glyph name="Amacron" format="2">
  <advance width="690"/>
  <unicode hex="0100"/>
  <outline>
    <contour>
      <point x="167" y="158.5" type="line"/>
      <point x="203" y="271.5" type="line"/>
      <point x="531" y="272" type="line"/>
      <point x="528" y="158" type="line"/>
    </contour>
    <contour>
      <point x="402" y="472" type="line"/>
      <point x="259" y="230.5" type="line"/>
      <point x="257" y="198.5" type="line"/>
      <point x="134" y="0" type="line"/>
      <point x="-29.5" y="0" type="line"/>
      <point x="444.5" y="744" type="line"/>
      <point x="663" y="0" type="line"/>
      <point x="506.5" y="0" type="line"/>
      <point x="452" y="192.5" type="line"/>
      <point x="460" y="229" type="line"/>
    </contour>
    <contour>
      <point x="278" y="802" type="line"/>
      <point x="297" y="916" type="line"/>
      <point x="653" y="916" type="line"/>
      <point x="634" y="802" type="line"/>
    </contour>
  </outline>
</glyph>
<glyph name="Abreve" format="2">
  <advance width="690"/>
  <unicode hex="0102"/>
  <outline>
    <contour>
      <point x="167" y="158.5" type="line"/>
      <point x="203" y="271.5" type="line"/>
      <point x="531" y="272" type="line"/>
      <point x="528" y="158" type="line"/>
    </contour>
    <contour>
      <point x="402" y="472" type="line"/>
      <point x="259" y="230.5" type="line"/>
      <point x="257" y="198.5" type="line"/>
      <point x="134" y="0" type="line"/>
      <point x="-29.5" y="0" type="line"/>
      <point x="444.5" y="744" type="line"/>
      <point x="663" y="0" type="line"/>
      <point x="506.5" y="0" type="line"/>
      <point x="452" y="192.5" type="line"/>
      <point x="460" y="229" type="line"/>
    </contour>
    <contour>
      <point x="321" y="946" type="curve"/>
      <point x="408" y="945.5" type="line"/>
      <point x="407.5" y="913.5"/>
      <point x="422" y="883"/>
      <point x="465" y="882" type="curve" smooth="yes"/>
      <point x="509.5" y="881"/>
      <point x="536" y="914.5"/>
      <point x="547" y="945.5" type="curve"/>
      <point x="638" y="945" type="line"/>
      <point x="620" y="866"/>
      <point x="557.5" y="802"/>
      <point x="459" y="802" type="curve" smooth="yes"/>
      <point x="361.5" y="802"/>
      <point x="315.5" y="866"/>
    </contour>
  </outline>
</glyph>
<glyph name="abreve" format="2">
  <advance width="584"/>
  <unicode hex="0103"/>
  <outline>
    <contour>
      <point x="452" y="460" type="line"/>
      <point x="579" y="460" type="line"/>
      <point x="499.5" y="0" type="line"/>
      <point x="374" y="0" type="line"/>
    </contour>
    <contour>
      <point x="42.5" y="230" type="curve" smooth="yes"/>
      <point x="61" y="366.5"/>
      <point x="171" y="471"/>
      <point x="295.5" y="470" type="curve" smooth="yes"/>
      <point x="419" y="469"/>
      <point x="467" y="354.5"/>
      <point x="451" y="230" type="curve" smooth="yes"/>
      <point x="433" y="98.5"/>
      <point x="344.5" y="-9.5"/>
      <point x="222" y="-9.5" type="curve" smooth="yes"/>
      <point x="97" y="-9.5"/>
      <point x="25.5" y="99"/>
    </contour>
    <contour>
      <point x="176" y="230" type="curve" smooth="yes"/>
      <point x="166" y="161"/>
      <point x="200" y="99.5"/>
      <point x="270" y="98.5" type="curve" smooth="yes"/>
      <point x="334" y="97.5"/>
      <point x="398.5" y="157"/>
      <point x="410.5" y="230" type="curve" smooth="yes"/>
      <point x="420" y="299"/>
      <point x="384.5" y="359.5"/>
      <point x="322" y="361.5" type="curve" smooth="yes"/>
      <point x="251" y="363.5"/>
      <point x="188" y="303"/>
    </contour>
    <contour>
      <point x="198" y="674.5" type="curve"/>
      <point x="286" y="674.5" type="line"/>
      <point x="286" y="642.5"/>
      <point x="300" y="612"/>
      <point x="343" y="611" type="curve" smooth="yes"/>
      <point x="387.5" y="610"/>
      <point x="414" y="643.5"/>
      <point x="424.5" y="674.5" type="curve"/>
      <point x="515" y="673.5" type="line"/>
      <point x="497.5" y="594.5"/>
      <point x="436" y="530"/>
      <point x="337.5" y="530" type="curve" smooth="yes"/>
      <point x="240" y="530"/>
      <point x="193" y="594.5"/>
    </contour>
  </outline>
</glyph>
<glyph name="Aogonek" format="2">
  <advance width="690"/>
  <unicode hex="0104"/>
  <outline>
    <contour>
      <point x="167" y="158.5" type="line"/>
      <point x="203" y="271.5" type="line"/>
      <point x="531" y="272" type="line"/>
      <point x="528" y="158" type="line"/>
    </contour>
    <contour>
      <point x="402" y="472" type="line"/>
      <point x="259" y="230.5" type="line"/>
      <point x="257" y="198.5" type="line"/>
      <point x="134" y="0" type="line"/>
      <point x="-29.5" y="0" type="line"/>
      <point x="444.5" y="744" type="line"/>
      <point x="663" y="0" type="line"/>
      <point x="506.5" y="0" type="line"/>
      <point x="452" y="192.5" type="line"/>
      <point x="460" y="229" type="line"/>
    </contour>
    <contour>
      <point x="613.5" y="-116" type="curve"/>
      <point x="636" y="-181.5" type="line"/>
      <point x="613" y="-201.5"/>
      <point x="582.5" y="-220"/>
      <point x="538" y="-220" type="curve" smooth="yes"/>
      <point x="474" y="-220"/>
      <point x="428.5" y="-180.5"/>
      <point x="436.5" y="-119" type="curve" smooth="yes"/>
      <point x="447.5" y="-50"/>
      <point x="524" y="-8.5"/>
      <point x="591" y="24.5" type="curve"/>
      <point x="630" y="0" type="line"/>
      <point x="585" y="-25"/>
      <point x="539" y="-55.5"/>
      <point x="532" y="-96" type="curve" smooth="yes"/>
      <point x="530" y="-118.5"/>
      <point x="537.5" y="-134"/>
      <point x="560.5" y="-136" type="curve" smooth="yes"/>
      <point x="580.5" y="-137.5"/>
      <point x="599" y="-126.5"/>
    </contour>
  </outline>
</glyph>
